<svg xmlns="http://www.w3.org/2000/svg" width="105" height="40" viewBox="0 0 105 40" fill="none"><g clip-path="url(#clip0_975_4774)"><path d="M20.6589 28.5486H23.2561V25.9968C21.9775 25.8453 20.6589 26.2121 20.6589 27.6315V28.5486ZM17.3825 29.3301C14.6335 29.3939 13.243 30.287 13.243 33.0541V39.8403H15.8402V33.0541C15.8402 31.7543 16.3276 31.5629 17.3345 31.523C17.9738 31.4831 18.1976 31.6107 18.773 31.2918C19.3084 31.0127 19.5162 30.3588 19.5002 29.4178C18.7969 29.3779 18.2376 29.3141 17.3825 29.3301ZM3.58155 33.7399H7.31348C8.7599 33.7399 9.16746 34.2901 9.16746 35.6537C9.16746 37.0333 8.71995 37.6314 7.31348 37.6314H3.58155V33.7399ZM11.8525 35.7574C11.8525 33.5007 10.8696 32.7192 9.57501 32.4401C10.6618 31.9696 11.4689 31.3157 11.4689 29.354C11.4689 26.6108 10.1664 25.6299 7.4813 25.6299H0.896484V39.8403H7.76099C10.3422 39.8403 11.8525 38.8196 11.8525 35.7574ZM3.58155 31.5868V27.8468H6.9299C8.42427 27.8468 8.80785 28.3811 8.80785 29.6969C8.80785 31.0366 8.38431 31.5868 6.9299 31.5868H3.58155ZM34.2441 28.5486H36.8413V25.9968C35.5626 25.8453 34.2441 26.2121 34.2441 27.6315V28.5486ZM34.2281 29.4656H36.8492V39.8483H34.2281V29.4656ZM55.0694 29.3301C53.6869 29.3301 51.9368 30.0318 50.85 30.5023V25.3189C49.5714 25.1674 48.2448 25.5343 48.2448 26.9537V39.8403H50.85V32.6075C52.0247 32.161 53.3672 31.7144 54.2622 31.7144C55.0294 31.7144 55.4769 32.1849 55.4769 32.8866V39.8403H58.0821V32.7989C58.0821 30.5501 57.267 29.3301 55.0694 29.3301ZM20.6589 29.4656H23.2641V39.8483H20.6589V29.4656ZM29.1377 31.523H30.9916C32.3581 31.523 32.8696 30.909 32.7417 29.4576H29.1377V25.9968C27.8591 25.8453 26.5405 26.2121 26.5405 27.6315V29.4576H24.5986V31.523H26.5405V36.2279C26.5405 38.8196 27.6033 39.9519 30.3124 39.9519C31.1435 39.9519 31.8467 39.8881 32.51 39.8004L32.446 37.7351C31.9586 37.7749 31.2314 37.8228 30.632 37.8228C29.6331 37.8228 29.1377 37.4799 29.1377 36.3794V31.523ZM40.8529 32.3364C40.8529 31.6745 41.3643 31.4433 42.0036 31.4433C43.0904 31.4433 44.0893 31.4831 44.7366 31.5071C45.9114 31.5469 46.4867 30.909 46.4228 29.5533C45.6317 29.4656 43.8256 29.338 42.3313 29.338C40.0058 29.338 38.3037 30.2072 38.3037 32.3603C38.3037 34.5931 39.5583 35.1912 41.8678 35.574C43.9535 35.9169 44.385 36.0604 44.385 36.7861C44.385 37.6633 43.4021 37.7909 42.4671 37.7909C41.0846 37.7909 39.6142 37.7032 38.6952 37.6234L38.5674 39.7924C39.5503 39.8802 40.9967 39.9599 42.579 39.9599C45.2641 39.9599 46.9502 39.1306 46.9502 36.8977C46.9502 34.7526 45.8235 34.1147 43.5619 33.6841C41.4522 33.3093 40.8529 33.1657 40.8529 32.3364ZM75.543 31.6347H70.1729C70.045 33.1897 70.5565 33.8515 71.923 33.8515H72.8579V37.4001C72.1148 37.5038 70.4286 37.6314 69.6854 37.6314C67.5517 37.6314 66.7206 36.8021 66.7206 32.6155C66.7206 28.5486 67.336 27.5916 70.7083 27.8468L73.0098 28.0143C74.5441 28.102 75.1195 27.2727 75.0955 25.9728C74.0486 25.8054 71.2757 25.5024 70.1249 25.5024C65.2183 25.5024 63.9237 26.9058 63.9237 32.6713C63.9237 38.2853 65.498 39.944 69.5975 39.944C71.1318 39.944 74.0327 39.625 75.543 39.306V31.6347ZM90.3828 32.3364C90.3828 31.6745 90.8943 31.4433 91.5336 31.4433C92.6204 31.4433 93.6193 31.4831 94.2586 31.5071C95.4333 31.5469 96.0087 30.909 95.9447 29.5533C95.1536 29.4656 93.3476 29.338 91.8532 29.338C89.5277 29.338 87.8256 30.2072 87.8256 32.3603C87.8256 34.5931 89.0802 35.1912 91.3897 35.574C93.4754 35.9169 93.907 36.0604 93.907 36.7861C93.907 37.6633 92.924 37.7909 91.9891 37.7909C90.6066 37.7909 89.1362 37.7032 88.2172 37.6234L88.0893 39.7924C89.0722 39.8802 90.5187 39.9599 92.1009 39.9599C94.786 39.9599 96.4722 39.1306 96.4722 36.8977C96.4722 34.7526 95.3454 34.1147 93.0839 33.6841C90.9822 33.3093 90.3828 33.1657 90.3828 32.3364ZM83.782 37.9185C83.1187 38.0062 81.7842 38.0461 80.6734 38.0461C79.6345 38.0461 79.4587 37.3682 79.4587 36.7542C79.4587 35.7973 79.9062 35.5421 80.9691 35.3507C81.8641 35.1833 82.7591 35.0716 83.782 35.0078V37.9185ZM86.3792 32.6952C86.3792 30.5501 85.5081 29.4018 82.847 29.4018C81.1849 29.4018 79.0192 29.5932 78.0363 29.6969C78.0123 30.9887 78.3799 31.6506 79.5067 31.6506C80.2738 31.6506 81.7602 31.5629 82.6313 31.5629C83.3984 31.5629 83.782 31.842 83.782 32.7271V33.1099C82.6153 33.1737 81.5445 33.3013 80.5695 33.4528C78.276 33.7957 76.9335 34.4496 76.9335 36.7223C76.9335 38.7637 77.9564 39.9918 80.146 39.9918C82.4475 39.9918 84.9967 39.8243 86.3792 39.6569V32.6952Z" fill="#002E6E"></path><path d="M88.297 5.17562C88.297 5.17562 84.7569 6.35583 82.879 7.99855C81.6643 8.99535 80.8332 10.343 80.4976 11.8581C81.8401 11.1325 83.2146 10.6779 83.2146 10.6779L95.9287 6.53126C95.9287 6.53126 96.4242 16.1803 90.7344 20.4226C92.3886 20.0957 94.2905 19.3939 96.4721 18.1579C104.879 13.3972 104.192 0.000244141 104.192 0.000244141L88.297 5.17562Z" fill="url(#paint0_linear_975_4774)"></path><path d="M78.8835 12.9427C77.5889 14.0033 76.8457 15.5583 76.8457 17.2648C76.8457 20.4625 79.6906 23.0542 83.1988 23.0542C84.9169 23.1021 87.0745 22.5917 89.7676 21.0606C90.1112 20.8612 90.4389 20.6539 90.7425 20.4227C89.8475 20.5981 89.0324 20.6619 88.2732 20.6459C83.886 20.6459 80.3299 17.4083 80.3299 13.4132C80.3299 12.8869 80.3858 12.3685 80.4977 11.8661C79.9144 12.1772 79.339 12.544 78.8835 12.9427Z" fill="url(#paint1_linear_975_4774)"></path></g><defs><linearGradient id="paint0_linear_975_4774" x1="97.8154" y1="17.6483" x2="91.3037" y2="3.65414" gradientUnits="userSpaceOnUse"><stop stop-color="#00AEEF"></stop><stop offset="0.8" stop-color="#074EA2"></stop><stop offset="1" stop-color="#2E3092"></stop></linearGradient><linearGradient id="paint1_linear_975_4774" x1="77.1293" y1="15.242" x2="89.5683" y2="22.4389" gradientUnits="userSpaceOnUse"><stop stop-color="#D6E040"></stop><stop offset="1" stop-color="#007F3D"></stop></linearGradient><clipPath id="clip0_975_4774"><rect width="103.311" height="40" fill="white" transform="translate(0.896484)"></rect></clipPath></defs></svg>