<svg xmlns="http://www.w3.org/2000/svg" width="126" height="30" viewBox="0 0 126 30" fill="none"><path fill-rule="evenodd" clip-rule="evenodd" d="M12.5602 27.1705L12.5577 27.1689L12.5548 27.1677C10.6408 26.2661 9.17126 24.6032 8.18813 22.224C7.29588 20.0669 6.82467 17.3083 6.82467 14.2464C6.82467 11.0544 7.36865 8.377 8.44101 6.28874C9.34519 4.52865 10.6293 3.17556 12.2576 2.2667C12.9919 1.84608 14.3052 1.51031 14.9713 1.42947L15.1444 1.40866V1.23857V0.850778V0.645874L14.9339 0.659481C11.5902 0.869988 8.02161 2.2651 5.38924 4.39098C3.1586 6.19229 0.499512 9.37951 0.499512 14.3324C0.499512 18.1936 1.93987 21.767 4.55455 24.3947C5.87854 25.725 7.46281 26.7803 9.26336 27.5323C11.1408 28.3159 13.2144 28.7505 15.4269 28.825L15.6313 28.8318V28.6329V28.2459V28.0698L15.4516 28.0542C14.5474 27.9737 13.5207 27.66 12.5602 27.1705Z" fill="#DD3F10"></path><path fill-rule="evenodd" clip-rule="evenodd" d="M29.898 0.648315H18.5433H18.3459V0.840413V1.22301V1.3983L18.5256 1.4139C20.401 1.57999 23.2159 2.1939 24.4162 2.84303L24.4219 2.84623L24.4277 2.84863C25.8561 3.50857 26.7192 4.13609 27.4075 5.01413C28.1571 5.97022 28.7377 7.27248 29.3491 9.36714L29.3898 9.50681H29.539H29.898H30.0954V9.31472V0.840413V0.648315H29.898Z" fill="#DD3F10"></path><path fill-rule="evenodd" clip-rule="evenodd" d="M29.539 19.9662H29.3898L29.3491 20.1055C28.7377 22.2009 28.1571 23.5028 27.4075 24.4593C26.7192 25.3377 25.8561 25.9652 24.4277 26.6244L24.4219 26.6272L24.4162 26.6304C23.2159 27.2791 20.401 27.8926 18.5256 28.0587L18.3459 28.0747V28.2504V28.633V28.8251H18.5433H29.898H30.0954V28.633V20.1583V19.9662H29.898H29.539Z" fill="#DD3F10"></path><path fill-rule="evenodd" clip-rule="evenodd" d="M22.3109 16.2864C23.0786 16.9507 23.5617 17.9661 23.9783 19.7914L24.0128 19.9415H24.1707H24.4885H24.6855V19.7498V9.87395V9.68225H24.4885H24.1707H24.0124L23.9783 9.83313C23.5634 11.6713 23.0803 12.6906 22.3114 13.3517C21.5396 14.0145 20.4092 14.3478 18.5306 14.4659L18.3459 14.4775V14.6576V14.9661V15.1462L18.5306 15.1578C20.4022 15.2755 21.5322 15.6125 22.3109 16.2864Z" fill="#DD3F10"></path><path fill-rule="evenodd" clip-rule="evenodd" d="M39.2671 28.8397V19.8876H44.5647V21.5292H41.0693V23.4274H44.0906V25.0686H41.0693V27.1973H44.5647V28.8397H39.2671Z" fill="#DD3F10"></path><path fill-rule="evenodd" clip-rule="evenodd" d="M48.2461 28.8397V19.8876H50.0355L53.8069 25.3127L54.1856 25.9242V19.8876H55.9878V28.8397H54.1856L50.4011 23.433L50.0483 22.8407V28.8397H48.2461Z" fill="#DD3F10"></path><path fill-rule="evenodd" clip-rule="evenodd" d="M59.7722 28.8397V19.8876H65.0698V21.5292H61.5744V23.4274H64.5953V25.0686H61.5744V27.1973H65.0698V28.8397H59.7722Z" fill="#DD3F10"></path><path fill-rule="evenodd" clip-rule="evenodd" d="M70.5536 23.9328H71.5926C72.0203 23.9328 72.3574 23.8308 72.6025 23.6267C72.8488 23.4234 72.9717 23.1272 72.9717 22.7406C72.9717 22.3448 72.8488 22.0439 72.6025 21.8386C72.3574 21.6325 72.0203 21.5292 71.5926 21.5292H70.5536V23.9328ZM68.751 28.8397V19.8876H71.5926C72.5716 19.8876 73.3553 20.1497 73.9429 20.6736C74.5313 21.1982 74.8257 21.8874 74.8257 22.7406C74.8257 23.2945 74.6851 23.7832 74.4047 24.2042C74.1251 24.6252 73.7308 24.9489 73.2217 25.1735L75.2168 28.8397H73.151L71.3681 25.4932H70.5536V28.8397H68.751Z" fill="#DD3F10"></path><path fill-rule="evenodd" clip-rule="evenodd" d="M77.718 24.3522C77.718 23.4698 77.9125 22.6766 78.3015 21.9734C78.6904 21.2695 79.2361 20.7196 79.9371 20.3214C80.6386 19.924 81.4314 19.7251 82.3166 19.7251C83.4457 19.7251 84.3672 19.9992 85.081 20.5463C85.7952 21.0934 86.2787 21.8374 86.5308 22.7774H84.5489C84.1982 21.8374 83.4391 21.3671 82.2718 21.3671C81.4807 21.3671 80.8372 21.6477 80.3413 22.2084C79.845 22.7694 79.5971 23.4838 79.5971 24.3522C79.5971 25.2343 79.8508 25.9571 80.3574 26.5209C80.8639 27.0844 81.53 27.3662 82.3553 27.3662C83.0267 27.3662 83.5687 27.2173 83.9815 26.9188C84.3939 26.6198 84.6213 26.1968 84.6645 25.6497H82.4708V24.0077H86.5945V24.7881C86.5945 25.6661 86.4161 26.4257 86.0592 27.0668C85.7019 27.7076 85.206 28.1914 84.5715 28.518C83.9367 28.8449 83.1978 29.0082 82.3553 29.0082C81.4573 29.0082 80.6547 28.8073 79.9466 28.4059C79.239 28.0045 78.6904 27.4502 78.3015 26.7423C77.9125 26.0355 77.718 25.2383 77.718 24.3522Z" fill="#DD3F10"></path><path fill-rule="evenodd" clip-rule="evenodd" d="M88.4058 19.8875H90.5093L92.4781 23.0086L92.793 23.6081L93.1261 23.0086L95.0956 19.8875H97.1996L93.7169 25.5183V28.8396H91.8889V25.5183L88.4058 19.8875Z" fill="#DD3F10"></path><path fill-rule="evenodd" clip-rule="evenodd" d="M49.6188 14.4015C48.766 14.8882 47.2072 15.2604 45.7073 15.2604C40.9129 15.2604 37.7366 12.4549 37.7366 7.98946C37.7366 3.60924 41.0013 0.717773 45.7073 0.717773C47.2072 0.717773 48.766 1.08996 49.6188 1.5482V3.95302H49.354C48.6484 2.52149 47.5012 1.7487 46.0013 1.7487C43.5601 1.7487 42.0305 3.95302 42.0305 7.98946C42.0305 12.0255 43.5601 14.2298 46.0013 14.2298C47.5012 14.2298 48.6484 13.457 49.354 12.0255H49.6188V14.4015Z" fill="#013149"></path><path fill-rule="evenodd" clip-rule="evenodd" d="M58.5975 1.74857C56.3623 1.74857 55.0091 3.98131 55.0091 7.98934C55.0091 11.997 56.3623 14.2301 58.5975 14.2301C60.8918 14.2301 62.2742 11.997 62.2742 7.98934C62.2742 3.98131 60.8918 1.74857 58.5975 1.74857ZM58.5683 15.2606C54.0975 15.2606 50.7444 12.3404 50.7444 7.98934C50.7444 3.63793 54.1267 0.717651 58.5975 0.717651C63.215 0.717651 66.5094 3.5807 66.5094 7.98934C66.5094 11.7965 63.8034 15.2606 58.5683 15.2606Z" fill="#013149"></path><path fill-rule="evenodd" clip-rule="evenodd" d="M78.1533 4.01011C77.7121 3.66674 77.0358 3.15127 75.9178 3.15127C73.7418 3.15127 72.859 4.75409 72.859 7.18772V14.9168H68.9471V5.64174C68.9471 2.95077 68.8299 1.86302 67.5359 1.46242V1.09023H72.565L72.6238 4.35349C73.3002 1.83421 74.9182 0.775269 76.3886 0.775269C77.5945 0.775269 78.3301 1.11864 78.9477 1.66252L78.1533 4.01011Z" fill="#013149"></path><path fill-rule="evenodd" clip-rule="evenodd" d="M86.7427 1.74857C84.5072 1.74857 83.1544 3.98131 83.1544 7.98934C83.1544 11.997 84.5072 14.2301 86.7427 14.2301C89.0367 14.2301 90.4191 11.997 90.4191 7.98934C90.4191 3.98131 89.0367 1.74857 86.7427 1.74857ZM86.7135 15.2606C82.2428 15.2606 78.8896 12.3404 78.8896 7.98934C78.8896 3.63793 82.272 0.717651 86.7427 0.717651C91.3603 0.717651 94.6546 3.5807 94.6546 7.98934C94.6546 11.7965 91.9487 15.2606 86.7135 15.2606Z" fill="#013149"></path><path fill-rule="evenodd" clip-rule="evenodd" d="M110.182 14.917H106.27V5.24086C106.27 3.55201 105.711 2.52148 104.006 2.52148C102.682 2.52148 101.652 3.58082 101.064 4.83986V14.917H97.1525V5.64187C97.1525 2.9509 97.0345 1.86275 95.7405 1.46215V1.08996H100.74L100.829 3.52319C101.77 1.83433 103.476 0.746582 105.417 0.746582C108.593 0.746582 110.182 2.37821 110.182 6.18574V14.917Z" fill="#013149"></path><path fill-rule="evenodd" clip-rule="evenodd" d="M119.882 7.64556C117.176 7.84606 116.088 9.1055 116.088 11.3098C116.088 12.7986 116.764 13.8007 118 13.8007C118.706 13.8007 119.411 13.5426 119.882 12.6553V7.64556ZM125.5 14.373C124.735 14.774 123.852 15.203 122.588 15.203C121.264 15.203 120.411 14.6591 120.117 13.6002C119.264 14.774 117.794 15.203 116.617 15.203C114.323 15.203 112.205 14.1729 112.205 11.7681C112.205 9.13431 114.264 7.15891 119.911 6.70108V4.06734C119.911 2.63581 119.205 1.80579 117.705 1.80579C116.146 1.80579 114.617 2.52136 113.294 3.83842V2.23521C114.588 1.29033 116.411 0.775269 118.411 0.775269C120.029 0.775269 121.588 1.20469 122.5 2.03471C123.47 2.95077 123.794 4.03853 123.794 5.47005V12.8842C123.794 13.314 123.912 13.7146 124.412 13.7146C124.735 13.7146 125.176 13.5426 125.5 13.3424V14.373Z" fill="#013149"></path></svg>