<svg xmlns="http://www.w3.org/2000/svg" width="95" height="40" viewBox="0 0 95 40" fill="none"><g clip-path="url(#clip0_975_4782)"><path fill-rule="evenodd" clip-rule="evenodd" d="M24.1971 6.12808C24.3471 4.87808 24.1612 3.05408 25.1492 2.19408C25.4372 0.862082 27.5331 1.17208 27.2071 0.324079C27.0051 -0.207921 26.0172 0.0460796 25.6192 0.14208C25.3192 0.21608 22.4411 1.12408 21.3351 1.25008L19.9311 0.858083C18.1271 1.10008 17.0851 2.53808 16.0811 3.67808C15.2371 4.63608 14.0991 6.97408 15.0051 8.37808L14.8551 9.29808L16.9051 12.2941C17.6131 12.8021 17.7051 13.1781 18.4671 13.6781L18.9371 14.3861C19.5611 14.7941 21.3951 14.8001 21.7071 14.5341C24.6631 14.8101 24.3411 8.82408 25.2791 7.56808C25.1631 7.00408 24.6671 6.41808 24.1971 6.12808ZM11.4552 24.1001C12.0812 23.9381 13.1511 23.8541 13.7111 23.5741C14.6031 23.1261 17.6711 20.9821 16.6951 19.2361C16.3931 15.5561 11.9532 18.6661 10.0632 17.3761C8.15116 17.1301 6.00116 13.5101 5.42516 11.9621C5.20116 11.3461 5.29514 11.5581 4.98714 11.0721C4.98914 11.0241 4.79114 11.2421 4.79314 11.1901C4.23314 11.8421 4.33115 12.4101 4.24315 13.9981L3.49115 13.9521C3.44315 14.5281 3.38514 14.8421 3.11514 15.1381C3.06314 15.2361 3.00314 15.3301 2.94914 15.4281C2.47514 15.2701 2.71114 15.4961 2.51714 15.0981C0.755136 15.1861 0.887148 16.9561 0.0771484 17.9641C0.111148 21.2661 6.65515 25.3441 11.4552 24.1001ZM33.1832 14.0621C30.3292 14.4941 28.5831 15.4041 27.5051 16.1501C26.7531 16.6761 26.5331 17.0281 26.3711 17.2481C26.2091 17.4701 26.0972 17.9581 26.1792 18.4741C26.2612 18.9861 26.4691 19.5301 26.9131 19.8341C30.4191 19.5741 36.5031 19.3541 37.6891 22.2981C37.7511 22.7061 37.8431 22.9521 37.8531 23.0501C39.0131 22.7641 38.1632 22.8661 39.8732 23.1361C40.2652 23.1961 41.2311 22.9801 41.8711 22.8221C42.1631 22.7561 42.3271 22.4901 42.3271 22.4901C42.3271 22.4901 42.2732 22.2101 42.2872 22.0581C42.2872 22.0581 42.8871 22.1001 43.1331 21.9141C44.7551 21.6501 43.9011 20.8881 44.6691 20.0321C44.2071 14.5281 38.5611 13.2481 33.1832 14.0621ZM26.9271 26.0361C26.1151 26.6561 25.7732 26.5021 25.2952 27.4641C25.2492 27.4641 25.3691 27.6101 25.3191 27.6101C25.8051 28.5761 26.9151 28.9681 27.7331 29.6481C27.9891 29.8621 28.6791 31.0581 29.0051 31.1441C29.3731 31.5841 29.6131 32.7961 29.8531 32.7961C30.1031 33.1381 29.8331 33.9421 30.0751 34.2541C30.0951 35.6941 29.8931 35.7961 29.6431 36.0701C29.6431 36.1721 29.7811 36.4341 29.7811 36.5301C29.8471 36.5981 30.4252 37.0121 30.6752 36.9621C31.4592 36.9861 34.6692 39.4921 34.9252 39.9741C37.2272 40.1481 37.0592 39.4441 38.6492 38.7681C39.0792 38.5841 39.4212 38.7581 39.7012 38.4661C39.9952 38.1661 40.0211 37.5701 40.3051 37.2601C40.3431 31.5981 32.6371 26.2301 26.9271 26.0361ZM17.8531 27.3281C17.5331 27.6701 16.6511 27.7961 16.4051 28.1841C16.0291 28.7761 15.1632 30.1221 14.4852 30.7621C12.3032 32.8321 7.63513 33.8741 5.33113 31.8941C5.18113 31.9041 5.26914 31.9901 5.44914 32.5561C5.61714 33.6281 6.48115 36.1441 6.16115 36.7861C6.36915 37.4981 6.58514 37.2401 6.97514 37.6341C7.24314 37.9021 7.35113 38.6001 7.65913 38.7901C8.01113 38.7661 8.36315 38.7441 8.71315 38.7181L8.90514 39.3101C9.35514 39.2741 9.80516 39.2441 10.2572 39.2101C10.5112 39.2661 11.2771 39.6641 11.5011 39.7241L13.0031 39.6201C14.1471 39.9241 15.1472 39.4461 16.1152 38.7941C16.6552 38.4301 17.2431 38.4901 17.7231 38.0801C18.5395 37.3346 19.2406 36.4718 19.8031 35.5201C20.8891 33.5481 20.5212 28.8261 19.5372 27.6581C19.1552 27.2381 18.6991 27.2301 17.8531 27.3281Z" fill="#FF5E11"></path><path d="M73.143 14.454C77.885 14.454 81.097 17.45 81.097 22.816C81.097 29.556 76.691 31.55 72.073 31.55H65.893C65.913 31.176 65.893 30.18 65.893 28.928V17.072C65.893 15.824 65.913 15.028 65.893 14.452H73.143V14.454ZM71.757 28.302C74.379 28.302 76.507 27.436 76.507 22.814C76.507 18.88 74.379 17.572 71.757 17.572H70.385V28.302H71.757ZM87.815 28.928C87.815 30.18 87.873 31.55 87.873 31.55H83.291C83.291 31.55 83.323 30.18 83.323 28.928V17.072C83.323 15.824 83.291 14.452 83.291 14.452H94.127V17.76C94.127 17.76 91.705 17.698 90.885 17.698H87.815V21.142L90.885 21.176C91.459 21.176 93.435 21.142 93.435 21.142V24.29C93.435 24.29 91.681 24.244 90.885 24.244L87.815 24.264V28.928ZM56.745 28.094C54.587 28.094 52.929 26.642 52.929 24.376V24.184C52.929 24.184 56.935 24.084 58.293 24.084C60.605 24.084 61.555 24.062 63.377 24.04V22.748C63.377 16.922 60.905 14.088 55.819 14.088C53.473 14.088 48.019 14.968 48.019 23.128C48.019 28.57 50.767 31.822 55.569 31.822C59.341 31.822 61.655 30.862 63.333 29.636C63.145 29.352 61.739 26.83 61.555 26.554C60.545 27.322 58.885 28.094 56.745 28.094ZM52.927 20.914C52.993 19.924 53.349 17.626 55.845 17.626C58.405 17.626 58.547 19.786 58.547 20.924V21.154C58.547 21.154 56.839 21.2 55.817 21.2C54.795 21.2 52.913 21.154 52.913 21.154L52.927 20.914Z" fill="#07387A"></path></g><defs><clipPath id="clip0_975_4782"><rect width="94.054" height="40" fill="white" transform="translate(0.0771484)"></rect></clipPath></defs></svg>