<svg xmlns="http://www.w3.org/2000/svg" width="138" height="40" viewBox="0 0 138 40" fill="none"><path fill-rule="evenodd" clip-rule="evenodd" d="M92.7102 15.1947C92.7102 19.3387 90.1282 24.7832 88.262 28.3803C85.3308 34.0406 81.3654 37.4324 74.9176 37.8324C69.2185 38.1859 56.338 39.1753 58.5946 29.5717C59.5731 25.4142 61.7476 21.7512 63.0826 17.7365C67.5683 8.7863 78.857 7.08016 87.8252 9.31686C90.8609 10.4213 92.4766 11.8993 92.7102 15.1946L92.7102 15.1947ZM77.658 15.5919C73.0482 15.5919 72.4868 22.0266 71.6213 25.481C71.404 26.7866 69.9422 31.1603 72.2964 31.1603C77.8389 32.275 78.3543 26.1959 79.2864 22.1449C79.6292 20.6546 80.3088 18.1542 80.0013 16.6245C80.0013 15.4867 78.4147 15.6679 77.658 15.5919V15.5919ZM45.9255 15.87C45.3568 26.768 37.7024 25.9199 28.6095 25.8782C25.1539 25.864 21.6201 25.64 18.2041 25.64C16.9435 26.9185 20.593 30.7964 21.6197 31.4383C25.1243 33.6216 29.5216 32.6842 32.3429 29.8496C33.8585 29.8496 50.1272 27.7232 44.4958 33.3447C41.7702 35.7698 37.914 37.2022 34.4079 38.0311C23.2522 40.6693 -0.845251 34.2561 7.28234 18.5308C12.8383 9.38651 24.8723 4.38628 34.8051 1.81071C35.73 1.62571 36.6437 1.48331 37.5852 1.41351C44.6523 0.885847 45.9255 10.6392 45.9255 15.87L45.9255 15.87ZM35.5598 14.9962C35.5598 14.0105 35.6001 12.9682 35.2817 12.0175C34.191 7.62297 22.7462 17.0072 21.3814 18.372C21.2101 18.7171 21.3395 18.6101 21.5799 18.7295C25.3781 18.7295 29.1852 18.6897 32.9782 18.6897C35.4761 18.2774 35.5598 17.5171 35.5598 14.9961V14.9962ZM57.6018 20.596C56.7408 22.3303 56.9331 24.6054 55.1791 25.9178C52.7804 27.7125 46.7383 27.7174 48.0701 23.3761C49.3308 19.249 51.7145 17.4937 56.0529 18.5705C57.1112 18.9249 57.3611 19.6259 57.6019 20.596L57.6018 20.596ZM133.14 15.2344C133.14 16.3454 132.907 17.4909 132.664 18.5706C131.23 24.9074 128.919 30.9362 126.865 37.0382C124.981 38.922 121.065 37.8962 119.041 36.6808C118.029 35.6683 120.546 30.5024 120.948 29.2539C121.565 27.3365 124.934 20.266 122.099 18.8487C121.188 18.8487 120.462 18.968 119.558 19.2061C111.074 22.1761 105.053 30.8119 98.9455 36.9191C96.2984 38.252 94.3975 37.9109 91.7967 36.6014C91.5387 36.3434 91.6637 35.9334 91.7171 35.6084C93.6852 27.3887 96.7977 19.2391 100.177 11.5012C100.708 9.92134 106.17 10.5067 107.524 11.1835C107.524 12.9333 107.34 15.87 109.867 15.87C115.536 15.2452 129.426 2.9401 132.942 13.4871C133.041 14.0826 133.141 14.6224 133.141 15.2345L133.14 15.2344Z" fill="#F21C0A"></path></svg>