<svg width="250" height="30" viewBox="0 0 250 30" fill="none" xmlns="http://www.w3.org/2000/svg">
<mask id="path-1-inside-1_975_4454" fill="white">
<path fill-rule="evenodd" clip-rule="evenodd" d="M23.9616 4.06319C18.4081 -0.504456 10.1868 -0.193272 4.99674 4.99674C-0.524305 10.5178 -0.524305 19.4692 4.99674 24.9902C10.1334 30.1269 18.2393 30.4845 23.7894 26.0632H105.563C107.296 26.0632 108.472 23.836 107.817 21.7976L102.73 5.98663C102.354 4.82244 101.464 4.06319 100.477 4.06319H23.9616Z"/>
</mask>
<path d="M23.9616 4.06319L23.3264 4.83552L23.6032 5.06319H23.9616V4.06319ZM4.99674 4.99674L4.28964 4.28964L4.99674 4.99674ZM4.99674 24.9902L4.28964 25.6973L4.99674 24.9902ZM23.7894 26.0632V25.0632H23.4398L23.1663 25.281L23.7894 26.0632ZM107.817 21.7976L108.769 21.4917L108.769 21.4913L107.817 21.7976ZM102.73 5.98663L103.682 5.68039L103.682 5.67913L102.73 5.98663ZM24.5968 3.29086C18.6497 -1.60055 9.84718 -1.26791 4.28964 4.28964L5.70385 5.70385C10.5263 0.881362 18.1665 0.59164 23.3264 4.83552L24.5968 3.29086ZM4.28964 4.28964C-1.62194 10.2012 -1.62194 19.7858 4.28964 25.6973L5.70385 24.2831C0.573326 19.1526 0.573326 10.8344 5.70385 5.70385L4.28964 4.28964ZM4.28964 25.6973C9.79009 31.1978 18.469 31.5801 24.4125 26.8453L23.1663 25.281C18.0096 29.389 10.4767 29.0559 5.70385 24.2831L4.28964 25.6973ZM105.563 25.0632H23.7894V27.0632H105.563V25.0632ZM106.865 22.1034C107.108 22.8616 107.006 23.6497 106.701 24.2278C106.393 24.811 105.958 25.0632 105.563 25.0632V27.0632C106.901 27.0632 107.92 26.2018 108.469 25.1619C109.022 24.1167 109.18 22.772 108.769 21.4917L106.865 22.1034ZM101.778 6.29288L106.865 22.1038L108.769 21.4913L103.682 5.68039L101.778 6.29288ZM100.477 5.06319C100.91 5.06319 101.495 5.41508 101.779 6.29414L103.682 5.67913C103.214 4.22981 102.019 3.06319 100.477 3.06319V5.06319ZM23.9616 5.06319H100.477V3.06319H23.9616V5.06319Z" fill="url(#paint0_linear_975_4454)" mask="url(#path-1-inside-1_975_4454)"/>
<g filter="url(#filter0_d_975_4454)">
<path d="M39.9176 9.29962C39.919 9.29962 39.9202 9.30048 39.9206 9.30176L41.0522 12.7866C41.0928 12.9039 41.201 12.9851 41.3273 12.9851H44.9948C45.2745 12.9851 45.3918 13.3415 45.1662 13.5084L42.198 15.6647C42.0987 15.7368 42.0536 15.8677 42.0942 15.9895L43.2265 19.4765C43.3122 19.7426 43.0099 19.9637 42.7799 19.8013L39.8116 17.645C39.7124 17.5728 39.5725 17.5728 39.4733 17.645L36.5051 19.8013C36.2795 19.9637 35.9728 19.7426 36.0585 19.4765L37.1907 15.9895C37.2313 15.8722 37.1907 15.7414 37.087 15.6647L34.1187 13.5084C33.8932 13.346 34.0105 12.9851 34.2901 12.9851H37.9576C38.0839 12.9851 38.1922 12.9039 38.2328 12.7866L39.365 9.29962C39.4505 9.0342 39.8276 9.03347 39.9147 9.29744C39.9151 9.29871 39.9163 9.29962 39.9176 9.29962V9.29962Z" fill="#1E2241"/>
</g>
<g filter="url(#filter1_d_975_4454)">
<path d="M53.2028 9.29962C53.2041 9.29962 53.2053 9.30048 53.2058 9.30176L54.3373 12.7866C54.3779 12.9039 54.4862 12.9851 54.6125 12.9851H58.28C58.5596 12.9851 58.6769 13.3415 58.4514 13.5084L55.4831 15.6647C55.3839 15.7368 55.3388 15.8677 55.3794 15.9895L56.5116 19.4765C56.5973 19.7426 56.2951 19.9637 56.065 19.8013L53.0968 17.645C52.9976 17.5728 52.8577 17.5728 52.7585 17.645L49.7902 19.8013C49.5647 19.9637 49.2579 19.7426 49.3436 19.4765L50.4759 15.9895C50.5165 15.8722 50.4759 15.7414 50.3721 15.6647L47.4039 13.5084C47.1783 13.346 47.2956 12.9851 47.5753 12.9851H51.2428C51.3691 12.9851 51.4773 12.9039 51.5179 12.7866L52.6502 9.29962C52.7357 9.0342 53.1128 9.03347 53.1998 9.29743C53.2003 9.29871 53.2015 9.29962 53.2028 9.29962V9.29962Z" fill="#1E2241"/>
</g>
<g filter="url(#filter2_d_975_4454)">
<path d="M66.4875 9.29962C66.4888 9.29962 66.49 9.30048 66.4904 9.30176L67.622 12.7866C67.6626 12.9039 67.7708 12.9851 67.8972 12.9851H71.5646C71.8443 12.9851 71.9616 13.3415 71.736 13.5084L68.7678 15.6647C68.6685 15.7368 68.6234 15.8677 68.664 15.9895L69.7963 19.4765C69.882 19.7426 69.5798 19.9637 69.3497 19.8013L66.3815 17.645C66.2822 17.5728 66.1424 17.5728 66.0431 17.645L63.0749 19.8013C62.8493 19.9637 62.5426 19.7426 62.6283 19.4765L63.7606 15.9895C63.8012 15.8722 63.7606 15.7414 63.6568 15.6647L60.6886 13.5084C60.463 13.346 60.5803 12.9851 60.86 12.9851H64.5274C64.6537 12.9851 64.762 12.9039 64.8026 12.7866L65.9349 9.29962C66.0203 9.0342 66.3974 9.03347 66.4845 9.29744C66.4849 9.29872 66.4861 9.29962 66.4875 9.29962V9.29962Z" fill="#1E2241"/>
</g>
<g filter="url(#filter3_d_975_4454)">
<path d="M79.7726 9.29962C79.774 9.29962 79.7752 9.30048 79.7756 9.30176L80.9072 12.7866C80.9478 12.9039 81.056 12.9851 81.1823 12.9851H84.8498C85.1295 12.9851 85.2468 13.3415 85.0212 13.5084L82.0529 15.6647C81.9537 15.7368 81.9086 15.8677 81.9492 15.9895L83.0815 19.4765C83.1672 19.7426 82.8649 19.9637 82.6349 19.8013L79.6666 17.645C79.5674 17.5728 79.4275 17.5728 79.3283 17.645L76.36 19.8013C76.1345 19.9637 75.8277 19.7426 75.9134 19.4765L77.0457 15.9895C77.0863 15.8722 77.0457 15.7414 76.942 15.6647L73.9737 13.5084C73.7482 13.346 73.8654 12.9851 74.1451 12.9851H77.8126C77.9389 12.9851 78.0472 12.9039 78.0878 12.7866L79.22 9.29962C79.3055 9.0342 79.6826 9.03347 79.7697 9.29743C79.7701 9.29871 79.7713 9.29962 79.7726 9.29962V9.29962Z" fill="#1E2241"/>
</g>
<g filter="url(#filter4_d_975_4454)">
<path d="M93.0573 9.29962C93.0586 9.29962 93.0598 9.30048 93.0602 9.30176L94.1918 12.7866C94.2324 12.9039 94.3407 12.9851 94.467 12.9851H98.1344C98.4141 12.9851 98.5314 13.3415 98.3059 13.5084L95.3376 15.6647C95.2384 15.7368 95.1933 15.8677 95.2339 15.9895L96.3661 19.4765C96.4518 19.7426 96.1496 19.9637 95.9195 19.8013L92.9513 17.645C92.852 17.5728 92.7122 17.5728 92.613 17.645L89.6447 19.8013C89.4192 19.9637 89.1124 19.7426 89.1981 19.4765L90.3304 15.9895C90.371 15.8722 90.3304 15.7414 90.2266 15.6647L87.2584 13.5084C87.0328 13.346 87.1501 12.9851 87.4298 12.9851H91.0972C91.2236 12.9851 91.3318 12.9039 91.3724 12.7866L92.5047 9.29962C92.5902 9.0342 92.9673 9.03347 93.0543 9.29744C93.0547 9.29872 93.0559 9.29962 93.0573 9.29962V9.29962Z" fill="#1E2241"/>
</g>
<path d="M93 7.50721V3.10001" stroke="#1E2241" stroke-width="0.773193" stroke-linecap="round" stroke-linejoin="round"/>
<path d="M90.8454 8.09999L89 6.25464" stroke="#1E2241" stroke-width="0.773193" stroke-linecap="round" stroke-linejoin="round"/>
<path d="M95.1543 8.09999L96.9945 6.25464" stroke="#1E2241" stroke-width="0.773193" stroke-linecap="round" stroke-linejoin="round"/>
<path d="M24.6367 5.35028C29.9625 10.6761 29.9625 19.3109 24.6367 24.6367C19.3109 29.9624 10.6761 29.9624 5.3503 24.6367C0.0245102 19.3109 0.0245105 10.6761 5.3503 5.35028C10.6761 0.0244923 19.3109 0.024494 24.6367 5.35028Z" stroke="url(#paint1_linear_975_4454)"/>
<path d="M11.2862 22.0632V12.3132L16.2862 7.0632L17.6076 8.4507L16.6791 12.3132H22.0005V15.6132L19.3933 22.0632H11.2862ZM9.85763 12.3132V22.0632H7.00049V12.3132H9.85763Z" fill="#1E2241"/>
<path d="M145.091 10.6736C143.97 11.0597 143.441 11.9256 143.336 12.8078C143.244 13.583 143.481 14.3471 143.913 14.8069C144.005 14.5855 144.146 14.3614 144.315 14.1605C144.569 13.8596 144.902 13.5891 145.266 13.4495M145.091 10.6736L145.338 13.636L145.267 13.4492C145.266 13.4493 145.266 13.4494 145.266 13.4495M145.091 10.6736C146.256 10.2885 147.804 9.91916 148.954 9.67778C150.014 10.5908 151.073 11.2681 152.151 11.7773C149.786 12.047 147.454 12.592 145.266 13.4495M145.091 10.6736L145.265 13.4498C145.265 13.4497 145.266 13.4496 145.266 13.4495M142.345 2.18283L142.345 2.1831L142.355 2.18013C152.148 -0.707493 162.605 -0.430697 172.23 2.97016C172.123 3.55289 171.738 5.56949 170.825 8.50074C170.745 8.75679 170.614 8.99421 170.44 9.19901C170.266 9.4038 170.052 9.57182 169.812 9.69312C169.572 9.81443 169.31 9.88656 169.041 9.90524C168.772 9.92391 168.503 9.88881 168.248 9.80201C160.616 7.15649 152.33 7.04703 144.63 9.49002C143.331 9.88505 142.501 10.8291 142.271 11.7807C141.461 9.74274 140.783 7.56564 140.303 5.64423L140.303 5.64422L140.302 5.63907C140.201 5.27832 140.175 4.90111 140.224 4.52993C140.273 4.15875 140.396 3.80119 140.587 3.4786C140.778 3.15601 141.032 2.87499 141.334 2.65235C141.636 2.42971 141.98 2.27001 142.345 2.18283ZM150.694 21.1375L150.694 21.1376C149.429 21.5274 148.869 22.5361 148.79 23.3826C147.379 21.504 146.099 19.5307 144.959 17.4765C144.307 16.2759 144.955 15.0126 146 14.6192C149.55 13.2869 153.332 12.6775 157.122 12.8273C160.897 12.9764 164.604 13.8758 168.026 15.4724C167.113 17.3065 166.095 19.0868 164.977 20.8043C164.369 21.7101 163.287 21.8958 162.526 21.5906C159.518 20.3765 155.002 19.8174 150.694 21.1375ZM161.217 25.839L161.212 25.8867L161.21 25.8966L161.202 25.9702C161.197 25.9691 161.187 25.9654 161.177 25.9559C161.173 25.9516 161.169 25.9467 161.166 25.9414L161.195 25.883L161.199 25.8745L161.217 25.839ZM161.106 25.9274C160.002 27.174 159.386 27.8384 158.396 28.8259C157.739 29.455 156.862 29.8044 155.952 29.8C155.041 29.7955 154.168 29.4377 153.517 28.8025C153.293 28.5708 153.083 28.3561 152.883 28.1522C151.929 27.1776 151.214 26.4471 150.263 25.2652C149.959 24.8448 149.834 24.2205 149.968 23.6446C150.101 23.076 150.483 22.5631 151.192 22.342L151.193 22.3416C152.826 21.8217 154.356 21.657 155.937 21.6511C156.529 22.2986 157.092 22.8576 157.521 23.283C157.595 23.3567 157.665 23.4263 157.731 23.4918L157.732 23.4924C158.724 24.4729 159.862 25.2942 161.106 25.9274Z" fill="url(#paint2_linear_975_4454)" stroke="#1E2241" stroke-width="0.4"/>
<path d="M184.106 13.9542C184.718 13.9542 185.215 13.887 185.597 13.7526C186.321 13.495 186.684 13.0161 186.684 12.3161C186.684 11.9073 186.504 11.5909 186.144 11.3668C185.785 11.1484 185.221 10.9552 184.451 10.7872L183.137 10.4932C181.845 10.202 180.952 9.88556 180.458 9.54394C179.621 8.97271 179.202 8.07947 179.202 6.8642C179.202 5.75535 179.607 4.8341 180.415 4.10046C181.224 3.36682 182.412 3 183.979 3C185.288 3 186.403 3.34722 187.324 4.04165C188.251 4.73049 188.737 5.73294 188.782 7.04901H186.288C186.243 6.30417 185.917 5.77495 185.31 5.46133C184.906 5.25412 184.403 5.15051 183.802 5.15051C183.134 5.15051 182.6 5.28492 182.202 5.55373C181.803 5.82255 181.603 6.19777 181.603 6.67939C181.603 7.12182 181.8 7.45223 182.193 7.67065C182.446 7.81625 182.985 7.98706 183.811 8.18307L185.951 8.6955C186.889 8.91951 187.596 9.21913 188.074 9.59435C188.815 10.1768 189.186 11.0196 189.186 12.1229C189.186 13.2541 188.751 14.195 187.88 14.9454C187.015 15.6903 185.791 16.0627 184.207 16.0627C182.589 16.0627 181.317 15.6959 180.39 14.9622C179.463 14.223 179 13.2093 179 11.9213H181.477C181.556 12.4869 181.71 12.9097 181.94 13.1897C182.362 13.6994 183.083 13.9542 184.106 13.9542Z" fill="#1E2241"/>
<path d="M199.751 10.3336H193.719V13.5174H200.593V15.7435H191.183V3.36122H200.29V5.55373H193.719V8.18307H199.751V10.3336Z" fill="#1E2241"/>
<path d="M211.378 14.8194C210.451 15.6651 209.266 16.0879 207.822 16.0879C206.036 16.0879 204.632 15.5167 203.61 14.3742C202.587 13.2261 202.076 11.6525 202.076 9.65315C202.076 7.49144 202.658 5.82535 203.82 4.65489C204.831 3.63563 206.118 3.12601 207.679 3.12601C209.768 3.12601 211.296 3.80924 212.262 5.17571C212.796 5.94295 213.082 6.713 213.122 7.48584H210.527C210.358 6.89221 210.142 6.44418 209.878 6.14177C209.406 5.60414 208.707 5.33532 207.78 5.33532C206.836 5.33532 206.092 5.71614 205.547 6.47778C205.003 7.23382 204.73 8.30628 204.73 9.69515C204.73 11.084 205.017 12.1257 205.59 12.8201C206.168 13.509 206.901 13.8534 207.789 13.8534C208.698 13.8534 209.392 13.5566 209.87 12.9629C210.133 12.6437 210.353 12.1649 210.527 11.5264H213.096C212.872 12.8761 212.299 13.9738 211.378 14.8194Z" fill="#1E2241"/>
<path d="M222.431 10.972V3.36122H225.068V10.972C225.068 12.2881 224.863 13.3129 224.453 14.0466C223.689 15.3907 222.232 16.0627 220.081 16.0627C217.929 16.0627 216.469 15.3907 215.7 14.0466C215.29 13.3129 215.085 12.2881 215.085 10.972V3.36122H217.722V10.972C217.722 11.8233 217.823 12.4449 218.025 12.8369C218.34 13.5314 219.025 13.8786 220.081 13.8786C221.131 13.8786 221.813 13.5314 222.128 12.8369C222.33 12.4449 222.431 11.8233 222.431 10.972Z" fill="#1E2241"/>
<path d="M232.828 10.888H230.149V15.7435H227.613V3.36122H233.704C234.575 3.37802 235.243 3.48443 235.709 3.68044C236.181 3.87645 236.58 4.16486 236.906 4.54568C237.175 4.8593 237.389 5.20652 237.546 5.58734C237.703 5.96816 237.782 6.40218 237.782 6.8894C237.782 7.47744 237.633 8.05707 237.335 8.6283C237.038 9.19393 236.546 9.59435 235.861 9.82956C236.434 10.0592 236.838 10.3868 237.074 10.8124C237.316 11.2324 237.436 11.8765 237.436 12.7445V13.5762C237.436 14.1418 237.459 14.5254 237.504 14.727C237.571 15.0462 237.728 15.2814 237.976 15.4327V15.7435H235.119C235.041 15.4691 234.985 15.2478 234.951 15.0798C234.884 14.7326 234.847 14.377 234.841 14.013L234.825 12.8621C234.813 12.0725 234.667 11.546 234.386 11.2828C234.111 11.0196 233.592 10.888 232.828 10.888ZM234.403 8.6367C234.92 8.40148 235.178 7.93666 235.178 7.24222C235.178 6.49178 234.929 5.98776 234.429 5.73014C234.148 5.58454 233.727 5.51173 233.165 5.51173H230.149V8.83831H233.089C233.673 8.83831 234.111 8.7711 234.403 8.6367Z" fill="#1E2241"/>
<path d="M248.667 10.3336H242.635V13.5174H249.51V15.7435H240.099V3.36122H249.206V5.55373H242.635V8.18307H248.667V10.3336Z" fill="#1E2241"/>
<path d="M179.759 24.4699C179.778 24.8079 179.857 25.0823 179.998 25.2932C180.266 25.6879 180.737 25.8853 181.413 25.8853C181.716 25.8853 181.992 25.842 182.241 25.7555C182.722 25.5879 182.962 25.2878 182.962 24.8552C182.962 24.5307 182.861 24.2996 182.658 24.1617C182.453 24.0265 182.131 23.9089 181.693 23.8089L180.886 23.6264C180.359 23.5074 179.986 23.3763 179.767 23.233C179.388 22.9842 179.199 22.6125 179.199 22.1177C179.199 21.5824 179.384 21.143 179.755 20.7997C180.125 20.4563 180.649 20.2846 181.328 20.2846C181.953 20.2846 182.483 20.436 182.918 20.7388C183.356 21.039 183.575 21.5202 183.575 22.1826H182.816C182.776 21.8636 182.689 21.6189 182.557 21.4486C182.311 21.1376 181.893 20.9822 181.304 20.9822C180.828 20.9822 180.486 21.0822 180.278 21.2823C180.07 21.4824 179.965 21.7149 179.965 21.9798C179.965 22.2718 180.087 22.4854 180.33 22.6206C180.49 22.7071 180.851 22.8153 181.413 22.945L182.249 23.1356C182.652 23.2276 182.962 23.3533 183.181 23.5128C183.56 23.7913 183.749 24.1955 183.749 24.7254C183.749 25.3851 183.509 25.8569 183.027 26.1408C182.549 26.4247 181.992 26.5666 181.356 26.5666C180.616 26.5666 180.036 26.3774 179.617 25.9988C179.198 25.623 178.992 25.1134 179 24.4699H179.759Z" fill="#1E2241"/>
<path d="M185.298 24.4699C185.317 24.8079 185.397 25.0823 185.538 25.2932C185.805 25.6879 186.277 25.8853 186.953 25.8853C187.256 25.8853 187.532 25.842 187.78 25.7555C188.262 25.5879 188.502 25.2878 188.502 24.8552C188.502 24.5307 188.401 24.2996 188.198 24.1617C187.993 24.0265 187.671 23.9089 187.233 23.8089L186.426 23.6264C185.899 23.5074 185.526 23.3763 185.307 23.233C184.928 22.9842 184.739 22.6125 184.739 22.1177C184.739 21.5824 184.924 21.143 185.294 20.7997C185.665 20.4563 186.189 20.2846 186.868 20.2846C187.492 20.2846 188.022 20.436 188.458 20.7388C188.896 21.039 189.115 21.5202 189.115 22.1826H188.356C188.316 21.8636 188.229 21.6189 188.097 21.4486C187.851 21.1376 187.433 20.9822 186.844 20.9822C186.368 20.9822 186.026 21.0822 185.818 21.2823C185.609 21.4824 185.505 21.7149 185.505 21.9798C185.505 22.2718 185.627 22.4854 185.87 22.6206C186.03 22.7071 186.391 22.8153 186.953 22.945L187.789 23.1356C188.191 23.2276 188.502 23.3533 188.721 23.5128C189.1 23.7913 189.289 24.1955 189.289 24.7254C189.289 25.3851 189.048 25.8569 188.567 26.1408C188.089 26.4247 187.532 26.5666 186.896 26.5666C186.155 26.5666 185.576 26.3774 185.156 25.9988C184.737 25.623 184.532 25.1134 184.54 24.4699H185.298Z" fill="#1E2241"/>
<path d="M190.311 20.4347H191.118V25.6825H194.135V26.3922H190.311V20.4347Z" fill="#1E2241"/>
<path d="M197.015 20.4347H201.358V21.1647H197.802V22.9734H201.091V23.6629H197.802V25.6825H201.419V26.3922H197.015V20.4347Z" fill="#1E2241"/>
<path d="M202.478 20.4347H203.431L206.44 25.2607V20.4347H207.206V26.3922H206.302L203.248 21.5702V26.3922H202.478V20.4347Z" fill="#1E2241"/>
<path d="M210.99 20.2725C211.744 20.2725 212.33 20.4712 212.746 20.8686C213.162 21.2661 213.394 21.7176 213.44 22.2232H212.653C212.564 21.8392 212.385 21.5351 212.118 21.3107C211.853 21.0863 211.479 20.9741 210.998 20.9741C210.411 20.9741 209.937 21.1809 209.575 21.5946C209.215 22.0055 209.035 22.6368 209.035 23.4885C209.035 24.186 209.198 24.7524 209.522 25.1877C209.849 25.6203 210.336 25.8366 210.982 25.8366C211.577 25.8366 212.03 25.6082 212.341 25.1512C212.505 24.9106 212.628 24.5943 212.71 24.2022H213.496C213.426 24.8295 213.194 25.3554 212.799 25.7798C212.326 26.2908 211.688 26.5463 210.885 26.5463C210.192 26.5463 209.611 26.3368 209.141 25.9177C208.522 25.3635 208.212 24.5078 208.212 23.3506C208.212 22.4719 208.445 21.7514 208.91 21.189C209.412 20.578 210.106 20.2725 210.99 20.2725Z" fill="#1E2241"/>
<path d="M217.252 23.164C217.63 23.164 217.929 23.0883 218.148 22.9369C218.37 22.7855 218.481 22.5125 218.481 22.1177C218.481 21.6932 218.326 21.4039 218.018 21.2498C217.853 21.1687 217.633 21.1282 217.357 21.1282H215.386V23.164H217.252ZM214.579 20.4347H217.337C217.791 20.4347 218.166 20.5009 218.46 20.6334C219.02 20.8875 219.3 21.3566 219.3 22.0407C219.3 22.3975 219.225 22.6895 219.077 22.9167C218.931 23.1438 218.725 23.3263 218.46 23.4641C218.693 23.5588 218.867 23.6831 218.983 23.8373C219.102 23.9914 219.169 24.2415 219.182 24.5875L219.211 25.3865C219.219 25.6136 219.238 25.7825 219.267 25.8934C219.316 26.0827 219.403 26.2043 219.527 26.2584V26.3922H218.537C218.51 26.3409 218.489 26.2746 218.472 26.1935C218.456 26.1124 218.443 25.9556 218.432 25.7231L218.383 24.7295C218.364 24.3401 218.22 24.0792 217.949 23.9468C217.795 23.8738 217.553 23.8373 217.223 23.8373H215.386V26.3922H214.579V20.4347Z" fill="#1E2241"/>
<path d="M219.876 20.4347H220.817L222.528 23.2979L224.239 20.4347H225.184L222.934 23.9914V26.3922H222.126V23.9914L219.876 20.4347Z" fill="#1E2241"/>
<path d="M225.955 20.4347H228.636C229.166 20.4347 229.593 20.5847 229.917 20.8848C230.242 21.1822 230.404 21.6013 230.404 22.142C230.404 22.6071 230.259 23.0126 229.97 23.3587C229.681 23.7021 229.236 23.8738 228.636 23.8738H226.762V26.3922H225.955V20.4347ZM229.589 22.1461C229.589 21.7081 229.426 21.4107 229.102 21.2539C228.924 21.1701 228.679 21.1282 228.368 21.1282H226.762V23.1924H228.368C228.73 23.1924 229.024 23.1154 229.248 22.9613C229.475 22.8072 229.589 22.5354 229.589 22.1461Z" fill="#1E2241"/>
<path d="M235.753 20.4347V21.1444H233.746V26.3922H232.926V21.1444H230.919V20.4347H235.753Z" fill="#1E2241"/>
<path d="M236.678 20.4347H237.493V26.3922H236.678V20.4347Z" fill="#1E2241"/>
<path d="M241.378 20.2725C242.43 20.2725 243.208 20.6104 243.714 21.2863C244.109 21.8136 244.306 22.4881 244.306 23.31C244.306 24.1995 244.08 24.939 243.629 25.5284C243.099 26.2205 242.343 26.5666 241.362 26.5666C240.445 26.5666 239.725 26.2638 239.2 25.6582C238.732 25.0742 238.499 24.3361 238.499 23.4439C238.499 22.6382 238.699 21.9487 239.099 21.3756C239.612 20.6402 240.372 20.2725 241.378 20.2725ZM241.459 25.8447C242.17 25.8447 242.684 25.5906 243 25.0823C243.319 24.5713 243.479 23.9846 243.479 23.3222C243.479 22.622 243.295 22.0582 242.927 21.6311C242.562 21.2039 242.062 20.9903 241.427 20.9903C240.81 20.9903 240.307 21.2025 239.918 21.627C239.529 22.0488 239.334 22.672 239.334 23.4966C239.334 24.1563 239.5 24.7132 239.833 25.1675C240.168 25.619 240.71 25.8447 241.459 25.8447Z" fill="#1E2241"/>
<path d="M245.271 20.4347H246.224L249.234 25.2607V20.4347H250V26.3922H249.096L246.042 21.5702V26.3922H245.271V20.4347Z" fill="#1E2241"/>
<defs>
<filter id="filter0_d_975_4454" x="30" y="6.10001" width="19.2852" height="18.7566" filterUnits="userSpaceOnUse" color-interpolation-filters="sRGB">
<feFlood flood-opacity="0" result="BackgroundImageFix"/>
<feColorMatrix in="SourceAlpha" type="matrix" values="0 0 0 0 0 0 0 0 0 0 0 0 0 0 0 0 0 0 127 0" result="hardAlpha"/>
<feOffset dy="1"/>
<feGaussianBlur stdDeviation="2"/>
<feComposite in2="hardAlpha" operator="out"/>
<feColorMatrix type="matrix" values="0 0 0 0 0 0 0 0 0 0 0 0 0 0 0 0 0 0 0.26 0"/>
<feBlend mode="normal" in2="BackgroundImageFix" result="effect1_dropShadow_975_4454"/>
<feBlend mode="normal" in="SourceGraphic" in2="effect1_dropShadow_975_4454" result="shape"/>
</filter>
<filter id="filter1_d_975_4454" x="43.2852" y="6.10001" width="19.2852" height="18.7566" filterUnits="userSpaceOnUse" color-interpolation-filters="sRGB">
<feFlood flood-opacity="0" result="BackgroundImageFix"/>
<feColorMatrix in="SourceAlpha" type="matrix" values="0 0 0 0 0 0 0 0 0 0 0 0 0 0 0 0 0 0 127 0" result="hardAlpha"/>
<feOffset dy="1"/>
<feGaussianBlur stdDeviation="2"/>
<feComposite in2="hardAlpha" operator="out"/>
<feColorMatrix type="matrix" values="0 0 0 0 0 0 0 0 0 0 0 0 0 0 0 0 0 0 0.26 0"/>
<feBlend mode="normal" in2="BackgroundImageFix" result="effect1_dropShadow_975_4454"/>
<feBlend mode="normal" in="SourceGraphic" in2="effect1_dropShadow_975_4454" result="shape"/>
</filter>
<filter id="filter2_d_975_4454" x="56.5698" y="6.10001" width="19.2852" height="18.7566" filterUnits="userSpaceOnUse" color-interpolation-filters="sRGB">
<feFlood flood-opacity="0" result="BackgroundImageFix"/>
<feColorMatrix in="SourceAlpha" type="matrix" values="0 0 0 0 0 0 0 0 0 0 0 0 0 0 0 0 0 0 127 0" result="hardAlpha"/>
<feOffset dy="1"/>
<feGaussianBlur stdDeviation="2"/>
<feComposite in2="hardAlpha" operator="out"/>
<feColorMatrix type="matrix" values="0 0 0 0 0 0 0 0 0 0 0 0 0 0 0 0 0 0 0.26 0"/>
<feBlend mode="normal" in2="BackgroundImageFix" result="effect1_dropShadow_975_4454"/>
<feBlend mode="normal" in="SourceGraphic" in2="effect1_dropShadow_975_4454" result="shape"/>
</filter>
<filter id="filter3_d_975_4454" x="69.855" y="6.10001" width="19.2852" height="18.7566" filterUnits="userSpaceOnUse" color-interpolation-filters="sRGB">
<feFlood flood-opacity="0" result="BackgroundImageFix"/>
<feColorMatrix in="SourceAlpha" type="matrix" values="0 0 0 0 0 0 0 0 0 0 0 0 0 0 0 0 0 0 127 0" result="hardAlpha"/>
<feOffset dy="1"/>
<feGaussianBlur stdDeviation="2"/>
<feComposite in2="hardAlpha" operator="out"/>
<feColorMatrix type="matrix" values="0 0 0 0 0 0 0 0 0 0 0 0 0 0 0 0 0 0 0.26 0"/>
<feBlend mode="normal" in2="BackgroundImageFix" result="effect1_dropShadow_975_4454"/>
<feBlend mode="normal" in="SourceGraphic" in2="effect1_dropShadow_975_4454" result="shape"/>
</filter>
<filter id="filter4_d_975_4454" x="83.1396" y="6.10001" width="19.2852" height="18.7566" filterUnits="userSpaceOnUse" color-interpolation-filters="sRGB">
<feFlood flood-opacity="0" result="BackgroundImageFix"/>
<feColorMatrix in="SourceAlpha" type="matrix" values="0 0 0 0 0 0 0 0 0 0 0 0 0 0 0 0 0 0 127 0" result="hardAlpha"/>
<feOffset dy="1"/>
<feGaussianBlur stdDeviation="2"/>
<feComposite in2="hardAlpha" operator="out"/>
<feColorMatrix type="matrix" values="0 0 0 0 0 0 0 0 0 0 0 0 0 0 0 0 0 0 0.26 0"/>
<feBlend mode="normal" in2="BackgroundImageFix" result="effect1_dropShadow_975_4454"/>
<feBlend mode="normal" in="SourceGraphic" in2="effect1_dropShadow_975_4454" result="shape"/>
</filter>
<linearGradient id="paint0_linear_975_4454" x1="54.4282" y1="0.855957" x2="54.4282" y2="29.131" gradientUnits="userSpaceOnUse">
<stop stop-color="#58CF6B"/>
<stop offset="1" stop-color="#3BB36B"/>
</linearGradient>
<linearGradient id="paint1_linear_975_4454" x1="4.99674" y1="4.99673" x2="24.9902" y2="24.9902" gradientUnits="userSpaceOnUse">
<stop stop-color="#58CF6B"/>
<stop offset="1" stop-color="#3BB36B"/>
</linearGradient>
<linearGradient id="paint2_linear_975_4454" x1="156.219" y1="0" x2="156.219" y2="30" gradientUnits="userSpaceOnUse">
<stop stop-color="#58CF6B"/>
<stop offset="1" stop-color="#3BB36B"/>
</linearGradient>
</defs>
</svg>
