<svg xmlns="http://www.w3.org/2000/svg" width="250" height="31" viewBox="0 0 250 31" fill="none"><mask id="path-1-inside-1_980_4476" fill="white"><path fill-rule="evenodd" clip-rule="evenodd" d="M23.9616 4.39726C18.4081 -0.17038 10.1868 0.140804 4.99674 5.33082C-0.524305 10.8519 -0.524305 19.8033 4.99674 25.3243C10.1334 30.4609 18.2393 30.8186 23.7894 26.3973H105.563C107.296 26.3973 108.472 24.1701 107.817 22.1316L102.73 6.32071C102.354 5.15652 101.464 4.39726 100.477 4.39726H23.9616Z"></path></mask><path d="M23.9616 4.39726L23.3264 5.16959L23.6032 5.39726H23.9616V4.39726ZM4.99674 5.33082L4.28964 4.62371L4.99674 5.33082ZM4.99674 25.3243L4.28964 26.0314L4.99674 25.3243ZM23.7894 26.3973V25.3973H23.4398L23.1663 25.6151L23.7894 26.3973ZM107.817 22.1316L108.769 21.8258L108.769 21.8254L107.817 22.1316ZM102.73 6.32071L103.682 6.01447L103.682 6.0132L102.73 6.32071ZM24.5968 3.62494C18.6497 -1.26648 9.84718 -0.93383 4.28964 4.62371L5.70385 6.03793C10.5263 1.21544 18.1665 0.925716 23.3264 5.16959L24.5968 3.62494ZM4.28964 4.62371C-1.62194 10.5353 -1.62194 20.1198 4.28964 26.0314L5.70385 24.6172C0.573326 19.4867 0.573326 11.1685 5.70385 6.03793L4.28964 4.62371ZM4.28964 26.0314C9.79009 31.5319 18.469 31.9141 24.4125 27.1794L23.1663 25.6151C18.0096 29.723 10.4767 29.39 5.70385 24.6172L4.28964 26.0314ZM105.563 25.3973H23.7894V27.3973H105.563V25.3973ZM106.865 22.4375C107.108 23.1957 107.006 23.9838 106.701 24.5618C106.393 25.1451 105.958 25.3973 105.563 25.3973V27.3973C106.901 27.3973 107.92 26.5359 108.469 25.4959C109.022 24.4508 109.18 23.106 108.769 21.8258L106.865 22.4375ZM101.778 6.62695L106.865 22.4379L108.769 21.8254L103.682 6.01447L101.778 6.62695ZM100.477 5.39726C100.91 5.39726 101.495 5.74915 101.779 6.62822L103.682 6.0132C103.214 4.56388 102.019 3.39726 100.477 3.39726V5.39726ZM23.9616 5.39726H100.477V3.39726H23.9616V5.39726Z" fill="url(#paint0_linear_980_4476)" mask="url(#path-1-inside-1_980_4476)"></path><g filter="url(#filter0_d_980_4476)"><path d="M39.9176 9.63369C39.919 9.63369 39.9202 9.63456 39.9206 9.63584L41.0522 13.1207C41.0928 13.238 41.201 13.3192 41.3273 13.3192H44.9948C45.2745 13.3192 45.3918 13.6756 45.1662 13.8425L42.198 15.9987C42.0987 16.0709 42.0536 16.2017 42.0942 16.3235L43.2265 19.8106C43.3122 20.0767 43.0099 20.2977 42.7799 20.1353L39.8116 17.9791C39.7124 17.9069 39.5725 17.9069 39.4733 17.9791L36.5051 20.1353C36.2795 20.2977 35.9728 20.0767 36.0585 19.8106L37.1907 16.3235C37.2313 16.2063 37.1907 16.0754 37.087 15.9987L34.1187 13.8425C33.8932 13.6801 34.0105 13.3192 34.2901 13.3192H37.9576C38.0839 13.3192 38.1922 13.238 38.2328 13.1207L39.365 9.63369C39.4505 9.36827 39.8276 9.36755 39.9147 9.63151C39.9151 9.63279 39.9163 9.63369 39.9176 9.63369Z" fill="#F7F9FB"></path></g><g filter="url(#filter1_d_980_4476)"><path d="M53.2028 9.63369C53.2041 9.63369 53.2053 9.63456 53.2058 9.63584L54.3373 13.1207C54.3779 13.238 54.4862 13.3192 54.6125 13.3192H58.28C58.5596 13.3192 58.6769 13.6756 58.4514 13.8425L55.4831 15.9987C55.3839 16.0709 55.3388 16.2017 55.3794 16.3235L56.5116 19.8106C56.5973 20.0767 56.2951 20.2977 56.065 20.1353L53.0968 17.9791C52.9976 17.9069 52.8577 17.9069 52.7585 17.9791L49.7902 20.1353C49.5647 20.2977 49.2579 20.0767 49.3436 19.8106L50.4759 16.3235C50.5165 16.2063 50.4759 16.0754 50.3721 15.9987L47.4039 13.8425C47.1783 13.6801 47.2956 13.3192 47.5753 13.3192H51.2428C51.3691 13.3192 51.4773 13.238 51.5179 13.1207L52.6502 9.63369C52.7357 9.36827 53.1128 9.36755 53.1998 9.63151C53.2003 9.63279 53.2015 9.63369 53.2028 9.63369Z" fill="#F7F9FB"></path></g><g filter="url(#filter2_d_980_4476)"><path d="M66.4875 9.63369C66.4888 9.63369 66.49 9.63456 66.4904 9.63583L67.622 13.1207C67.6626 13.238 67.7708 13.3192 67.8972 13.3192H71.5646C71.8443 13.3192 71.9616 13.6756 71.736 13.8425L68.7678 15.9987C68.6685 16.0709 68.6234 16.2017 68.664 16.3235L69.7963 19.8106C69.882 20.0767 69.5798 20.2977 69.3497 20.1353L66.3815 17.9791C66.2822 17.9069 66.1424 17.9069 66.0431 17.9791L63.0749 20.1353C62.8493 20.2977 62.5426 20.0767 62.6283 19.8106L63.7606 16.3235C63.8012 16.2063 63.7606 16.0754 63.6568 15.9987L60.6886 13.8425C60.463 13.6801 60.5803 13.3192 60.86 13.3192H64.5274C64.6537 13.3192 64.762 13.238 64.8026 13.1207L65.9349 9.63369C66.0203 9.36827 66.3974 9.36755 66.4845 9.63152C66.4849 9.63279 66.4861 9.63369 66.4875 9.63369Z" fill="#F7F9FB"></path></g><g filter="url(#filter3_d_980_4476)"><path d="M79.7726 9.63369C79.774 9.63369 79.7752 9.63456 79.7756 9.63584L80.9072 13.1207C80.9478 13.238 81.056 13.3192 81.1823 13.3192H84.8498C85.1295 13.3192 85.2468 13.6756 85.0212 13.8425L82.0529 15.9987C81.9537 16.0709 81.9086 16.2017 81.9492 16.3235L83.0815 19.8106C83.1672 20.0767 82.8649 20.2977 82.6349 20.1353L79.6666 17.9791C79.5674 17.9069 79.4275 17.9069 79.3283 17.9791L76.36 20.1353C76.1345 20.2977 75.8277 20.0767 75.9134 19.8106L77.0457 16.3235C77.0863 16.2063 77.0457 16.0754 76.942 15.9987L73.9737 13.8425C73.7482 13.6801 73.8654 13.3192 74.1451 13.3192H77.8126C77.9389 13.3192 78.0472 13.238 78.0878 13.1207L79.22 9.63369C79.3055 9.36827 79.6826 9.36755 79.7697 9.63151C79.7701 9.63279 79.7713 9.63369 79.7726 9.63369Z" fill="#F7F9FB"></path></g><g filter="url(#filter4_d_980_4476)"><path d="M93.0573 9.63369C93.0586 9.63369 93.0598 9.63456 93.0602 9.63583L94.1918 13.1207C94.2324 13.238 94.3407 13.3192 94.467 13.3192H98.1344C98.4141 13.3192 98.5314 13.6756 98.3059 13.8425L95.3376 15.9987C95.2384 16.0709 95.1933 16.2017 95.2339 16.3235L96.3661 19.8105C96.4518 20.0767 96.1496 20.2977 95.9195 20.1353L92.9513 17.9791C92.852 17.9069 92.7122 17.9069 92.613 17.9791L89.6447 20.1353C89.4192 20.2977 89.1124 20.0767 89.1981 19.8105L90.3304 16.3235C90.371 16.2062 90.3304 16.0754 90.2266 15.9987L87.2584 13.8425C87.0328 13.6801 87.1501 13.3192 87.4298 13.3192H91.0972C91.2236 13.3192 91.3318 13.238 91.3724 13.1207L92.5047 9.63369C92.5902 9.36827 92.9673 9.36755 93.0543 9.63152C93.0547 9.63279 93.0559 9.63369 93.0573 9.63369Z" fill="#F7F9FB"></path></g><path d="M93 7.84128V3.43408" stroke="#F7F9FB" stroke-width="0.773193" stroke-linecap="round" stroke-linejoin="round"></path><path d="M90.8454 8.43407L89 6.58871" stroke="#F7F9FB" stroke-width="0.773193" stroke-linecap="round" stroke-linejoin="round"></path><path d="M95.1543 8.43407L96.9945 6.58871" stroke="#F7F9FB" stroke-width="0.773193" stroke-linecap="round" stroke-linejoin="round"></path><path d="M24.6367 5.68436C29.9625 11.0101 29.9625 19.645 24.6367 24.9707C19.3109 30.2965 10.6761 30.2965 5.3503 24.9707C0.0245102 19.6449 0.0245105 11.0101 5.3503 5.68436C10.6761 0.358568 19.3109 0.35857 24.6367 5.68436Z" stroke="url(#paint1_linear_980_4476)"></path><path d="M11.2862 22.3973V12.6473L16.2862 7.39728L17.6076 8.78478L16.6791 12.6473H22.0005V15.9473L19.3933 22.3973H11.2862ZM9.85763 12.6473V22.3973H7.00049V12.6473H9.85763Z" fill="#F7F9FB"></path><path d="M145.091 11.0077C143.97 11.3938 143.441 12.2596 143.336 13.1419C143.244 13.917 143.481 14.6812 143.913 15.141C144.005 14.9195 144.146 14.6954 144.315 14.4946C144.569 14.1937 144.902 13.9232 145.266 13.7836M145.091 11.0077L145.338 13.9701L145.267 13.7833C145.266 13.7834 145.266 13.7835 145.266 13.7836M145.091 11.0077C146.256 10.6226 147.804 10.2532 148.954 10.0119C150.014 10.9248 151.073 11.6021 152.151 12.1114C149.786 12.381 147.454 12.9261 145.266 13.7836M145.091 11.0077L145.265 13.7839C145.265 13.7838 145.266 13.7837 145.266 13.7836M142.345 2.51691L142.345 2.51718L142.355 2.5142C152.148 -0.373418 162.605 -0.0966208 172.23 3.30424C172.123 3.88699 171.738 5.90373 170.825 8.83516C170.745 9.09108 170.614 9.32838 170.44 9.53308C170.266 9.73788 170.052 9.9059 169.812 10.0272C169.572 10.1485 169.31 10.2206 169.041 10.2393C168.772 10.258 168.503 10.2229 168.248 10.1361C160.616 7.49057 152.33 7.38112 144.63 9.82409C143.331 10.2191 142.501 11.1631 142.271 12.1148C141.461 10.0768 140.783 7.89972 140.303 5.97831L140.303 5.97829L140.302 5.97314C140.201 5.6124 140.175 5.23518 140.224 4.864C140.273 4.49282 140.396 4.13526 140.587 3.81267C140.778 3.49008 141.032 3.20907 141.334 2.98643C141.636 2.76378 141.98 2.60409 142.345 2.51691ZM150.694 21.4716L150.694 21.4717C149.429 21.8614 148.869 22.8702 148.79 23.7167C147.379 21.8381 146.099 19.8648 144.959 17.8106C144.307 16.61 144.955 15.3468 146 14.9534C149.55 13.621 153.332 13.0116 157.122 13.1613C160.897 13.3105 164.604 14.2099 168.026 15.8065C167.113 17.6406 166.095 19.4208 164.977 21.1383C164.37 22.044 163.288 22.2298 162.527 21.9249C159.518 20.7106 155.002 20.1514 150.694 21.4716ZM161.217 26.1731L161.212 26.2208L161.21 26.2306L161.202 26.3043C161.197 26.3032 161.187 26.2994 161.177 26.29C161.173 26.2857 161.169 26.2808 161.166 26.2755L161.195 26.217L161.199 26.2086L161.217 26.1731ZM161.106 26.2615C160.002 27.5081 159.386 28.1725 158.396 29.16C157.739 29.789 156.862 30.1385 155.952 30.134C155.041 30.1296 154.168 29.7717 153.517 29.1366C153.293 28.9049 153.083 28.6902 152.883 28.4863C151.929 27.5117 151.214 26.7812 150.263 25.5993C149.959 25.1789 149.834 24.5546 149.968 23.9786C150.101 23.41 150.483 22.8972 151.192 22.676L151.193 22.6757C152.826 22.1558 154.356 21.991 155.937 21.9852C156.529 22.6326 157.092 23.1917 157.521 23.617C157.595 23.6907 157.665 23.7604 157.731 23.8258L157.732 23.8265C158.724 24.807 159.862 25.6283 161.106 26.2615Z" fill="url(#paint2_linear_980_4476)" stroke="white" stroke-width="0.4"></path><path d="M184.106 14.2883C184.718 14.2883 185.215 14.221 185.597 14.0866C186.321 13.829 186.684 13.3502 186.684 12.6502C186.684 12.2413 186.504 11.9249 186.144 11.7009C185.785 11.4825 185.221 11.2893 184.451 11.1213L183.137 10.8273C181.845 10.5361 180.952 10.2196 180.458 9.87802C179.621 9.30679 179.202 8.41354 179.202 7.19828C179.202 6.08942 179.607 5.16817 180.415 4.43453C181.224 3.7009 182.412 3.33408 183.979 3.33408C185.288 3.33408 186.403 3.68129 187.324 4.37573C188.251 5.06457 188.737 6.06702 188.782 7.38309H186.288C186.243 6.63825 185.917 6.10902 185.31 5.79541C184.906 5.58819 184.403 5.48459 183.802 5.48459C183.134 5.48459 182.6 5.619 182.202 5.88781C181.803 6.15662 181.603 6.53184 181.603 7.01347C181.603 7.45589 181.8 7.78631 182.193 8.00472C182.446 8.15033 182.985 8.32114 183.811 8.51715L185.951 9.02958C186.889 9.25359 187.596 9.5532 188.074 9.92842C188.815 10.5109 189.186 11.3537 189.186 12.457C189.186 13.5882 188.751 14.5291 187.88 15.2795C187.015 16.0243 185.791 16.3968 184.207 16.3968C182.589 16.3968 181.317 16.0299 180.39 15.2963C179.463 14.5571 179 13.5434 179 12.2553H181.477C181.556 12.821 181.71 13.2438 181.94 13.5238C182.362 14.0334 183.083 14.2883 184.106 14.2883Z" fill="white"></path><path d="M199.751 10.6677H193.719V13.8514H200.593V16.0775H191.183V3.6953H200.29V5.88781H193.719V8.51715H199.751V10.6677Z" fill="white"></path><path d="M211.378 15.1535C210.451 15.9991 209.266 16.422 207.822 16.422C206.036 16.422 204.632 15.8507 203.61 14.7083C202.587 13.5602 202.076 11.9865 202.076 9.98723C202.076 7.82551 202.658 6.15942 203.82 4.98896C204.831 3.96971 206.118 3.46008 207.679 3.46008C209.768 3.46008 211.296 4.14332 212.262 5.50979C212.796 6.27703 213.082 7.04707 213.122 7.81991H210.527C210.358 7.22628 210.142 6.77826 209.878 6.47584C209.406 5.93821 208.707 5.6694 207.78 5.6694C206.836 5.6694 206.092 6.05022 205.547 6.81186C205.003 7.5679 204.73 8.64035 204.73 10.0292C204.73 11.4181 205.017 12.4598 205.59 13.1542C206.168 13.843 206.901 14.1874 207.789 14.1874C208.698 14.1874 209.392 13.8906 209.87 13.297C210.133 12.9778 210.353 12.499 210.527 11.8605H213.096C212.872 13.2102 212.299 14.3079 211.378 15.1535Z" fill="white"></path><path d="M222.431 11.3061V3.6953H225.068V11.3061C225.068 12.6222 224.863 13.647 224.453 14.3807C223.689 15.7247 222.232 16.3968 220.081 16.3968C217.929 16.3968 216.469 15.7247 215.7 14.3807C215.29 13.647 215.085 12.6222 215.085 11.3061V3.6953H217.722V11.3061C217.722 12.1573 217.823 12.779 218.025 13.171C218.34 13.8654 219.025 14.2126 220.081 14.2126C221.131 14.2126 221.813 13.8654 222.128 13.171C222.33 12.779 222.431 12.1573 222.431 11.3061Z" fill="white"></path><path d="M232.828 11.2221H230.149V16.0775H227.613V3.6953H233.704C234.575 3.7121 235.243 3.8185 235.709 4.01451C236.181 4.21052 236.58 4.49894 236.906 4.87976C237.175 5.19337 237.389 5.54059 237.546 5.92141C237.703 6.30223 237.782 6.73625 237.782 7.22348C237.782 7.81151 237.633 8.39114 237.335 8.96237C237.038 9.528 236.546 9.92842 235.861 10.1636C236.434 10.3932 236.838 10.7209 237.074 11.1465C237.316 11.5665 237.436 12.2105 237.436 13.0786V13.9102C237.436 14.4759 237.459 14.8595 237.504 15.0611C237.571 15.3803 237.728 15.6155 237.976 15.7667V16.0775H235.119C235.041 15.8031 234.985 15.5819 234.951 15.4139C234.884 15.0667 234.847 14.7111 234.841 14.3471L234.825 13.1962C234.813 12.4066 234.667 11.8801 234.386 11.6169C234.111 11.3537 233.592 11.2221 232.828 11.2221ZM234.403 8.97077C234.92 8.73556 235.178 8.27074 235.178 7.5763C235.178 6.82586 234.929 6.32183 234.429 6.06422C234.148 5.91861 233.727 5.84581 233.165 5.84581H230.149V9.17238H233.089C233.673 9.17238 234.111 9.10518 234.403 8.97077Z" fill="white"></path><path d="M248.667 10.6677H242.635V13.8514H249.51V16.0775H240.099V3.6953H249.206V5.88781H242.635V8.51715H248.667V10.6677Z" fill="white"></path><path d="M179.759 24.804C179.778 25.1419 179.857 25.4164 179.998 25.6273C180.266 26.022 180.737 26.2194 181.413 26.2194C181.716 26.2194 181.992 26.1761 182.241 26.0896C182.722 25.922 182.962 25.6218 182.962 25.1893C182.962 24.8648 182.861 24.6337 182.658 24.4958C182.453 24.3606 182.131 24.243 181.693 24.1429L180.886 23.9604C180.359 23.8415 179.986 23.7104 179.767 23.5671C179.388 23.3183 179.199 22.9466 179.199 22.4518C179.199 21.9165 179.384 21.4771 179.755 21.1338C180.125 20.7904 180.649 20.6187 181.328 20.6187C181.953 20.6187 182.483 20.7701 182.918 21.0729C183.356 21.373 183.575 21.8543 183.575 22.5167H182.816C182.776 22.1976 182.689 21.953 182.557 21.7826C182.311 21.4717 181.893 21.3163 181.304 21.3163C180.828 21.3163 180.486 21.4163 180.278 21.6164C180.07 21.8164 179.965 22.0489 179.965 22.3139C179.965 22.6059 180.087 22.8195 180.33 22.9547C180.49 23.0412 180.851 23.1493 181.413 23.2791L182.249 23.4697C182.652 23.5616 182.962 23.6874 183.181 23.8469C183.56 24.1254 183.749 24.5296 183.749 25.0595C183.749 25.7192 183.509 26.191 183.027 26.4749C182.549 26.7587 181.992 26.9007 181.356 26.9007C180.616 26.9007 180.036 26.7114 179.617 26.3329C179.198 25.9571 178.992 25.4475 179 24.804H179.759Z" fill="white"></path><path d="M185.298 24.804C185.317 25.1419 185.397 25.4164 185.538 25.6273C185.805 26.022 186.277 26.2194 186.953 26.2194C187.256 26.2194 187.532 26.1761 187.78 26.0896C188.262 25.922 188.502 25.6218 188.502 25.1893C188.502 24.8648 188.401 24.6337 188.198 24.4958C187.993 24.3606 187.671 24.243 187.233 24.1429L186.426 23.9604C185.899 23.8415 185.526 23.7104 185.307 23.5671C184.928 23.3183 184.739 22.9466 184.739 22.4518C184.739 21.9165 184.924 21.4771 185.294 21.1338C185.665 20.7904 186.189 20.6187 186.868 20.6187C187.492 20.6187 188.022 20.7701 188.458 21.0729C188.896 21.373 189.115 21.8543 189.115 22.5167H188.356C188.316 22.1976 188.229 21.953 188.097 21.7826C187.851 21.4717 187.433 21.3163 186.844 21.3163C186.368 21.3163 186.026 21.4163 185.818 21.6164C185.609 21.8164 185.505 22.0489 185.505 22.3139C185.505 22.6059 185.627 22.8195 185.87 22.9547C186.03 23.0412 186.391 23.1493 186.953 23.2791L187.789 23.4697C188.191 23.5616 188.502 23.6874 188.721 23.8469C189.1 24.1254 189.289 24.5296 189.289 25.0595C189.289 25.7192 189.048 26.191 188.567 26.4749C188.089 26.7587 187.532 26.9007 186.896 26.9007C186.155 26.9007 185.576 26.7114 185.156 26.3329C184.737 25.9571 184.532 25.4475 184.54 24.804H185.298Z" fill="white"></path><path d="M190.311 20.7688H191.118V26.0166H194.135V26.7263H190.311V20.7688Z" fill="white"></path><path d="M197.015 20.7688H201.358V21.4987H197.802V23.3075H201.091V23.9969H197.802V26.0166H201.419V26.7263H197.015V20.7688Z" fill="white"></path><path d="M202.478 20.7688H203.431L206.44 25.5948V20.7688H207.206V26.7263H206.302L203.248 21.9043V26.7263H202.478V20.7688Z" fill="white"></path><path d="M210.99 20.6065C211.744 20.6065 212.33 20.8053 212.746 21.2027C213.162 21.6001 213.394 22.0516 213.44 22.5572H212.653C212.564 22.1733 212.385 21.8692 212.118 21.6447C211.853 21.4203 211.479 21.3081 210.998 21.3081C210.411 21.3081 209.937 21.515 209.575 21.9286C209.215 22.3396 209.035 22.9709 209.035 23.8226C209.035 24.5201 209.198 25.0865 209.522 25.5218C209.849 25.9544 210.336 26.1707 210.982 26.1707C211.577 26.1707 212.03 25.9422 212.341 25.4853C212.505 25.2447 212.628 24.9284 212.71 24.5363H213.496C213.426 25.1636 213.194 25.6894 212.799 26.1139C212.326 26.6249 211.688 26.8804 210.885 26.8804C210.192 26.8804 209.611 26.6709 209.141 26.2518C208.522 25.6976 208.212 24.8418 208.212 23.6847C208.212 22.806 208.445 22.0854 208.91 21.5231C209.412 20.9121 210.106 20.6065 210.99 20.6065Z" fill="white"></path><path d="M217.252 23.4981C217.63 23.4981 217.929 23.4224 218.148 23.271C218.37 23.1196 218.481 22.8465 218.481 22.4518C218.481 22.0273 218.326 21.738 218.018 21.5839C217.853 21.5028 217.633 21.4622 217.357 21.4622H215.386V23.4981H217.252ZM214.579 20.7688H217.337C217.791 20.7688 218.166 20.835 218.46 20.9675C219.02 21.2216 219.3 21.6907 219.3 22.3747C219.3 22.7316 219.225 23.0236 219.077 23.2507C218.931 23.4778 218.725 23.6603 218.46 23.7982C218.693 23.8928 218.867 24.0172 218.983 24.1713C219.102 24.3254 219.169 24.5755 219.182 24.9216L219.211 25.7205C219.219 25.9476 219.238 26.1166 219.267 26.2275C219.316 26.4167 219.403 26.5384 219.527 26.5925V26.7263H218.537C218.51 26.6749 218.489 26.6087 218.472 26.5276C218.456 26.4465 218.443 26.2897 218.432 26.0571L218.383 25.0635C218.364 24.6742 218.22 24.4133 217.949 24.2808C217.795 24.2078 217.553 24.1713 217.223 24.1713H215.386V26.7263H214.579V20.7688Z" fill="white"></path><path d="M219.876 20.7688H220.817L222.528 23.6319L224.239 20.7688H225.184L222.934 24.3254V26.7263H222.126V24.3254L219.876 20.7688Z" fill="white"></path><path d="M225.955 20.7688H228.636C229.166 20.7688 229.593 20.9188 229.917 21.2189C230.242 21.5163 230.404 21.9354 230.404 22.4761C230.404 22.9412 230.259 23.3467 229.97 23.6928C229.681 24.0361 229.236 24.2078 228.636 24.2078H226.762V26.7263H225.955V20.7688ZM229.589 22.4802C229.589 22.0422 229.426 21.7448 229.102 21.588C228.924 21.5042 228.679 21.4622 228.368 21.4622H226.762V23.5265H228.368C228.73 23.5265 229.024 23.4494 229.248 23.2953C229.475 23.1412 229.589 22.8695 229.589 22.4802Z" fill="white"></path><path d="M235.753 20.7688V21.4785H233.746V26.7263H232.926V21.4785H230.919V20.7688H235.753Z" fill="white"></path><path d="M236.678 20.7688H237.493V26.7263H236.678V20.7688Z" fill="white"></path><path d="M241.378 20.6065C242.43 20.6065 243.208 20.9445 243.714 21.6204C244.109 22.1476 244.306 22.8222 244.306 23.6441C244.306 24.5336 244.08 25.2731 243.629 25.8625C243.099 26.5546 242.343 26.9007 241.362 26.9007C240.445 26.9007 239.725 26.5979 239.2 25.9923C238.732 25.4083 238.499 24.6702 238.499 23.7779C238.499 22.9722 238.699 22.2828 239.099 21.7096C239.612 20.9742 240.372 20.6065 241.378 20.6065ZM241.459 26.1788C242.17 26.1788 242.684 25.9247 243 25.4164C243.319 24.9054 243.479 24.3187 243.479 23.6563C243.479 22.956 243.295 22.3923 242.927 21.9651C242.562 21.538 242.062 21.3244 241.427 21.3244C240.81 21.3244 240.307 21.5366 239.918 21.9611C239.529 22.3828 239.334 23.006 239.334 23.8307C239.334 24.4904 239.5 25.0473 239.833 25.5015C240.168 25.953 240.71 26.1788 241.459 26.1788Z" fill="white"></path><path d="M245.271 20.7688H246.224L249.234 25.5948V20.7688H250V26.7263H249.096L246.042 21.9043V26.7263H245.271V20.7688Z" fill="white"></path><defs><filter id="filter0_d_980_4476" x="30" y="6.43408" width="19.2852" height="18.7566" filterUnits="userSpaceOnUse" color-interpolation-filters="sRGB"><feGaussianBlur stdDeviation="2"></feGaussianBlur></filter><filter id="filter1_d_980_4476" x="43.2852" y="6.43408" width="19.2852" height="18.7566" filterUnits="userSpaceOnUse" color-interpolation-filters="sRGB"><feGaussianBlur stdDeviation="2"></feGaussianBlur></filter><filter id="filter2_d_980_4476" x="56.5698" y="6.43408" width="19.2852" height="18.7566" filterUnits="userSpaceOnUse" color-interpolation-filters="sRGB"><feGaussianBlur stdDeviation="2"></feGaussianBlur></filter><filter id="filter3_d_980_4476" x="69.855" y="6.43408" width="19.2852" height="18.7566" filterUnits="userSpaceOnUse" color-interpolation-filters="sRGB"><feGaussianBlur stdDeviation="2"></feGaussianBlur></filter><filter id="filter4_d_980_4476" x="83.1396" y="6.43408" width="19.2852" height="18.7566" filterUnits="userSpaceOnUse" color-interpolation-filters="sRGB"><feGaussianBlur stdDeviation="2"></feGaussianBlur></filter><linearGradient id="paint0_linear_980_4476" x1="54.4282" y1="1.19003" x2="54.4282" y2="29.4651" gradientUnits="userSpaceOnUse"><stop stop-color="#58CF6B"></stop><stop offset="1" stop-color="#3BB36B"></stop></linearGradient><linearGradient id="paint1_linear_980_4476" x1="4.99674" y1="5.3308" x2="24.9902" y2="25.3243" gradientUnits="userSpaceOnUse"><stop stop-color="#58CF6B"></stop><stop offset="1" stop-color="#3BB36B"></stop></linearGradient><linearGradient id="paint2_linear_980_4476" x1="156.219" y1="0.334076" x2="156.219" y2="30.3341" gradientUnits="userSpaceOnUse"><stop stop-color="#58CF6B"></stop><stop offset="1" stop-color="#3BB36B"></stop></linearGradient></defs></svg>