<svg xmlns="http://www.w3.org/2000/svg" width="127" height="40" viewBox="0 0 127 40" fill="none"><g clip-path="url(#clip0_975_4840)"><path d="M31.9348 28.1596C32.4447 25.7174 36.0136 22.2329 36.461 17.4431C37.0437 11.1586 33.9014 0 18.5646 0C3.22774 0 0.959473 11.527 0.959473 16.3379C0.959473 22.7698 5.63127 26.0963 5.41277 28.3807C5.43358 28.3912 5.45438 28.4122 5.4752 28.4227C5.58965 30.8966 3.01964 31.044 3.16531 32.5704C3.27977 33.76 6.60933 34.0547 8.90881 32.7914C8.54464 33.4968 8.0348 34.1389 7.4001 34.4968C6.21394 35.16 5.25669 35.4864 5.25669 36.2232C5.25669 36.9601 8.81517 38.8339 12.4673 37.0128C13.5494 36.4759 14.3298 35.8969 14.9228 35.3285C14.9436 35.4547 14.9541 35.5706 14.9749 35.6758C15.1517 36.7285 15.7553 39.6656 18.3876 39.6656C21.0201 39.6656 21.5508 37.097 21.9877 35.5706C22.019 35.4442 22.0606 35.3179 22.0918 35.1916C22.6849 35.8127 23.5173 36.4443 24.693 37.0338C28.3452 38.855 31.9036 36.9812 31.9036 36.2443C31.9036 35.5074 30.9464 35.1916 29.7603 34.5178C29.0839 34.1389 28.5532 33.4546 28.1891 32.6967C30.4886 34.1074 34.0262 33.8337 34.1407 32.602C34.2863 31.044 31.5915 30.9282 31.8412 28.2754C31.862 28.2122 31.8932 28.1912 31.9348 28.1596Z" fill="#FF48D8"></path><path d="M11.7495 24.5068C14.0538 24.5068 15.9218 22.6168 15.9218 20.2855C15.9218 17.9541 14.0538 16.0641 11.7495 16.0641C9.44517 16.0641 7.57715 17.9541 7.57715 20.2855C7.57715 22.6168 9.44517 24.5068 11.7495 24.5068Z" fill="white"></path><path d="M12.0304 23.9173C13.6509 23.9173 14.9645 22.5881 14.9645 20.9486C14.9645 19.3091 13.6509 17.98 12.0304 17.98C10.4099 17.98 9.09619 19.3091 9.09619 20.9486C9.09619 22.5881 10.4099 23.9173 12.0304 23.9173Z" fill="url(#paint0_linear_975_4840)"></path><path d="M10.3238 20.0427C10.6914 20.0427 10.9894 19.7412 10.9894 19.3692C10.9894 18.9973 10.6914 18.6958 10.3238 18.6958C9.9562 18.6958 9.6582 18.9973 9.6582 19.3692C9.6582 19.7412 9.9562 20.0427 10.3238 20.0427Z" fill="white"></path><path d="M24.8282 24.1805C26.9545 24.1805 28.6781 22.4366 28.6781 20.2854C28.6781 18.1344 26.9545 16.3905 24.8282 16.3905C22.7021 16.3905 20.9785 18.1344 20.9785 20.2854C20.9785 22.4366 22.7021 24.1805 24.8282 24.1805Z" fill="white"></path><path d="M24.8174 23.8954C26.4321 23.8954 27.7411 22.5711 27.7411 20.9373C27.7411 19.3036 26.4321 17.9792 24.8174 17.9792C23.2026 17.9792 21.8936 19.3036 21.8936 20.9373C21.8936 22.5711 23.2026 23.8954 24.8174 23.8954Z" fill="url(#paint1_linear_975_4840)"></path><path d="M23.3088 19.9163C23.6821 19.9163 23.9847 19.6102 23.9847 19.2324C23.9847 18.8547 23.6821 18.5485 23.3088 18.5485C22.9354 18.5485 22.6328 18.8547 22.6328 19.2324C22.6328 19.6102 22.9354 19.9163 23.3088 19.9163Z" fill="white"></path><path d="M28.9794 12.4955C29.0835 12.5375 29.1667 12.5797 29.2602 12.6217C29.3538 12.6638 29.437 12.7164 29.5306 12.769C29.6243 12.8216 29.7075 12.8742 29.801 12.9479C29.8946 13.0216 29.9778 13.0847 30.0819 13.2109C30.1859 13.3371 30.1546 13.5266 30.0299 13.6318C29.9467 13.7055 29.8322 13.716 29.7282 13.6739L29.6139 13.6213C29.593 13.6108 29.5202 13.5792 29.4579 13.5476C29.3851 13.5266 29.3123 13.495 29.2291 13.474C29.1459 13.453 29.0626 13.4319 28.9794 13.4108C28.8962 13.3898 28.8026 13.3793 28.7298 13.3688C28.4802 13.3371 28.3035 13.1057 28.3346 12.8532C28.3659 12.6007 28.5946 12.4218 28.8443 12.4533C28.8858 12.4533 28.9275 12.4744 28.9586 12.4849L28.9794 12.4955Z" fill="#100030"></path><path d="M8.25271 13.8319C8.17991 13.8319 8.08631 13.8424 8.00311 13.853C7.91991 13.8635 7.83671 13.874 7.75351 13.895C7.67031 13.9161 7.58711 13.9266 7.51431 13.9477C7.44151 13.9687 7.36871 14.0002 7.32711 14.0214L7.25432 14.0529C7.13991 14.1055 7.00472 14.0529 6.95271 13.9372C6.92151 13.8635 6.93191 13.7688 6.97352 13.7057C7.05671 13.5794 7.13991 13.5058 7.22312 13.4426C7.30631 13.369 7.38951 13.3058 7.48311 13.2533C7.56631 13.2006 7.65991 13.1375 7.74311 13.0954C7.83671 13.0428 7.90951 13.0007 8.01351 12.9481L8.03431 12.9376C8.26311 12.8219 8.54391 12.9271 8.65831 13.1585C8.7727 13.39 8.66871 13.6741 8.43991 13.7899C8.37751 13.8214 8.31511 13.8319 8.25271 13.8319Z" fill="#100030"></path><path d="M16.806 26.8962C16.8683 26.9699 16.9308 27.0121 17.014 27.0541C17.0972 27.0963 17.1909 27.1383 17.3054 27.1805C17.5239 27.2542 17.784 27.2857 18.0441 27.2752C18.3043 27.2647 18.5747 27.212 18.814 27.1173C18.9389 27.0753 19.043 27.0226 19.1366 26.9699L19.2407 26.9068C19.2719 26.8857 19.2927 26.8752 19.3239 26.8647L19.7922 26.6225C19.9482 26.5488 20.1355 26.612 20.2083 26.7594C20.2187 26.791 20.2291 26.8226 20.2395 26.8541C20.2604 27.0226 20.25 27.2015 20.1979 27.3489C20.1875 27.391 20.1771 27.4226 20.1563 27.4647L20.1043 27.5699C20.073 27.6436 20.0315 27.6963 19.9898 27.7595C19.8337 27.991 19.6361 28.149 19.4383 28.2858C19.0326 28.549 18.5747 28.6963 18.0961 28.7174C17.6175 28.7385 17.1285 28.6332 16.6915 28.3489C16.4729 28.2121 16.2753 28.0227 16.1192 27.77C15.9735 27.5279 15.8903 27.2015 15.9424 26.8962C15.9839 26.6752 16.2025 26.5383 16.421 26.5805C16.5146 26.6015 16.5874 26.6437 16.6394 26.7067L16.806 26.8962Z" fill="#100030"></path><path d="M57.251 8.65267C57.251 12.1102 54.7394 14.9137 50.857 14.9137C47.3284 14.9137 44.5957 12.1908 44.5957 8.7333C44.5957 5.09666 47.3903 2.55286 50.9277 2.55286C54.4652 2.55286 57.251 5.19519 57.251 8.65267ZM50.9277 12.5849C53.0237 12.5849 54.5183 10.8651 54.5183 8.7423C54.5183 6.61943 53.1741 4.89069 50.9277 4.89069C48.7168 4.89069 47.3372 6.61043 47.3372 8.7333C47.3372 10.8562 48.8142 12.5849 50.9277 12.5849Z" fill="#10012F"></path><path d="M63.6895 2.74986C58.9847 3.09027 57.9146 7.51506 58.0296 8.80496C57.9677 10.7487 59.3032 14.9138 64.5032 14.9138C65.1842 14.9048 65.812 14.8421 66.3869 14.7346V12.3789C65.8916 12.4684 65.2902 12.5221 64.5651 12.5401C62.1419 12.6028 60.7623 10.5874 60.7712 8.81387C60.7712 6.75372 62.4338 5.06079 64.5651 5.0877H68.7658L68.7747 10.9188C68.7747 10.9188 68.474 15.8543 74.6292 14.8242V12.4774C71.2156 13.2209 71.3925 11.0443 71.3925 11.0443V5.07879H74.6292V2.74986H71.3925V0H68.7658V2.74986H63.6895Z" fill="#10012F"></path><path d="M87.9387 8.65267C87.9387 12.1102 85.4271 14.9137 81.5446 14.9137C78.0159 14.9137 75.2832 12.1908 75.2832 8.7333C75.2832 5.09666 78.0778 2.55286 81.6153 2.55286C85.1525 2.55286 87.9387 5.19519 87.9387 8.65267ZM81.6153 12.5849C83.7113 12.5849 85.2054 10.8651 85.2054 8.7423C85.2054 6.61943 83.8616 4.89069 81.6153 4.89069C79.4044 4.89069 78.0248 6.61043 78.0248 8.7333C78.0248 10.8562 79.5017 12.5849 81.6153 12.5849Z" fill="#10012F"></path><path d="M91.3262 18.4519C91.1045 20.1627 88.7173 19.2491 88.7173 19.2491V8.73334C88.8676 5.38339 90.8484 2.65143 94.9251 2.5529C98.5249 2.47227 101.116 5.18632 101.134 8.64381C101.16 12.3073 98.6223 15.0302 94.8722 14.869C93.5371 14.7973 92.228 14.2599 91.3262 13.0865C91.3346 13.0955 91.3262 17.2337 91.3262 18.4519ZM94.8629 12.5939C96.9412 12.5939 98.4182 10.8741 98.4182 8.75125C98.4182 6.62838 97.0924 4.90864 94.8629 4.90864C92.6789 4.90864 91.3086 6.62838 91.3086 8.75125C91.3086 10.8741 92.7763 12.5939 94.8629 12.5939Z" fill="#10012F"></path><path d="M101.903 9.87976C101.903 9.87976 101.903 5.15038 101.903 3.92329C102.124 2.21245 104.512 3.12604 104.512 3.12604V9.51255C104.512 11.5011 105.856 12.4774 107.519 12.4774C109.181 12.4774 110.526 11.5369 110.526 9.51255C110.526 9.51255 110.534 5.15038 110.534 3.92329C110.756 2.21245 113.135 3.13504 113.135 3.13504V7.23743C113.47 12.2982 118.255 12.6744 118.255 12.6744C123.013 13.3372 122.597 11.3666 122.597 11.3666C122.473 10.3724 121.739 10.1485 120.474 9.97829C119.688 9.87976 119.007 9.80814 119.007 9.80814C113.904 9.48564 114.408 6.07296 114.408 6.07296C114.47 3.18876 117.521 2.74982 117.521 2.74982C120.209 2.26617 122.111 2.74092 122.111 2.74092C126.293 3.62769 124.233 5.63403 123.889 5.75047C123.889 5.75047 122.774 4.72044 120.165 4.56819C116.954 4.36213 117.008 5.89381 117.008 5.89381C116.901 7.01346 118.316 7.21952 118.316 7.21952L121.757 7.70318C125.825 8.27646 125.329 11.1965 125.329 11.1965C125.064 14.851 120.767 14.8779 120.767 14.8779C114.885 15.2272 112.674 12.1281 112.674 12.1281C111.851 13.7851 110.207 14.8958 107.466 14.8958C104.202 14.8958 101.903 13.0417 101.903 9.71851" fill="#10012F"></path><path d="M67.9559 31.3473C66.9391 32.5386 65.5419 33.1746 63.8969 33.1746C62.3846 33.1746 61.1024 32.6282 60.1913 31.5981C59.3331 30.6307 58.8646 29.2693 58.8646 27.7734V27.5494H68.9552V27.4599C68.9023 25.9013 68.3633 24.4772 67.4169 23.4382C66.426 22.3453 65.091 21.772 63.5694 21.772C60.4483 21.772 58.1836 24.298 58.1836 27.7734C58.1836 31.3383 60.5364 33.8195 63.8969 33.8195C65.745 33.8195 67.3102 33.1298 68.4421 31.831L68.4959 31.7683L68.0088 31.2756L67.9559 31.3473ZM58.9267 26.9045C59.2979 24.1726 61.1024 22.417 63.561 22.417C64.8256 22.417 65.9399 22.8828 66.7888 23.7696C67.5672 24.5757 68.0626 25.6954 68.1777 26.9135H58.9267V26.9045Z" fill="#10012F"></path><path d="M79.6475 23.268C78.7541 22.3185 77.4626 21.7722 76.0923 21.7722C74.7303 21.7722 73.4304 22.3185 72.537 23.268C71.6881 24.1906 71.29 25.3819 71.29 27.021V33.5598H71.9794V27.021C71.9794 25.57 72.3245 24.513 73.076 23.7069C73.8099 22.9097 74.9687 22.4171 76.0923 22.4171C77.2149 22.4171 78.3737 22.9097 79.1076 23.7069C79.8591 24.522 80.2042 25.579 80.2042 27.021V33.5598H80.8945V27.021C80.8945 25.3819 80.4965 24.1906 79.6475 23.268Z" fill="#10012F"></path><path d="M92.9741 31.3474C91.9572 32.5386 90.56 33.1746 88.915 33.1746C87.4027 33.1746 86.1205 32.6283 85.2094 31.5981C84.3522 30.6308 83.8836 29.2693 83.8836 27.7734V27.5495H93.9733V27.4599C93.9204 25.9014 93.3814 24.4772 92.435 23.4382C91.4442 22.3453 90.1091 21.7722 88.5884 21.7722C85.4664 21.7722 83.2026 24.2981 83.2026 27.7734C83.2026 31.3385 85.5546 33.8195 88.915 33.8195C90.7632 33.8195 92.3293 33.1298 93.4612 31.831L93.514 31.7684L93.0279 31.2757L92.9741 31.3474ZM83.9449 26.9046C84.3169 24.1726 86.1205 22.4171 88.5792 22.4171C89.8437 22.4171 90.958 22.8828 91.8069 23.7696C92.5853 24.5757 93.0808 25.6954 93.1958 26.9136H83.9449V26.9046Z" fill="#10012F"></path><path d="M101.137 21.7722C99.7757 21.7722 98.4749 22.3185 97.5824 23.268C96.7325 24.1906 96.3354 25.3819 96.3354 27.021V33.5598H97.0248V27.021C97.0248 25.57 97.3699 24.513 98.1214 23.7069C98.8553 22.9097 100.014 22.4171 101.137 22.4171H101.226V21.7722H101.137Z" fill="#10012F"></path><path d="M107.726 21.7722C106.099 21.7722 104.613 22.3992 103.525 23.5367C102.464 24.6564 101.872 26.1701 101.872 27.7913C101.872 29.4127 102.455 30.9263 103.525 32.046C104.613 33.1836 106.099 33.8106 107.726 33.8106C109.857 33.8106 111.573 32.7447 112.493 30.8816V33.3627C112.493 34.7511 112.448 36.3275 111.891 37.3128C111.149 38.6296 109.76 39.3551 107.974 39.3551C105.586 39.3551 103.941 38.0742 103.26 36.9725L103.207 36.8919L102.649 37.3128L102.694 37.3846C103.109 38.0026 104.719 40 107.964 40C110.007 40 111.564 39.2028 112.475 37.6891C113.12 36.5873 113.174 34.8676 113.174 33.3359V27.872V27.8362C113.174 27.8183 113.174 27.8093 113.174 27.7913C113.182 24.2532 110.944 21.7722 107.726 21.7722ZM112.493 27.8004C112.493 30.9712 110.529 33.1836 107.726 33.1836C104.834 33.1836 102.57 30.8189 102.57 27.8004C102.57 24.7817 104.834 22.426 107.726 22.426C110.529 22.4171 112.493 24.6295 112.493 27.8004Z" fill="#10012F"></path><path d="M124.281 22.0318L119.895 31.41L114.987 22.0318H114.252L119.524 32.2072L115.994 39.803H116.746L125.033 22.0318H124.281Z" fill="#10012F"></path></g><defs><linearGradient id="paint0_linear_975_4840" x1="14.8135" y1="20.9498" x2="9.01389" y2="20.9498" gradientUnits="userSpaceOnUse"><stop></stop><stop offset="0.4481" stop-color="#100030"></stop><stop offset="0.8399" stop-color="#180070"></stop><stop offset="1"></stop></linearGradient><linearGradient id="paint1_linear_975_4840" x1="21.9112" y1="20.9326" x2="27.5883" y2="20.9326" gradientUnits="userSpaceOnUse"><stop></stop><stop offset="0.4481" stop-color="#100030"></stop><stop offset="0.8399" stop-color="#180070"></stop><stop offset="1"></stop></linearGradient><clipPath id="clip0_975_4840"><rect width="125.091" height="40" fill="white" transform="translate(0.959473)"></rect></clipPath></defs></svg>