<svg xmlns="http://www.w3.org/2000/svg" width="109" height="40" viewBox="0 0 109 40" fill="none"><g clip-path="url(#clip0_975_4713)"><path d="M55.8501 30.8147C55.7096 28.752 54.5293 26.8505 52.1857 26.8505C50.1651 26.8505 48.6027 28.5516 48.422 30.8147H55.8501ZM52.4282 35.7202C54.0085 35.7202 55.0895 35.0205 55.9324 34.1167L56.6125 34.7206C55.57 35.841 54.3476 36.6428 52.3861 36.6428C49.7043 36.6428 47.3804 34.4996 47.3804 31.3158V31.2737C47.3804 28.3127 49.4636 25.9503 52.2286 25.9503C55.0895 25.9503 56.9114 28.2715 56.9114 31.2952V31.3327C56.9114 31.4758 56.9114 31.5359 56.8933 31.6951H48.422C48.6027 34.2365 50.4255 35.7201 52.4282 35.7201" fill="#24285D"></path><path d="M66.3666 36.401V30.333C66.3666 28.232 65.1845 26.8494 63.1219 26.8494C61.1201 26.8494 59.5783 28.3733 59.5783 30.4932V36.401H58.5967V26.1908H59.5783V28.0915C60.2593 26.8915 61.4029 25.951 63.2642 25.951C65.8467 25.951 67.3483 27.7112 67.3483 30.1523V36.401H66.3666Z" fill="#24285D"></path><path d="M77.4458 30.8147C77.3053 28.752 76.1241 26.8505 73.7814 26.8505C71.7608 26.8505 70.1993 28.5516 70.0186 30.8147H77.4458ZM74.0239 35.7202C75.6069 35.7202 76.6852 35.0205 77.5245 34.1167L78.2082 34.7206C77.1657 35.841 75.9442 36.6428 73.9827 36.6428C71.3 36.6428 68.9761 34.4996 68.9761 31.3158V31.2737C68.9761 28.3127 71.0602 25.9503 73.8234 25.9503C76.6852 25.9503 78.508 28.2715 78.508 31.2952V31.3327C78.508 31.4758 78.508 31.5359 78.4892 31.6951H70.0186C70.1993 34.2365 72.0204 35.7201 74.0239 35.7201" fill="#24285D"></path><path d="M85.5987 27.111C83.239 27.111 81.1746 28.8926 81.1746 32.217V36.4004H80.1938V26.1902H81.1746V29.094C81.9755 27.2721 83.6775 25.9504 85.6989 26.03V27.111H85.5987Z" fill="#24285D"></path><path d="M95.0628 30.773C95.0628 28.4133 92.9599 26.8894 90.8364 26.8894C88.6941 26.8894 86.8919 28.3739 86.8919 30.7542V30.7935C86.8919 33.0969 88.7326 34.6968 90.8364 34.6968C92.9599 34.6968 95.0628 33.138 95.0628 30.815V30.773ZM90.9778 39.6436C89.2749 39.6436 87.6937 39.1237 86.2933 38.0812L86.8731 37.2812C88.0946 38.2226 89.4941 38.7237 90.9966 38.7237C93.3384 38.7237 95.0001 37.3814 95.0001 34.7586V33.2786C94.1196 34.5385 92.7585 35.6392 90.7362 35.6392C88.2736 35.6392 85.8315 33.7555 85.8315 30.8348V30.7936C85.8315 27.8514 88.2736 25.9517 90.7362 25.9517C92.78 25.9517 94.159 27.0308 95.0001 28.2317V26.1906H95.9827V34.8178C95.9827 37.9229 93.8798 39.6437 90.9778 39.6437" fill="#24285D"></path><path d="M102.945 36.7615C102.044 38.9047 101.002 39.6644 99.541 39.6644C98.7607 39.6644 98.2005 39.5249 97.5213 39.225L97.8586 38.3633C98.4018 38.6228 98.8403 38.7454 99.6027 38.7454C100.663 38.7454 101.365 38.1217 102.123 36.3401L97.2197 26.1907H98.3589L102.606 35.319L106.289 26.1907H107.371L102.945 36.7615Z" fill="#24285D"></path><path d="M55.2154 6.97868C51.9645 6.97868 49.6943 9.57553 49.6943 12.78C49.6943 15.9844 52.0146 18.6287 55.262 18.6287C58.5165 18.6287 60.785 16.0309 60.785 12.8265C60.785 9.62116 58.4691 6.97868 55.2154 6.97868ZM55.2154 21.2702C50.1873 21.2702 46.6777 17.4591 46.6777 12.8265C46.6777 8.19569 50.2347 4.33533 55.262 4.33533C60.2919 4.33533 63.8024 8.14645 63.8024 12.78C63.8024 17.4108 60.2454 21.2702 55.2154 21.2702Z" fill="#ED1474"></path><path d="M72.2275 7.23492H68.8826V13.1293H72.2275C74.4038 13.1293 75.7604 11.9356 75.7604 10.1826C75.7604 8.24165 74.3805 7.23492 72.2275 7.23492ZM72.1336 15.727H68.8826V20.9914H66.0039V4.61572H72.462C76.2749 4.61572 78.683 6.76695 78.683 10.1128C78.683 13.8085 75.738 15.727 72.1336 15.727Z" fill="#ED1474"></path><path d="M93.966 13.9022C93.966 18.7889 91.2072 21.2488 86.9271 21.2488C82.6668 21.2488 79.9536 18.7889 79.9536 14.0427V4.61639H82.8323V13.9263C82.8323 16.967 84.3992 18.6046 86.9728 18.6046C89.5222 18.6046 91.0891 17.0592 91.0891 14.0427V4.61639H93.966V13.9022Z" fill="#ED1474"></path><path d="M102.87 11.4923C106.332 12.3335 108.131 13.5728 108.131 16.3128C108.131 19.3992 105.723 21.2238 102.285 21.2238C99.7808 21.2238 97.4202 20.3584 95.4551 18.6046L97.1848 16.5464C98.7535 17.9039 100.318 18.6743 102.355 18.6743C104.133 18.6743 105.256 17.8555 105.256 16.5929C105.256 15.4001 104.6 14.7666 101.561 14.0668C98.0743 13.2248 96.1083 12.1948 96.1083 9.15409C96.1083 6.29954 98.4465 4.38367 101.699 4.38367C104.085 4.38367 105.98 5.10584 107.64 6.43913L106.098 8.61539C104.625 7.51653 103.15 6.93219 101.652 6.93219C99.9678 6.93219 98.987 7.79571 98.987 8.89635C98.987 10.1822 99.7342 10.7442 102.87 11.4923Z" fill="#ED1474"></path><path d="M7.09144 23.0165C4.84807 24.2433 2.7944 23.9015 1.84766 23.0934C3.44585 26.6772 8.65563 30.1492 12.2905 30.1492C16.2019 30.1492 18.9821 28.5761 21.3427 26.8195C19.7445 26.7523 15.4511 24.6692 10.9715 19.5784C9.49858 21.412 8.7487 22.1064 7.09144 23.0164" fill="#ED1474"></path><path d="M28.2435 21.0084C31.6018 24.7319 34.4188 27.4254 37.566 23.9748C36.5065 29.9685 29.1616 38.2628 20.0216 38.2628C10.8808 38.2628 4.78244 31.7304 2.53369 26.084C4.79586 28.8508 8.54884 31.1792 12.6955 31.1792C17.508 31.1792 22.1889 28.8508 28.2435 21.0084Z" fill="#24285D"></path><path d="M26.5117 8.35547C22.646 8.35547 19.3225 10.929 18.042 11.7559C21.9999 12.7044 23.8361 14.7124 27.1032 18.1934C30.3721 21.6743 32.4919 24.3982 34.4579 24.3982C36.3353 24.3982 38.2431 22.8251 38.2431 18.9799C38.2431 11.7451 30.3327 8.35547 26.5117 8.35547Z" fill="#ED1474"></path><path d="M19.3253 0.33551C11.9089 0.33551 6.36888 6.14666 4.94698 7.96228C3.52417 9.77793 1.16357 14.0767 1.16357 18.5259C1.16357 22.9768 3.79442 22.7335 4.22126 22.7335C4.77696 22.7335 7.33442 22.5143 10.0243 19.0664C12.5666 15.8083 18.2658 7.43969 26.6962 7.43969C32.127 7.43969 36.1976 11.6821 36.8571 12.5627C34.399 6.54124 28.3149 0.33551 19.3253 0.33551Z" fill="#24285D"></path></g><defs><clipPath id="clip0_975_4713"><rect width="107.639" height="40" fill="white" transform="translate(0.828125)"></rect></clipPath></defs></svg>