<svg xmlns="http://www.w3.org/2000/svg" width="100" height="40" viewBox="0 0 100 40" fill="none"><path d="M7.34429 11.7981C9.43953 11.7981 11.4078 12.429 12.9316 13.5016L12.3602 12.0504H18.3919L20.4237 19.2429L20.8681 20.8833C20.8681 20.8833 21.1221 20.063 21.3126 19.2429L23.4078 12.0504H29.4395L28.9316 13.5647C30.4554 12.429 32.4236 11.8612 34.5189 11.8612C34.8363 11.8612 35.0903 11.8611 35.4078 11.9243L32.2967 0.31543L1.05859 8.64357L2.26496 13.1862C3.72527 12.3029 5.43953 11.7981 7.34429 11.7981V11.7981ZM34.5189 17.0347C32.6776 17.0347 31.5347 18.4227 31.5347 20.1262C31.5347 21.9558 32.7411 23.1545 34.5189 23.1545C36.2966 23.1545 37.503 21.8928 37.503 20.1262C37.503 19.8738 37.503 19.6214 37.4394 19.4321L37.3125 19.0536C36.9315 17.8548 35.9156 17.0347 34.5188 17.0347H34.5189ZM10.2649 20.0631C10.2649 18.3596 9.12209 16.9716 7.28083 16.9716C5.43954 16.9716 4.29666 18.3596 4.29666 20.0631C4.29666 21.8928 5.50304 23.0915 7.28083 23.0915C9.0586 23.1546 10.2649 21.8928 10.2649 20.0631ZM34.5189 28.1388C30.1379 28.1388 26.5189 25.6783 25.8205 21.5142L23.3443 27.8864H18.4554L15.9792 21.5142C15.2808 25.6783 11.6618 28.1388 7.28083 28.1388C6.96335 28.1388 6.5824 28.1388 6.26494 28.0756L9.37606 39.6845L40.6141 31.3564L39.4078 26.8769C38.0744 27.6971 36.3601 28.1387 34.5189 28.1387V28.1388ZM45.5665 20.9464C45.5665 22.7129 46.7093 24.1009 48.6776 24.1009C50.9633 24.1009 51.5982 22.7129 52.2331 22.7129C52.5506 22.7129 52.8681 22.9653 52.8681 23.47C52.8681 24.2902 50.7093 25.6152 48.6776 25.6152C45.3125 25.6152 43.8522 23.0284 43.8522 20.2524C43.8522 17.4132 45.63 14.8895 48.5506 14.8895C51.4077 14.8895 53.0585 17.4763 53.0585 20C53.0585 20.6309 52.868 20.9464 52.1061 20.9464H45.5665ZM51.3442 19.6214C51.3442 18.1072 50.4554 16.4038 48.5506 16.4038C46.3919 16.3406 45.63 18.0441 45.5665 19.6214H51.3442ZM54.4554 15.8359C54.4554 15.2681 54.7728 14.8895 55.3442 14.8895C55.8522 14.8895 56.2331 15.2681 56.2331 15.8359V16.2776L56.2967 16.3407C57.0586 15.3313 58.138 14.9527 59.2173 14.9527C60.8681 14.9527 62.8999 15.9622 62.8999 18.9275V24.7319C62.8999 25.2998 62.5824 25.6783 62.011 25.6783C61.503 25.6783 61.1221 25.2998 61.1221 24.7319V19.0537C61.1221 17.2241 59.8523 16.4669 58.7094 16.4669C57.5666 16.4669 56.2967 17.2241 56.2967 19.0537V24.7319C56.2967 25.2998 55.9793 25.6783 55.4078 25.6783C54.8999 25.6783 54.5189 25.2998 54.5189 24.7319V15.836L54.4554 15.8359ZM66.0109 20.9464C66.0109 22.7129 67.1537 24.1009 69.122 24.1009C71.4077 24.1009 72.0426 22.7129 72.6776 22.7129C72.995 22.7129 73.3125 22.9653 73.3125 23.47C73.3125 24.2902 71.1537 25.6152 69.122 25.6152C65.7569 25.6152 64.2966 23.0284 64.2966 20.2524C64.2966 17.4132 66.0744 14.8895 68.995 14.8895C71.8522 14.8895 73.503 17.4763 73.503 20C73.503 20.6309 73.3124 20.9464 72.5506 20.9464H66.0109ZM71.7887 19.6214C71.7887 18.1072 70.8998 16.4038 68.995 16.4038C66.8363 16.3406 66.0744 18.0441 66.0109 19.6214H71.7887ZM74.8998 15.8359C74.8998 15.2681 75.2172 14.8895 75.7887 14.8895C76.2966 14.8895 76.6775 15.2681 76.6775 15.8359V16.7192H76.7411C77.1221 15.899 78.0745 14.8895 79.0903 14.8895C79.7253 14.8895 80.0427 15.2681 80.0427 15.7728C80.0427 16.2776 79.6618 16.5931 78.9634 16.7192C77.9475 16.9086 76.6777 17.6656 76.6777 19.6845V24.6688C76.6777 25.2366 76.3602 25.6152 75.7888 25.6152C75.2808 25.6152 74.8999 25.2366 74.8999 24.6688L74.8998 15.8359ZM89.5029 24.7319C89.5029 27.8234 87.5982 29.7161 84.741 29.7161C82.9633 29.7161 80.741 28.7066 80.741 27.8233C80.741 27.4448 80.9316 27.0032 81.5029 27.0032C82.2648 27.0032 83.0902 28.2019 84.9315 28.2019C87.1537 28.2019 87.7886 26.4984 87.7886 24.9842V24.1009H87.7251C87.2171 24.9842 86.2647 25.6152 85.0584 25.6152C82.0743 25.6152 80.4235 23.0284 80.4235 20.2524C80.4235 17.4763 82.0743 14.8895 85.0584 14.8895C86.2012 14.8895 87.2806 15.5836 87.7251 16.2145H87.7886V15.7728C87.7886 15.1419 88.2331 14.9526 88.741 14.9526C89.0585 14.9526 89.5664 15.205 89.5664 15.7728V24.7319H89.5029ZM85.0585 24.1009C87.2172 24.1009 87.9156 22.0189 87.9156 20.2524C87.9156 18.4858 87.1537 16.4038 85.0585 16.4038C82.8998 16.4038 82.2013 18.4858 82.2013 20.2524C82.2013 22.0189 82.8998 24.1009 85.0585 24.1009ZM91.0267 16.593C90.8362 16.0252 90.7728 15.8359 90.7728 15.6467C90.7728 15.205 91.1537 14.8895 91.5347 14.8895C91.9791 14.8895 92.2966 15.1419 92.4235 15.5205L94.8363 22.7129H94.8998L97.249 15.5205C97.376 15.1419 97.63 14.8895 98.0745 14.8895C98.4554 14.8895 98.8363 15.205 98.8363 15.6467C98.8363 15.836 98.7728 16.0252 98.5824 16.593L94.2014 29.0221C94.0745 29.4007 93.757 29.653 93.376 29.653C92.9951 29.653 92.6141 29.3376 92.6141 28.8959C92.6141 28.7066 92.6777 28.5174 92.8681 27.9496L93.9474 25.0473L91.0267 16.593Z" fill="#0A9928"></path></svg>