<svg width="229" height="24" viewBox="0 0 229 24" fill="none" xmlns="http://www.w3.org/2000/svg">
<circle cx="11.5" cy="12.3125" r="11" fill="#071D54" stroke="white"/>
<circle opacity="0.9" cx="11" cy="11.1875" r="11" fill="#EE6502"/>
<line x1="28.2" y1="9" x2="28.2" y2="15" stroke="#071D54" stroke-width="0.4"/>
<path d="M35.3425 18H36.405V13.3828H39.1784C39.2487 13.3828 39.3425 13.3828 39.405 13.3828L41.9987 18H43.2487L40.5144 13.2109C42.0144 12.8203 42.9284 11.625 42.9284 10.0391V10.0234C42.9284 8.01562 41.5222 6.72656 39.3191 6.72656H35.3425V18ZM36.405 12.4375V7.67969H39.1941C40.8269 7.67969 41.8269 8.5625 41.8269 10.0469V10.0625C41.8269 11.5625 40.8659 12.4375 39.2331 12.4375H36.405ZM48.2794 18.1484C50.0372 18.1484 51.3341 17.1406 51.6153 15.75L51.6309 15.6719H50.6075L50.5919 15.7422C50.3262 16.625 49.4981 17.2266 48.3028 17.2266C46.7012 17.2266 45.6622 16.125 45.6309 14.1875H51.7325V13.7812C51.7325 11.3516 50.3653 9.72656 48.1934 9.72656C46.0216 9.72656 44.5841 11.4062 44.5841 13.9531V13.9609C44.5841 16.5312 45.9981 18.1484 48.2794 18.1484ZM48.1856 10.6484C49.5762 10.6484 50.5762 11.5938 50.6934 13.3672H45.6466C45.7716 11.6406 46.8028 10.6484 48.1856 10.6484ZM54.1772 18H55.2084V10.7422H56.9506V9.875H55.2006V8.74219C55.2006 7.84375 55.6303 7.44531 56.4194 7.44531C56.6303 7.44531 56.8334 7.46094 57.0053 7.49219V6.64062C56.8256 6.60938 56.5366 6.57812 56.2475 6.57812C54.8881 6.57812 54.1772 7.25781 54.1772 8.72656V9.875H53.0444V10.7422H54.1772V18ZM61.7625 18.1406C63.075 18.1406 63.9812 17.4922 64.3953 16.6172H64.4187V18H65.4578V9.875H64.4187V14.6875C64.4187 16.2031 63.4812 17.2188 62.0594 17.2188C60.6844 17.2188 59.9344 16.4141 59.9344 14.9062V9.875H58.8953V15.0781C58.8953 16.9844 59.9656 18.1406 61.7625 18.1406ZM67.8791 18H68.9103V13.1875C68.9103 11.6719 69.8556 10.6562 71.2697 10.6562C72.6525 10.6562 73.4025 11.4609 73.4025 12.9688V18H74.4338V12.7969C74.4338 10.8906 73.3713 9.73438 71.5744 9.73438C70.2619 9.73438 69.3478 10.3828 68.9416 11.2578H68.9103V9.875H67.8791V18ZM79.8472 18.1484C81.1284 18.1484 82.1441 17.4297 82.6128 16.3125H82.6441V18H83.6831V6.72656H82.6441V11.5703H82.6206C82.1597 10.4453 81.1128 9.72656 79.8394 9.72656C77.8081 9.72656 76.4097 11.3906 76.4097 13.9297V13.9375C76.4097 16.4766 77.8003 18.1484 79.8472 18.1484ZM80.0425 17.2266C78.48 17.2266 77.4722 15.9453 77.4722 13.9375V13.9297C77.4722 11.9375 78.48 10.6484 80.0425 10.6484C81.5581 10.6484 82.6519 11.9766 82.6519 13.9297V13.9375C82.6519 15.8984 81.5737 17.2266 80.0425 17.2266ZM86.3387 18H87.3387V8.73438H87.3934L91.2997 18H92.2294L96.1434 8.73438H96.1981V18H97.1981V6.72656H95.9716L91.7919 16.6562H91.745L87.5653 6.72656H86.3387V18ZM100.338 20.7344C101.729 20.7344 102.393 20.0938 102.932 18.6484L106.19 9.875H105.096L102.627 16.9688H102.596L100.135 9.875H99.0256L102.08 18.0547L101.885 18.5781C101.526 19.5703 101.049 19.8672 100.135 19.8672C100.002 19.8672 99.8694 19.8516 99.7678 19.8359V20.6875C99.9163 20.7109 100.135 20.7344 100.338 20.7344Z" fill="#071D54"/>
<path d="M107.963 18H112.689C115.095 18 116.556 16.7812 116.556 14.8125V14.7969C116.556 13.3125 115.478 12.2031 113.892 12.0625V12.0234C115.103 11.8594 116.017 10.7734 116.017 9.5625V9.54688C116.017 7.83594 114.697 6.72656 112.642 6.72656H107.963V18ZM112.134 8.29688C113.33 8.29688 114.025 8.84375 114.025 9.82031V9.83594C114.025 10.8984 113.244 11.4922 111.791 11.4922H109.978V8.29688H112.134ZM112.111 12.9531C113.689 12.9531 114.502 13.5469 114.502 14.6797V14.6953C114.502 15.8281 113.705 16.4297 112.228 16.4297H109.978V12.9531H112.111ZM121.259 18.1641C122.509 18.1641 123.36 17.5859 123.79 16.7031H123.829V18H125.774V9.71875H123.829V14.5156C123.829 15.7188 123.118 16.5234 122.001 16.5234C120.892 16.5234 120.345 15.8594 120.345 14.6875V9.71875H118.399V15.0703C118.399 16.9922 119.438 18.1641 121.259 18.1641ZM131.25 18.1641C133.282 18.1641 134.727 17.1172 134.727 15.5547V15.5469C134.727 14.3438 134.063 13.6719 132.352 13.2891L130.969 12.9844C130.11 12.7891 129.789 12.4766 129.789 12V11.9922C129.789 11.3828 130.328 10.9844 131.188 10.9844C132.094 10.9844 132.625 11.4688 132.711 12.1328L132.719 12.1953H134.532L134.524 12.1094C134.453 10.6797 133.25 9.54688 131.188 9.54688C129.188 9.54688 127.868 10.5703 127.868 12.0859V12.0938C127.868 13.3203 128.664 14.0938 130.25 14.4453L131.625 14.75C132.485 14.9453 132.774 15.2266 132.774 15.7266V15.7344C132.774 16.3438 132.203 16.7266 131.258 16.7266C130.274 16.7266 129.735 16.3047 129.586 15.5938L129.571 15.5234H127.657L127.664 15.5938C127.836 17.1328 129.078 18.1641 131.25 18.1641ZM137.64 8.53125C138.25 8.53125 138.718 8.04688 138.718 7.46875C138.718 6.875 138.25 6.39844 137.64 6.39844C137.031 6.39844 136.554 6.875 136.554 7.46875C136.554 8.04688 137.031 8.53125 137.64 8.53125ZM136.664 18H138.609V9.71875H136.664V18ZM140.905 18H142.851V13.1953C142.851 12 143.562 11.1875 144.679 11.1875C145.788 11.1875 146.335 11.8516 146.335 13.0312V18H148.28V12.6406C148.28 10.7188 147.241 9.54688 145.421 9.54688C144.163 9.54688 143.319 10.125 142.89 11.0156H142.851V9.71875H140.905V18ZM154.123 18.1641C156.287 18.1641 157.506 16.8828 157.764 15.6094L157.787 15.5234H155.967L155.952 15.5781C155.764 16.1328 155.131 16.6484 154.162 16.6484C152.897 16.6484 152.1 15.7891 152.069 14.3359H157.866V13.7109C157.866 11.2109 156.397 9.54688 154.03 9.54688C151.662 9.54688 150.139 11.2656 150.139 13.875V13.8828C150.139 16.5156 151.639 18.1641 154.123 18.1641ZM154.053 11.0703C155.084 11.0703 155.834 11.7266 155.975 13.0391H152.092C152.248 11.7656 153.022 11.0703 154.053 11.0703ZM162.998 18.1641C165.029 18.1641 166.474 17.1172 166.474 15.5547V15.5469C166.474 14.3438 165.81 13.6719 164.099 13.2891L162.717 12.9844C161.857 12.7891 161.537 12.4766 161.537 12V11.9922C161.537 11.3828 162.076 10.9844 162.935 10.9844C163.842 10.9844 164.373 11.4688 164.459 12.1328L164.467 12.1953H166.279L166.271 12.1094C166.201 10.6797 164.998 9.54688 162.935 9.54688C160.935 9.54688 159.615 10.5703 159.615 12.0859V12.0938C159.615 13.3203 160.412 14.0938 161.998 14.4453L163.373 14.75C164.232 14.9453 164.521 15.2266 164.521 15.7266V15.7344C164.521 16.3438 163.951 16.7266 163.006 16.7266C162.021 16.7266 161.482 16.3047 161.334 15.5938L161.318 15.5234H159.404L159.412 15.5938C159.584 17.1328 160.826 18.1641 162.998 18.1641ZM171.591 18.1641C173.622 18.1641 175.068 17.1172 175.068 15.5547V15.5469C175.068 14.3438 174.403 13.6719 172.693 13.2891L171.31 12.9844C170.45 12.7891 170.13 12.4766 170.13 12V11.9922C170.13 11.3828 170.669 10.9844 171.528 10.9844C172.435 10.9844 172.966 11.4688 173.052 12.1328L173.06 12.1953H174.872L174.864 12.1094C174.794 10.6797 173.591 9.54688 171.528 9.54688C169.528 9.54688 168.208 10.5703 168.208 12.0859V12.0938C168.208 13.3203 169.005 14.0938 170.591 14.4453L171.966 14.75C172.825 14.9453 173.114 15.2266 173.114 15.7266V15.7344C173.114 16.3438 172.544 16.7266 171.599 16.7266C170.614 16.7266 170.075 16.3047 169.927 15.5938L169.911 15.5234H167.997L168.005 15.5938C168.177 17.1328 169.419 18.1641 171.591 18.1641ZM177.145 18H184.442V16.3047H179.161V13.0938H184.153V11.4609H179.161V8.42188H184.442V6.72656H177.145V18ZM186.637 18H188.582V13.1953C188.582 12 189.293 11.1875 190.41 11.1875C191.519 11.1875 192.066 11.8516 192.066 13.0312V18H194.012V12.6406C194.012 10.7188 192.973 9.54688 191.152 9.54688C189.894 9.54688 189.051 10.125 188.621 11.0156H188.582V9.71875H186.637V18ZM199.855 18.1641C202.019 18.1641 203.238 16.8828 203.495 15.6094L203.519 15.5234H201.698L201.683 15.5781C201.495 16.1328 200.863 16.6484 199.894 16.6484C198.628 16.6484 197.831 15.7891 197.8 14.3359H203.597V13.7109C203.597 11.2109 202.128 9.54688 199.761 9.54688C197.394 9.54688 195.87 11.2656 195.87 13.875V13.8828C195.87 16.5156 197.37 18.1641 199.855 18.1641ZM199.784 11.0703C200.816 11.0703 201.566 11.7266 201.706 13.0391H197.823C197.98 11.7656 198.753 11.0703 199.784 11.0703ZM205.495 18H207.44V13.1953C207.44 11.9688 208.104 11.2734 209.206 11.2734C209.534 11.2734 209.831 11.3203 209.995 11.3828V9.625C209.846 9.58594 209.62 9.54688 209.378 9.54688C208.424 9.54688 207.737 10.1484 207.479 11.1484H207.44V9.71875H205.495V18ZM215.057 20.8984C217.455 20.8984 218.963 19.6406 218.963 17.7656V9.71875H217.018V11.125H216.971C216.502 10.1719 215.596 9.54688 214.424 9.54688C212.33 9.54688 210.978 11.1562 210.978 13.7734V13.7812C210.978 16.3594 212.314 17.9531 214.393 17.9531C215.58 17.9531 216.518 17.3906 216.978 16.5078H217.018V17.7031C217.018 18.7578 216.322 19.4297 215.057 19.4297C214.041 19.4297 213.377 19.0703 213.166 18.5938L213.143 18.5312H211.228L211.244 18.6016C211.478 19.8984 212.861 20.8984 215.057 20.8984ZM215.002 16.4531C213.752 16.4531 212.963 15.4453 212.963 13.8125V13.8047C212.963 12.1953 213.752 11.1875 215.002 11.1875C216.205 11.1875 217.025 12.2109 217.025 13.8125V13.8203C217.025 15.4297 216.213 16.4531 215.002 16.4531ZM222.306 20.75C224.033 20.75 225.001 20.1016 225.634 18.2812L228.611 9.71875H226.564L224.618 16.3438H224.564L222.626 9.71875H220.501L223.478 18.0078L223.361 18.3438C223.111 19.0391 222.697 19.25 221.954 19.25C221.681 19.25 221.454 19.2109 221.306 19.1797V20.6641C221.54 20.7031 221.931 20.75 222.306 20.75Z" fill="#EE6502"/>
<path d="M8.76185 19.1769C8.76185 19.1769 8.86638 19.3182 9.19547 19.3453L9.87687 19.9977C9.87687 19.9977 9.98915 20.2068 10.8022 20.199C11.7062 20.1913 11.834 19.9706 11.834 19.9706L12.5463 19.3434C12.6838 19.3434 12.8987 19.3202 12.9916 19.1963L13.4213 18.662L8.31275 18.6639L8.76185 19.1769ZM6.33822 4.79972C6.42727 4.79972 6.51825 4.78617 6.60924 4.75713L9.85171 3.69824C10.3086 3.54919 10.5583 3.05749 10.4092 2.60064C10.2602 2.14379 9.76847 1.89407 9.31162 2.04313L6.06915 3.10202C5.6123 3.25107 5.36258 3.74277 5.51164 4.19962C5.62972 4.56548 5.97042 4.79972 6.33822 4.79972ZM5.54648 7.75956C5.67231 8.11768 6.00914 8.3403 6.36726 8.3403C6.46405 8.3403 6.56084 8.32482 6.65763 8.28997L15.6146 5.12687C16.0676 4.96619 16.3057 4.46869 16.1469 4.01572C15.9863 3.56274 15.4888 3.32463 15.0358 3.48337L6.07883 6.64841C5.62391 6.80908 5.38774 7.30658 5.54648 7.75956ZM8.34565 16.8172V18.0329H13.3923V16.8172H8.34565ZM13.4678 10.6575C12.2366 12.0338 11.7991 13.9503 11.6675 14.7246H8.32049C7.92171 14.7246 7.59843 15.0479 7.59843 15.4466C7.59843 15.8454 7.92171 16.1687 8.32049 16.1687H13.4175C13.8162 16.1687 14.1376 15.8454 14.1376 15.4466C14.1376 15.0556 13.8279 14.7401 13.4407 14.7285C13.5936 14.0103 13.9653 12.7152 14.7648 11.8189C15.0861 11.4608 15.0552 10.9091 14.6951 10.5897C14.3389 10.2684 13.7872 10.2993 13.4678 10.6575ZM15.0377 6.94652L6.07883 10.0941C5.80394 10.1909 5.59488 10.4194 5.52325 10.702C5.45163 10.9846 5.52712 11.2847 5.72264 11.5015L7.88493 13.8825C8.05722 14.0722 8.29339 14.1671 8.52956 14.1671C8.73862 14.1671 8.94769 14.0916 9.1161 13.9406C9.47229 13.6173 9.49939 13.0656 9.17418 12.7094L7.89461 11.3021L15.6146 8.59002C16.0676 8.43129 16.3076 7.93378 16.1469 7.47887C15.9882 7.02589 15.4907 6.78585 15.0377 6.94652Z" fill="white"/>
</svg>
