<svg xmlns="http://www.w3.org/2000/svg" width="110" height="30" viewBox="0 0 110 30" fill="none"><path d="M5.09113 10.6736C3.96959 11.0597 3.44092 11.9256 3.33621 12.8078C3.24421 13.583 3.48086 14.3471 3.91298 14.8069C4.00454 14.5855 4.14613 14.3614 4.3153 14.1605C4.56873 13.8596 4.90223 13.5891 5.26593 13.4495M5.09113 10.6736L5.33821 13.636L5.26663 13.4492C5.2664 13.4493 5.26616 13.4494 5.26593 13.4495M5.09113 10.6736C6.25596 10.2885 7.80396 9.91916 8.95352 9.67778C10.0141 10.5908 11.0735 11.2681 12.1509 11.7773C9.78592 12.047 7.45398 12.592 5.26593 13.4495M5.09113 10.6736L5.26523 13.4498C5.26546 13.4497 5.2657 13.4496 5.26593 13.4495M2.34511 2.18283L2.34518 2.1831L2.35526 2.18013C12.1478 -0.707494 22.6053 -0.430697 32.2297 2.97016C32.1226 3.55292 31.7385 5.56966 30.8251 8.50109C30.7446 8.757 30.6136 8.9943 30.4397 9.19901C30.2657 9.4038 30.0523 9.57182 29.812 9.69313C29.5718 9.81443 29.3096 9.88656 29.0409 9.90524C28.7724 9.92391 28.5028 9.8888 28.2481 9.80199C20.6161 7.15649 12.3301 7.04704 4.63047 9.49002C3.33082 9.88505 2.50056 10.8291 2.27052 11.7807C1.46059 9.74274 0.783448 7.56564 0.303267 5.64423L0.303336 5.64422L0.301902 5.63907C0.201433 5.27832 0.174901 4.90111 0.223884 4.52993C0.272866 4.15875 0.396364 3.80119 0.587026 3.4786C0.77769 3.15601 1.03162 2.87499 1.33368 2.65235C1.63573 2.42971 1.97972 2.27001 2.34511 2.18283ZM10.694 21.1375L10.6937 21.1376C9.42941 21.5274 8.86935 22.5361 8.78979 23.3826C7.37877 21.504 6.09889 19.5307 4.95931 17.4765C4.30713 16.276 4.9552 15.0128 6.00018 14.6193C9.54994 13.2869 13.3316 12.6775 17.1216 12.8273C20.897 12.9764 24.6043 13.8758 28.0261 15.4724C27.1131 17.3065 26.095 19.0867 24.9768 20.8043C24.3696 21.7099 23.2877 21.8958 22.5265 21.5908C19.5184 20.3765 15.0021 19.8174 10.694 21.1375ZM21.2171 25.839L21.2115 25.8867L21.2104 25.8966L21.2017 25.9702C21.197 25.9691 21.1874 25.9654 21.1774 25.9559C21.1729 25.9516 21.1689 25.9467 21.1656 25.9414L21.195 25.883L21.1992 25.8745L21.2171 25.839ZM21.106 25.9274C20.0021 27.174 19.3863 27.8384 18.3959 28.8259C17.7392 29.455 16.8625 29.8044 15.9516 29.8C15.0409 29.7955 14.1678 29.4377 13.5174 28.8025C13.2925 28.5708 13.0825 28.3561 12.8829 28.1522C11.9293 27.1776 11.2145 26.4471 10.2631 25.2652C9.95877 24.8448 9.83387 24.2205 9.96814 23.6446C10.1007 23.076 10.4832 22.5631 11.1921 22.342L11.1932 22.3416C12.826 21.8217 14.3565 21.657 15.937 21.6511C16.5288 22.2986 17.0922 22.8576 17.5208 23.283C17.5951 23.3567 17.6653 23.4263 17.7309 23.4918L17.7316 23.4924C18.7237 24.4729 19.862 25.2942 21.106 25.9274Z" fill="url(#paint0_linear_1063_2347)" stroke="white" stroke-width="0.4"></path><path d="M44.1056 13.9542C44.7178 13.9542 45.2149 13.887 45.5968 13.7526C46.3214 13.495 46.6837 13.0161 46.6837 12.3161C46.6837 11.9073 46.5039 11.5909 46.1445 11.3668C45.785 11.1484 45.2205 10.9552 44.451 10.7872L43.1367 10.4932C41.8449 10.202 40.9518 9.88556 40.4575 9.54394C39.6206 8.97271 39.2022 8.07947 39.2022 6.8642C39.2022 5.75535 39.6066 4.8341 40.4154 4.10046C41.2242 3.36682 42.4122 3 43.9792 3C45.2879 3 46.4028 3.34722 47.324 4.04165C48.2507 4.73049 48.7366 5.73294 48.7815 7.04901H46.2877C46.2428 6.30417 45.917 5.77495 45.3104 5.46133C44.906 5.25412 44.4033 5.15051 43.8023 5.15051C43.1339 5.15051 42.6003 5.28492 42.2015 5.55373C41.8027 5.82255 41.6034 6.19777 41.6034 6.67939C41.6034 7.12182 41.7999 7.45223 42.1931 7.67065C42.4459 7.81625 42.9851 7.98706 43.8107 8.18307L45.9507 8.6955C46.8887 8.91951 47.5964 9.21913 48.0738 9.59435C48.8152 10.1768 49.1859 11.0196 49.1859 12.1229C49.1859 13.2541 48.7506 14.195 47.88 14.9454C47.0151 15.6903 45.7906 16.0627 44.2067 16.0627C42.5891 16.0627 41.3169 15.6959 40.3901 14.9622C39.4634 14.223 39 13.2093 39 11.9213H41.477C41.5556 12.4869 41.7101 12.9097 41.9404 13.1897C42.3616 13.6994 43.0834 13.9542 44.1056 13.9542Z" fill="white"></path><path d="M59.751 10.3336H53.7186V13.5174H60.5935V15.7435H51.1827V3.36122H60.2902V5.55373H53.7186V8.18307H59.751V10.3336Z" fill="white"></path><path d="M71.3776 14.8194C70.4508 15.6651 69.2657 16.0879 67.8222 16.0879C66.0361 16.0879 64.6319 15.5167 63.6097 14.3742C62.5874 13.2261 62.0763 11.6525 62.0763 9.65315C62.0763 7.49144 62.6576 5.82535 63.8203 4.65489C64.8313 3.63563 66.1175 3.12601 67.679 3.12601C69.7684 3.12601 71.2962 3.80924 72.2622 5.17571C72.7958 5.94295 73.0823 6.713 73.1216 7.48584H70.5267C70.3582 6.8922 70.1419 6.44418 69.8779 6.14177C69.4061 5.60414 68.7068 5.33532 67.7801 5.33532C66.8365 5.33532 66.0923 5.71614 65.5474 6.47778C65.0026 7.23382 64.7302 8.30628 64.7302 9.69515C64.7302 11.084 65.0167 12.1257 65.5896 12.8201C66.1681 13.509 66.9011 13.8534 67.7885 13.8534C68.6984 13.8534 69.3921 13.5566 69.8695 12.9629C70.1335 12.6437 70.3525 12.1649 70.5267 11.5264H73.0963C72.8716 12.8761 72.2987 13.9738 71.3776 14.8194Z" fill="white"></path><path d="M82.4313 10.972V3.36122H85.0684V10.972C85.0684 12.2881 84.8633 13.3129 84.4533 14.0466C83.6894 15.3907 82.2319 16.0627 80.0807 16.0627C77.9295 16.0627 76.4692 15.3907 75.6997 14.0466C75.2896 13.3129 75.0846 12.2881 75.0846 10.972V3.36122H77.7217V10.972C77.7217 11.8233 77.8228 12.4449 78.025 12.8369C78.3395 13.5314 79.0248 13.8786 80.0807 13.8786C81.131 13.8786 81.8135 13.5314 82.128 12.8369C82.3302 12.4449 82.4313 11.8233 82.4313 10.972Z" fill="white"></path><path d="M92.8279 10.888H90.1487V15.7435H87.6127V3.36122H93.7041C94.5746 3.37802 95.243 3.48443 95.7092 3.68044C96.181 3.87645 96.5798 4.16486 96.9056 4.54568C97.1752 4.8593 97.3886 5.20652 97.5459 5.58734C97.7032 5.96816 97.7818 6.40218 97.7818 6.8894C97.7818 7.47744 97.633 8.05707 97.3353 8.6283C97.0376 9.19393 96.5461 9.59435 95.8609 9.82956C96.4338 10.0592 96.8382 10.3868 97.0741 10.8124C97.3156 11.2324 97.4364 11.8765 97.4364 12.7445V13.5762C97.4364 14.1418 97.4588 14.5254 97.5038 14.727C97.5712 15.0462 97.7284 15.2814 97.9756 15.4327V15.7435H95.1195C95.0408 15.4691 94.9847 15.2478 94.951 15.0798C94.8836 14.7326 94.8471 14.377 94.8414 14.013L94.8246 12.8621C94.8134 12.0725 94.6673 11.546 94.3865 11.2828C94.1113 11.0196 93.5917 10.888 92.8279 10.888ZM94.4033 8.6367C94.9201 8.40148 95.1784 7.93666 95.1784 7.24222C95.1784 6.49178 94.9285 5.98776 94.4286 5.73014C94.1478 5.58454 93.7265 5.51173 93.1649 5.51173H90.1487V8.83831H93.089C93.6732 8.83831 94.1113 8.7711 94.4033 8.6367Z" fill="white"></path><path d="M108.667 10.3336H102.635V13.5174H109.51V15.7435H100.099V3.36122H109.206V5.55373H102.635V8.18307H108.667V10.3336Z" fill="white"></path><path d="M39.7586 24.4699C39.7775 24.8079 39.8573 25.0823 39.9979 25.2932C40.2655 25.6879 40.7373 25.8853 41.4133 25.8853C41.7161 25.8853 41.9918 25.842 42.2406 25.7555C42.7218 25.5879 42.9625 25.2878 42.9625 24.8552C42.9625 24.5307 42.8611 24.2996 42.6583 24.1617C42.4528 24.0265 42.1311 23.9089 41.6931 23.8089L40.886 23.6264C40.3588 23.5074 39.9857 23.3763 39.7667 23.233C39.3882 22.9842 39.199 22.6125 39.199 22.1177C39.199 21.5824 39.3842 21.143 39.7546 20.7997C40.125 20.4563 40.6495 20.2846 41.3281 20.2846C41.9526 20.2846 42.4826 20.436 42.9179 20.7388C43.3558 21.039 43.5748 21.5202 43.5748 22.1826H42.8165C42.7759 21.8636 42.6894 21.6189 42.5569 21.4486C42.3109 21.1376 41.8932 20.9822 41.3038 20.9822C40.8279 20.9822 40.4859 21.0822 40.2777 21.2823C40.0695 21.4824 39.9654 21.7149 39.9654 21.9798C39.9654 22.2718 40.0871 22.4854 40.3304 22.6206C40.49 22.7071 40.8509 22.8153 41.4133 22.945L42.2487 23.1356C42.6515 23.2276 42.9625 23.3533 43.1815 23.5128C43.56 23.7913 43.7492 24.1955 43.7492 24.7254C43.7492 25.3851 43.5086 25.8569 43.0273 26.1408C42.5488 26.4247 41.9918 26.5666 41.3565 26.5666C40.6157 26.5666 40.0357 26.3774 39.6167 25.9988C39.1976 25.623 38.9921 25.1134 39.0002 24.4699H39.7586Z" fill="white"></path><path d="M45.2984 24.4699C45.3174 24.8079 45.3971 25.0823 45.5377 25.2932C45.8054 25.6879 46.2772 25.8853 46.9531 25.8853C47.2559 25.8853 47.5317 25.842 47.7804 25.7555C48.2617 25.5879 48.5023 25.2878 48.5023 24.8552C48.5023 24.5307 48.4009 24.2996 48.1981 24.1617C47.9926 24.0265 47.6709 23.9089 47.2329 23.8089L46.4259 23.6264C45.8986 23.5074 45.5255 23.3763 45.3065 23.233C44.928 22.9842 44.7388 22.6125 44.7388 22.1177C44.7388 21.5824 44.924 21.143 45.2944 20.7997C45.6648 20.4563 46.1893 20.2846 46.8679 20.2846C47.4925 20.2846 48.0224 20.436 48.4577 20.7388C48.8957 21.039 49.1147 21.5202 49.1147 22.1826H48.3563C48.3157 21.8636 48.2292 21.6189 48.0967 21.4486C47.8507 21.1376 47.433 20.9822 46.8436 20.9822C46.3677 20.9822 46.0257 21.0822 45.8175 21.2823C45.6094 21.4824 45.5053 21.7149 45.5053 21.9798C45.5053 22.2718 45.6269 22.4854 45.8703 22.6206C46.0298 22.7071 46.3907 22.8153 46.9531 22.945L47.7885 23.1356C48.1914 23.2276 48.5023 23.3533 48.7213 23.5128C49.0998 23.7913 49.2891 24.1955 49.2891 24.7254C49.2891 25.3851 49.0484 25.8569 48.5672 26.1408C48.0886 26.4247 47.5317 26.5666 46.8963 26.5666C46.1555 26.5666 45.5756 26.3774 45.1565 25.9988C44.7374 25.623 44.5319 25.1134 44.5401 24.4699H45.2984Z" fill="white"></path><path d="M50.311 20.4347H51.1181V25.6825H54.1354V26.3922H50.311V20.4347Z" fill="white"></path><path d="M57.0148 20.4347H61.3582V21.1647H57.8016V22.9734H61.0906V23.6629H57.8016V25.6825H61.4191V26.3922H57.0148V20.4347Z" fill="white"></path><path d="M62.4776 20.4347H63.4306L66.4398 25.2607V20.4347H67.2063V26.3922H66.3019L63.2481 21.5702V26.3922H62.4776V20.4347Z" fill="white"></path><path d="M70.9901 20.2725C71.7444 20.2725 72.3297 20.4712 72.7461 20.8686C73.1625 21.2661 73.3936 21.7176 73.4396 22.2232H72.6528C72.5636 21.8392 72.3852 21.5351 72.1175 21.3107C71.8525 21.0863 71.4794 20.9741 70.9982 20.9741C70.4115 20.9741 69.937 21.1809 69.5747 21.5946C69.2151 22.0055 69.0353 22.6368 69.0353 23.4885C69.0353 24.186 69.1975 24.7524 69.522 25.1877C69.8491 25.6203 70.3358 25.8366 70.982 25.8366C71.5768 25.8366 72.0296 25.6082 72.3406 25.1512C72.5055 24.9106 72.6285 24.5943 72.7096 24.2022H73.4964C73.4261 24.8295 73.1936 25.3554 72.7988 25.7798C72.3257 26.2908 71.6876 26.5463 70.8846 26.5463C70.1925 26.5463 69.6112 26.3368 69.1408 25.9177C68.5216 25.3635 68.2121 24.5078 68.2121 23.3506C68.2121 22.4719 68.4446 21.7514 68.9096 21.189C69.4125 20.578 70.106 20.2725 70.9901 20.2725Z" fill="white"></path><path d="M77.2518 23.164C77.6303 23.164 77.9291 23.0883 78.148 22.9369C78.3697 22.7855 78.4806 22.5125 78.4806 22.1177C78.4806 21.6932 78.3265 21.4039 78.0183 21.2498C77.8533 21.1687 77.633 21.1282 77.3572 21.1282H75.3862V23.164H77.2518ZM74.5792 20.4347H77.3369C77.7912 20.4347 78.1656 20.5009 78.4603 20.6334C79.02 20.8875 79.2998 21.3566 79.2998 22.0407C79.2998 22.3975 79.2255 22.6895 79.0768 22.9167C78.9308 23.1438 78.7253 23.3263 78.4603 23.4641C78.6928 23.5588 78.8672 23.6831 78.9835 23.8373C79.1024 23.9914 79.1687 24.2415 79.1822 24.5875L79.2106 25.3865C79.2187 25.6136 79.2376 25.7825 79.2674 25.8934C79.316 26.0827 79.4025 26.2043 79.5269 26.2584V26.3922H78.5374C78.5103 26.3409 78.4887 26.2746 78.4725 26.1935C78.4563 26.1124 78.4427 25.9556 78.4319 25.7231L78.3833 24.7295C78.3643 24.3401 78.2197 24.0792 77.9493 23.9468C77.7952 23.8738 77.5532 23.8373 77.2234 23.8373H75.3862V26.3922H74.5792V20.4347Z" fill="white"></path><path d="M79.8757 20.4347H80.8166L82.528 23.2979L84.2394 20.4347H85.1843L82.9335 23.9914V26.3922H82.1265V23.9914L79.8757 20.4347Z" fill="white"></path><path d="M85.9549 20.4347H88.6356C89.1655 20.4347 89.5927 20.5847 89.9171 20.8848C90.2416 21.1822 90.4038 21.6013 90.4038 22.142C90.4038 22.6071 90.2591 23.0126 89.9699 23.3587C89.6806 23.7021 89.2358 23.8738 88.6356 23.8738H86.7619V26.3922H85.9549V20.4347ZM89.5886 22.1461C89.5886 21.7081 89.4264 21.4107 89.102 21.2539C88.9235 21.1701 88.6788 21.1282 88.3679 21.1282H86.7619V23.1924H88.3679C88.7302 23.1924 89.0236 23.1154 89.248 22.9613C89.4751 22.8072 89.5886 22.5354 89.5886 22.1461Z" fill="white"></path><path d="M95.753 20.4347V21.1444H93.7455V26.3922H92.9263V21.1444H90.9188V20.4347H95.753Z" fill="white"></path><path d="M96.6777 20.4347H97.4928V26.3922H96.6777V20.4347Z" fill="white"></path><path d="M101.378 20.2725C102.43 20.2725 103.208 20.6104 103.714 21.2863C104.109 21.8136 104.306 22.4881 104.306 23.31C104.306 24.1995 104.08 24.939 103.629 25.5284C103.099 26.2205 102.343 26.5666 101.362 26.5666C100.445 26.5666 99.7247 26.2638 99.2002 25.6582C98.7324 25.0742 98.4986 24.3361 98.4986 23.4439C98.4986 22.6382 98.6987 21.9487 99.0988 21.3756C99.6125 20.6402 100.372 20.2725 101.378 20.2725ZM101.459 25.8447C102.17 25.8447 102.684 25.5906 103 25.0823C103.319 24.5713 103.479 23.9846 103.479 23.3222C103.479 22.622 103.295 22.0582 102.927 21.6311C102.562 21.2039 102.062 20.9903 101.427 20.9903C100.81 20.9903 100.307 21.2025 99.918 21.627C99.5287 22.0488 99.334 22.672 99.334 23.4966C99.334 24.1563 99.5003 24.7132 99.8328 25.1675C100.168 25.619 100.71 25.8447 101.459 25.8447Z" fill="white"></path><path d="M105.271 20.4347H106.224L109.234 25.2607V20.4347H110V26.3922H109.096L106.042 21.5702V26.3922H105.271V20.4347Z" fill="white"></path><defs><linearGradient id="paint0_linear_1063_2347" x1="16.2187" y1="0" x2="16.2187" y2="30" gradientUnits="userSpaceOnUse"><stop stop-color="#58CF6B"></stop><stop offset="1" stop-color="#3BB36B"></stop></linearGradient></defs></svg>