<svg xmlns="http://www.w3.org/2000/svg" width="110" height="31" viewBox="0 0 110 31" fill="none"><path d="M5.09088 11.1736C3.96935 11.5597 3.44067 12.4256 3.33596 13.3078C3.24397 14.083 3.48062 14.8471 3.91274 15.3069C4.00429 15.0855 4.14589 14.8614 4.31505 14.6605C4.56848 14.3596 4.90198 14.0891 5.26569 13.9495M5.09088 11.1736L5.33796 14.136L5.26639 13.9492C5.26615 13.9493 5.26592 13.9494 5.26569 13.9495M5.09088 11.1736C6.25572 10.7885 7.80372 10.4192 8.95328 10.1778C10.0139 11.0908 11.0732 11.7681 12.1507 12.2773C9.78568 12.547 7.45373 13.092 5.26569 13.9495M5.09088 11.1736L5.26498 13.9498C5.26522 13.9497 5.26545 13.9496 5.26569 13.9495M2.34487 2.68283L2.34493 2.6831L2.35502 2.68013C12.1475 -0.207493 22.605 0.0693031 32.2295 3.47016C32.1223 4.05289 31.7382 6.06949 30.825 9.00074C30.7445 9.25679 30.6134 9.49421 30.4394 9.69901C30.2654 9.9038 30.052 10.0718 29.8118 10.1931C29.5715 10.3144 29.3094 10.3866 29.0407 10.4052C28.7722 10.4239 28.5026 10.3888 28.2479 10.302C20.6159 7.65649 12.3298 7.54703 4.63023 9.99002C3.33057 10.385 2.50031 11.3291 2.27028 12.2807C1.46034 10.2427 0.783204 8.06564 0.303023 6.14423L0.303092 6.14422L0.301658 6.13907C0.201189 5.77832 0.174657 5.40111 0.223639 5.02993C0.272622 4.65875 0.39612 4.30119 0.586782 3.9786C0.777446 3.65601 1.03137 3.37499 1.33343 3.15235C1.63549 2.92971 1.97948 2.77001 2.34487 2.68283ZM10.6938 21.6375L10.6934 21.6376C9.42916 22.0274 8.86911 23.0361 8.78955 23.8826C7.37853 22.004 6.09865 20.0307 4.95906 17.9765C4.30685 16.7759 4.95503 15.5126 6.00012 15.1192C9.54982 13.7869 13.3314 13.1775 17.1213 13.3273C20.8967 13.4764 24.604 14.3758 28.0259 15.9724C27.1128 17.8065 26.0947 19.5868 24.9765 21.3043C24.3692 22.2101 23.287 22.3958 22.5259 22.0906C19.5178 20.8765 15.0017 20.3174 10.6938 21.6375ZM21.2169 26.339L21.2113 26.3867L21.2101 26.3966L21.2015 26.4702C21.1968 26.4691 21.1871 26.4654 21.1772 26.4559C21.1726 26.4516 21.1687 26.4467 21.1653 26.4414L21.1948 26.383L21.199 26.3745L21.2169 26.339ZM21.1057 26.4274C20.0018 27.674 19.386 28.3384 18.3957 29.3259C17.739 29.955 16.8623 30.3044 15.9513 30.3C15.0406 30.2955 14.1676 29.9377 13.5172 29.3025C13.2923 29.0708 13.0823 28.8561 12.8827 28.6522C11.9291 27.6776 11.2142 26.9471 10.2628 25.7652C9.95853 25.3448 9.83362 24.7205 9.96789 24.1446C10.1005 23.576 10.4829 23.0631 11.1918 22.842L11.193 22.8416C12.8258 22.3217 14.3563 22.157 15.9367 22.1511C16.5285 22.7986 17.0919 23.3576 17.5206 23.783C17.5948 23.8567 17.6651 23.9263 17.7307 23.9918L17.7313 23.9924C18.7235 24.9729 19.8618 25.7942 21.1057 26.4274Z" fill="url(#paint0_linear_980_7497)" stroke="#1E2241" stroke-width="0.4"></path><path d="M44.1054 14.4542C44.7176 14.4542 45.2147 14.387 45.5966 14.2526C46.3212 13.995 46.6834 13.5161 46.6834 12.8161C46.6834 12.4073 46.5037 12.0909 46.1442 11.8668C45.7848 11.6484 45.2203 11.4552 44.4508 11.2872L43.1365 10.9932C41.8446 10.702 40.9516 10.3856 40.4573 10.0439C39.6204 9.47271 39.202 8.57947 39.202 7.3642C39.202 6.25535 39.6064 5.3341 40.4152 4.60046C41.224 3.86682 42.4119 3.5 43.979 3.5C45.2877 3.5 46.4026 3.84722 47.3237 4.54165C48.2505 5.23049 48.7363 6.23294 48.7813 7.54901H46.2875C46.2425 6.80417 45.9167 6.27495 45.3101 5.96133C44.9057 5.75412 44.403 5.65051 43.8021 5.65051C43.1337 5.65051 42.6001 5.78492 42.2013 6.05373C41.8025 6.32255 41.6031 6.69777 41.6031 7.17939C41.6031 7.62182 41.7997 7.95223 42.1929 8.17065C42.4456 8.31625 42.9848 8.48706 43.8105 8.68307L45.9504 9.1955C46.8884 9.41951 47.5961 9.71913 48.0736 10.0943C48.815 10.6768 49.1857 11.5196 49.1857 12.6229C49.1857 13.7541 48.7504 14.695 47.8798 15.4454C47.0148 16.1903 45.7904 16.5627 44.2065 16.5627C42.5888 16.5627 41.3167 16.1959 40.3899 15.4622C39.4631 14.723 38.9998 13.7093 38.9998 12.4213H41.4767C41.5554 12.9869 41.7098 13.4097 41.9401 13.6897C42.3614 14.1994 43.0831 14.4542 44.1054 14.4542Z" fill="#1E2241"></path><path d="M59.7507 10.8336H53.7184V14.0174H60.5932V16.2435H51.1824V3.86122H60.2899V6.05373H53.7184V8.68307H59.7507V10.8336Z" fill="#1E2241"></path><path d="M71.3773 15.3194C70.4506 16.1651 69.2655 16.5879 67.822 16.5879C66.0358 16.5879 64.6317 16.0167 63.6094 14.8742C62.5872 13.7261 62.0761 12.1525 62.0761 10.1531C62.0761 7.99144 62.6574 6.32535 63.82 5.15489C64.8311 4.13563 66.1173 3.62601 67.6787 3.62601C69.7682 3.62601 71.2959 4.30924 72.262 5.67571C72.7956 6.44295 73.082 7.213 73.1213 7.98584H70.5264C70.3579 7.39221 70.1417 6.94418 69.8777 6.64177C69.4059 6.10414 68.7066 5.83532 67.7798 5.83532C66.8362 5.83532 66.092 6.21614 65.5472 6.97778C65.0024 7.73382 64.73 8.80628 64.73 10.1952C64.73 11.584 65.0164 12.6257 65.5893 13.3201C66.1678 14.009 66.9008 14.3534 67.7883 14.3534C68.6982 14.3534 69.3918 14.0566 69.8693 13.4629C70.1332 13.1437 70.3523 12.6649 70.5264 12.0264H73.0961C72.8714 13.3761 72.2985 14.4738 71.3773 15.3194Z" fill="#1E2241"></path><path d="M82.4311 11.472V3.86122H85.0681V11.472C85.0681 12.7881 84.8631 13.8129 84.4531 14.5466C83.6892 15.8907 82.2317 16.5627 80.0805 16.5627C77.9293 16.5627 76.4689 15.8907 75.6994 14.5466C75.2894 13.8129 75.0844 12.7881 75.0844 11.472V3.86122H77.7214V11.472C77.7214 12.3233 77.8225 12.9449 78.0247 13.3369C78.3393 14.0314 79.0245 14.3786 80.0805 14.3786C81.1308 14.3786 81.8132 14.0314 82.1278 13.3369C82.33 12.9449 82.4311 12.3233 82.4311 11.472Z" fill="#1E2241"></path><path d="M92.8276 11.388H90.1484V16.2435H87.6125V3.86122H93.7038C94.5744 3.87802 95.2428 3.98443 95.709 4.18044C96.1808 4.37645 96.5796 4.66486 96.9053 5.04568C97.1749 5.3593 97.3884 5.70652 97.5457 6.08734C97.7029 6.46816 97.7816 6.90218 97.7816 7.3894C97.7816 7.97744 97.6327 8.55707 97.335 9.1283C97.0373 9.69393 96.5459 10.0943 95.8606 10.3296C96.4335 10.5592 96.8379 10.8868 97.0738 11.3124C97.3154 11.7324 97.4361 12.3765 97.4361 13.2445V14.0762C97.4361 14.6418 97.4586 15.0254 97.5035 15.227C97.5709 15.5462 97.7282 15.7814 97.9753 15.9327V16.2435H95.1192C95.0406 15.9691 94.9844 15.7478 94.9507 15.5798C94.8833 15.2326 94.8468 14.877 94.8412 14.513L94.8243 13.3621C94.8131 12.5725 94.6671 12.046 94.3862 11.7828C94.111 11.5196 93.5915 11.388 92.8276 11.388ZM94.4031 9.1367C94.9198 8.90148 95.1782 8.43666 95.1782 7.74222C95.1782 6.99178 94.9283 6.48776 94.4284 6.23014C94.1475 6.08454 93.7263 6.01173 93.1646 6.01173H90.1484V9.33831H93.0888C93.6729 9.33831 94.111 9.2711 94.4031 9.1367Z" fill="#1E2241"></path><path d="M108.667 10.8336H102.634V14.0174H109.509V16.2435H100.098V3.86122H109.206V6.05373H102.634V8.68307H108.667V10.8336Z" fill="#1E2241"></path><path d="M39.7584 24.9699C39.7773 25.3079 39.8571 25.5823 39.9976 25.7932C40.2653 26.1879 40.7371 26.3853 41.413 26.3853C41.7158 26.3853 41.9916 26.342 42.2403 26.2555C42.7216 26.0879 42.9622 25.7878 42.9622 25.3552C42.9622 25.0307 42.8608 24.7996 42.6581 24.6617C42.4526 24.5265 42.1308 24.4089 41.6928 24.3089L40.8858 24.1264C40.3586 24.0074 39.9855 23.8763 39.7665 23.733C39.388 23.4842 39.1987 23.1125 39.1987 22.6177C39.1987 22.0824 39.3839 21.643 39.7543 21.2997C40.1247 20.9563 40.6492 20.7846 41.3278 20.7846C41.9524 20.7846 42.4823 20.936 42.9176 21.2388C43.3556 21.539 43.5746 22.0202 43.5746 22.6826H42.8162C42.7757 22.3636 42.6891 22.1189 42.5567 21.9486C42.3106 21.6376 41.8929 21.4822 41.3035 21.4822C40.8277 21.4822 40.4857 21.5822 40.2775 21.7823C40.0693 21.9824 39.9652 22.2149 39.9652 22.4798C39.9652 22.7718 40.0869 22.9854 40.3302 23.1206C40.4897 23.2071 40.8507 23.3153 41.413 23.445L42.2484 23.6356C42.6513 23.7276 42.9622 23.8533 43.1812 24.0128C43.5597 24.2913 43.749 24.6955 43.749 25.2254C43.749 25.8851 43.5084 26.3569 43.0271 26.6408C42.5486 26.9247 41.9916 27.0666 41.3562 27.0666C40.6154 27.0666 40.0355 26.8774 39.6164 26.4988C39.1974 26.123 38.9919 25.6134 39 24.9699H39.7584Z" fill="#1E2241"></path><path d="M45.2982 24.9699C45.3171 25.3079 45.3969 25.5823 45.5375 25.7932C45.8051 26.1879 46.2769 26.3853 46.9528 26.3853C47.2556 26.3853 47.5314 26.342 47.7802 26.2555C48.2614 26.0879 48.502 25.7878 48.502 25.3552C48.502 25.0307 48.4007 24.7996 48.1979 24.6617C47.9924 24.5265 47.6707 24.4089 47.2327 24.3089L46.4256 24.1264C45.8984 24.0074 45.5253 23.8763 45.3063 23.733C44.9278 23.4842 44.7385 23.1125 44.7385 22.6177C44.7385 22.0824 44.9237 21.643 45.2941 21.2997C45.6645 20.9563 46.189 20.7846 46.8677 20.7846C47.4922 20.7846 48.0221 20.936 48.4574 21.2388C48.8954 21.539 49.1144 22.0202 49.1144 22.6826H48.356C48.3155 22.3636 48.229 22.1189 48.0965 21.9486C47.8505 21.6376 47.4327 21.4822 46.8433 21.4822C46.3675 21.4822 46.0255 21.5822 45.8173 21.7823C45.6091 21.9824 45.505 22.2149 45.505 22.4798C45.505 22.7718 45.6267 22.9854 45.87 23.1206C46.0295 23.2071 46.3905 23.3153 46.9528 23.445L47.7883 23.6356C48.1911 23.7276 48.502 23.8533 48.721 24.0128C49.0996 24.2913 49.2888 24.6955 49.2888 25.2254C49.2888 25.8851 49.0482 26.3569 48.5669 26.6408C48.0884 26.9247 47.5314 27.0666 46.8961 27.0666C46.1553 27.0666 45.5753 26.8774 45.1562 26.4988C44.7372 26.123 44.5317 25.6134 44.5398 24.9699H45.2982Z" fill="#1E2241"></path><path d="M50.3108 20.9347H51.1178V26.1825H54.1351V26.8922H50.3108V20.9347Z" fill="#1E2241"></path><path d="M57.0145 20.9347H61.358V21.6647H57.8013V23.4734H61.0903V24.1629H57.8013V26.1825H61.4188V26.8922H57.0145V20.9347Z" fill="#1E2241"></path><path d="M62.4773 20.9347H63.4304L66.4395 25.7607V20.9347H67.206V26.8922H66.3017L63.2479 22.0702V26.8922H62.4773V20.9347Z" fill="#1E2241"></path><path d="M70.9898 20.7725C71.7442 20.7725 72.3295 20.9712 72.7459 21.3686C73.1622 21.7661 73.3934 22.2176 73.4394 22.7232H72.6526C72.5634 22.3392 72.3849 22.0351 72.1173 21.8107C71.8523 21.5863 71.4792 21.4741 70.9979 21.4741C70.4112 21.4741 69.9367 21.6809 69.5745 22.0946C69.2149 22.5055 69.0351 23.1368 69.0351 23.9885C69.0351 24.686 69.1973 25.2524 69.5217 25.6877C69.8489 26.1203 70.3355 26.3366 70.9817 26.3366C71.5765 26.3366 72.0294 26.1082 72.3403 25.6512C72.5052 25.4106 72.6283 25.0943 72.7094 24.7022H73.4961C73.4258 25.3295 73.1933 25.8554 72.7986 26.2798C72.3254 26.7908 71.6874 27.0463 70.8844 27.0463C70.1922 27.0463 69.611 26.8368 69.1405 26.4177C68.5214 25.8635 68.2118 25.0078 68.2118 23.8506C68.2118 22.9719 68.4443 22.2514 68.9094 21.689C69.4122 21.078 70.1057 20.7725 70.9898 20.7725Z" fill="#1E2241"></path><path d="M77.2515 23.664C77.63 23.664 77.9288 23.5883 78.1478 23.4369C78.3695 23.2855 78.4804 23.0125 78.4804 22.6177C78.4804 22.1932 78.3262 21.9039 78.018 21.7498C77.8531 21.6687 77.6328 21.6282 77.357 21.6282H75.386V23.664H77.2515ZM74.579 20.9347H77.3367C77.7909 20.9347 78.1654 21.0009 78.4601 21.1334C79.0197 21.3875 79.2996 21.8566 79.2996 22.5407C79.2996 22.8975 79.2252 23.1895 79.0765 23.4167C78.9305 23.6438 78.725 23.8263 78.4601 23.9641C78.6926 24.0588 78.867 24.1831 78.9832 24.3373C79.1022 24.4914 79.1684 24.7415 79.182 25.0875L79.2103 25.8865C79.2185 26.1136 79.2374 26.2825 79.2671 26.3934C79.3158 26.5827 79.4023 26.7043 79.5267 26.7584V26.8922H78.5371C78.5101 26.8409 78.4885 26.7746 78.4722 26.6935C78.456 26.6124 78.4425 26.4556 78.4317 26.2231L78.383 25.2295C78.3641 24.8401 78.2194 24.5792 77.9491 24.4468C77.795 24.3738 77.553 24.3373 77.2231 24.3373H75.386V26.8922H74.579V20.9347Z" fill="#1E2241"></path><path d="M79.8754 20.9347H80.8163L82.5277 23.7979L84.2392 20.9347H85.1841L82.9333 24.4914V26.8922H82.1263V24.4914L79.8754 20.9347Z" fill="#1E2241"></path><path d="M85.9547 20.9347H88.6353C89.1653 20.9347 89.5924 21.0847 89.9169 21.3848C90.2413 21.6822 90.4035 22.1013 90.4035 22.642C90.4035 23.1071 90.2589 23.5126 89.9696 23.8587C89.6803 24.2021 89.2356 24.3738 88.6353 24.3738H86.7617V26.8922H85.9547V20.9347ZM89.5884 22.6461C89.5884 22.2081 89.4262 21.9107 89.1017 21.7539C88.9233 21.6701 88.6786 21.6282 88.3677 21.6282H86.7617V23.6924H88.3677C88.73 23.6924 89.0233 23.6154 89.2477 23.4613C89.4748 23.3072 89.5884 23.0354 89.5884 22.6461Z" fill="#1E2241"></path><path d="M95.7528 20.9347V21.6444H93.7453V26.8922H92.9261V21.6444H90.9186V20.9347H95.7528Z" fill="#1E2241"></path><path d="M96.6774 20.9347H97.4926V26.8922H96.6774V20.9347Z" fill="#1E2241"></path><path d="M101.378 20.7725C102.429 20.7725 103.208 21.1104 103.714 21.7863C104.108 22.3136 104.306 22.9881 104.306 23.81C104.306 24.6995 104.08 25.439 103.629 26.0284C103.099 26.7205 102.343 27.0666 101.362 27.0666C100.445 27.0666 99.7245 26.7638 99.1999 26.1582C98.7322 25.5742 98.4983 24.8361 98.4983 23.9439C98.4983 23.1382 98.6984 22.4487 99.0986 21.8756C99.6123 21.1402 100.372 20.7725 101.378 20.7725ZM101.459 26.3447C102.17 26.3447 102.684 26.0906 103 25.5823C103.319 25.0713 103.479 24.4846 103.479 23.8222C103.479 23.122 103.295 22.5582 102.927 22.1311C102.562 21.7039 102.062 21.4903 101.426 21.4903C100.81 21.4903 100.307 21.7025 99.9178 22.127C99.5284 22.5488 99.3338 23.172 99.3338 23.9966C99.3338 24.6563 99.5 25.2132 99.8326 25.6675C100.168 26.119 100.71 26.3447 101.459 26.3447Z" fill="#1E2241"></path><path d="M105.271 20.9347H106.224L109.233 25.7607V20.9347H110V26.8922H109.095L106.042 22.0702V26.8922H105.271V20.9347Z" fill="#1E2241"></path><defs><linearGradient id="paint0_linear_980_7497" x1="16.2185" y1="0.5" x2="16.2185" y2="30.5" gradientUnits="userSpaceOnUse"><stop stop-color="#58CF6B"></stop><stop offset="1" stop-color="#3BB36B"></stop></linearGradient></defs></svg>