<svg xmlns="http://www.w3.org/2000/svg" width="267" height="26" viewBox="0 0 267 26" fill="none"><path d="M9.26785 18.3192L9.26813 18.3192C13.0018 17.1751 16.9158 17.6596 19.5229 18.712M9.26785 18.3192L19.4581 18.8727M9.26785 18.3192C8.17216 18.6571 7.68677 19.5313 7.61783 20.2649C6.39493 18.6368 5.28569 16.9266 4.29805 15.1463C3.73282 14.1058 4.29458 13.0109 5.20031 12.67C8.27672 11.5153 11.5541 10.9872 14.8387 11.117C18.1107 11.2462 21.3237 12.0257 24.2893 13.4094M9.26785 18.3192L24.2893 13.4094M19.5229 18.712C19.5229 18.712 19.5229 18.712 19.523 18.712L19.4581 18.8727M19.5229 18.712C19.5228 18.7119 19.5227 18.7119 19.5226 18.7119L19.4581 18.8727M19.5229 18.712C20.1825 18.9764 21.1203 18.8153 21.6466 18.0303M19.4581 18.8727C20.1852 19.1643 21.2143 18.9874 21.7912 18.1259M21.6466 18.0303C21.6464 18.0307 21.6461 18.031 21.6459 18.0314L21.7912 18.1259M21.6466 18.0303C22.6157 16.5418 23.498 14.999 24.2893 13.4094M21.6466 18.0303C21.6468 18.03 21.647 18.0298 21.6472 18.0295L21.7912 18.1259M21.7912 18.1259L24.2893 13.4094M2.03243 1.89179L2.03249 1.89202L2.04123 1.88944C10.5281 -0.613161 19.5912 -0.373271 27.9324 2.57414C27.8396 3.0792 27.5067 4.82708 26.7151 7.36771C26.6453 7.58947 26.5317 7.79509 26.381 7.97247C26.2302 8.14996 26.0453 8.29558 25.8371 8.40071C25.6289 8.50584 25.4017 8.56835 25.1688 8.58454C24.9361 8.60072 24.7024 8.57029 24.4817 8.49505C17.8673 6.20229 10.686 6.10744 4.01308 8.22468C2.88671 8.56704 2.16715 9.38519 1.96779 10.21C1.26584 8.44371 0.678988 6.55689 0.262832 4.89167L0.262892 4.89165L0.261648 4.88719C0.174575 4.57455 0.151581 4.24762 0.194032 3.92594C0.236484 3.60425 0.343515 3.29436 0.508756 3.01478C0.673998 2.73521 0.894068 2.49166 1.15585 2.2987C1.41764 2.10575 1.71576 1.96735 2.03243 1.89179ZM18.3882 22.3938L18.3833 22.4351L18.3823 22.4437L18.3749 22.5075C18.3707 22.5066 18.3624 22.5033 18.3538 22.4951C18.3498 22.4914 18.3464 22.4872 18.3435 22.4826L18.369 22.4319L18.3727 22.4246L18.3882 22.3938ZM18.2918 22.4704C17.3351 23.5508 16.8015 24.1266 15.9432 24.9824C15.374 25.5276 14.6142 25.8305 13.8247 25.8266C13.0354 25.8228 12.2788 25.5126 11.7151 24.9622C11.5202 24.7614 11.3382 24.5753 11.1652 24.3986C10.3387 23.554 9.71922 22.9208 8.89467 21.8965C8.63093 21.5322 8.52268 20.9911 8.63905 20.492C8.75395 19.9992 9.0854 19.5547 9.69981 19.363L9.70078 19.3627C11.1159 18.9122 12.4423 18.7694 13.812 18.7643C14.3249 19.3254 14.8132 19.8099 15.1847 20.1786C15.2491 20.2424 15.3099 20.3028 15.3668 20.3595L15.3674 20.3601C16.2272 21.2098 17.2138 21.9217 18.2918 22.4704ZM2.89138 11.1001C2.98213 10.3355 3.4403 9.58509 4.41228 9.2505C5.4218 8.91675 6.76342 8.59661 7.75972 8.38741C8.67891 9.17866 9.597 9.76567 10.5308 10.207C8.48113 10.4407 6.46011 10.9131 4.56381 11.6562C4.2486 11.7772 3.95956 12.0116 3.73993 12.2724C3.59332 12.4465 3.4706 12.6407 3.39125 12.8326C3.01675 12.4342 2.81165 11.7719 2.89138 11.1001Z" fill="url(#paint0_linear_995_6251)" stroke="white" stroke-width="0.346667"></path><path d="M38.2247 12.0936C38.7553 12.0936 39.1861 12.0354 39.5171 11.9189C40.145 11.6956 40.459 11.2806 40.459 10.674C40.459 10.3196 40.3032 10.0454 39.9917 9.85127C39.6801 9.66198 39.1909 9.49453 38.524 9.34892L37.385 9.09411C36.2654 8.84172 35.4914 8.56749 35.063 8.27142C34.3377 7.77636 33.975 7.00221 33.975 5.94898C33.975 4.98797 34.3255 4.18956 35.0265 3.55374C35.7275 2.91792 36.757 2.60001 38.1151 2.60001C39.2493 2.60001 40.2156 2.90093 41.0139 3.50277C41.8171 4.09976 42.2382 4.96856 42.2771 6.10915H40.1158C40.0769 5.46362 39.7945 5.00496 39.2688 4.73316C38.9183 4.55358 38.4827 4.46378 37.9618 4.46378C37.3825 4.46378 36.9201 4.58027 36.5745 4.81324C36.2288 5.04621 36.056 5.37141 36.056 5.78881C36.056 6.17225 36.2264 6.45861 36.5672 6.6479C36.7862 6.77409 37.2535 6.92213 37.9691 7.092L39.8237 7.53611C40.6367 7.73025 41.25 7.98992 41.6638 8.31511C42.3063 8.81988 42.6276 9.55035 42.6276 10.5065C42.6276 11.4869 42.2503 12.3023 41.4958 12.9527C40.7462 13.5982 39.685 13.921 38.3123 13.921C36.9103 13.921 35.8078 13.6031 35.0046 12.9673C34.2014 12.3266 33.7998 11.4481 33.7998 10.3318H35.9465C36.0147 10.822 36.1485 11.1884 36.3481 11.4311C36.7132 11.8728 37.3387 12.0936 38.2247 12.0936Z" fill="white"></path><path d="M51.784 8.95578H46.5559V11.715H52.5142V13.6443H44.3581V2.91306H52.2513V4.81324H46.5559V7.092H51.784V8.95578Z" fill="white"></path><path d="M61.8604 12.8435C61.0572 13.5764 60.0301 13.9428 58.7791 13.9428C57.2311 13.9428 56.0141 13.4478 55.1282 12.4576C54.2422 11.4627 53.7993 10.0988 53.7993 8.36607C53.7993 6.49258 54.3031 5.04864 55.3107 4.03424C56.1869 3.15089 57.3017 2.70921 58.6549 2.70921C60.4658 2.70921 61.7898 3.30135 62.6271 4.48563C63.0895 5.15057 63.3378 5.81794 63.3718 6.48773H61.1229C60.9769 5.97325 60.7895 5.58496 60.5607 5.32287C60.1518 4.85692 59.5457 4.62395 58.7425 4.62395C57.9247 4.62395 57.2798 4.954 56.8076 5.61408C56.3354 6.26932 56.0993 7.19878 56.0993 8.40247C56.0993 9.60616 56.3476 10.5089 56.8441 11.1108C57.3455 11.7078 57.9807 12.0063 58.7498 12.0063C59.5384 12.0063 60.1396 11.749 60.5534 11.2345C60.7822 10.9579 60.972 10.5429 61.1229 9.9896H63.3499C63.1552 11.1593 62.6587 12.1106 61.8604 12.8435Z" fill="white"></path><path d="M71.4403 9.50909V2.91306H73.7257V9.50909C73.7257 10.6497 73.548 11.5379 73.1927 12.1737C72.5307 13.3386 71.2675 13.921 69.4031 13.921C67.5387 13.921 66.2731 13.3386 65.6062 12.1737C65.2508 11.5379 65.0731 10.6497 65.0731 9.50909V2.91306H67.3586V9.50909C67.3586 10.2468 67.4462 10.7856 67.6215 11.1253C67.8941 11.7272 68.4879 12.0281 69.4031 12.0281C70.3134 12.0281 70.9048 11.7272 71.1774 11.1253C71.3526 10.7856 71.4403 10.2468 71.4403 9.50909Z" fill="white"></path><path d="M80.4506 9.43629H78.1287V13.6443H75.9308V2.91306H81.21C81.9645 2.92762 82.5438 3.01984 82.9478 3.18972C83.3567 3.35959 83.7023 3.60955 83.9846 3.9396C84.2183 4.2114 84.4033 4.51232 84.5396 4.84236C84.6759 5.17241 84.744 5.54856 84.744 5.97082C84.744 6.48045 84.615 6.9828 84.357 7.47786C84.099 7.96808 83.6731 8.31511 83.0792 8.51896C83.5757 8.71796 83.9262 9.00189 84.1307 9.37076C84.34 9.73478 84.4447 10.2929 84.4447 11.0452V11.766C84.4447 12.2562 84.4641 12.5887 84.5031 12.7634C84.5615 13.0401 84.6978 13.2439 84.912 13.375V13.6443H82.4367C82.3685 13.4065 82.3199 13.2148 82.2906 13.0692C82.2322 12.7683 82.2006 12.4601 82.1957 12.1446L82.1811 11.1472C82.1714 10.4628 82.0448 10.0066 81.8014 9.77846C81.5629 9.55035 81.1126 9.43629 80.4506 9.43629ZM81.816 7.48514C82.2639 7.28129 82.4878 6.87844 82.4878 6.2766C82.4878 5.62622 82.2712 5.1894 81.8379 4.96613C81.5945 4.83994 81.2295 4.77684 80.7427 4.77684H78.1287V7.65987H80.677C81.1832 7.65987 81.5629 7.60163 81.816 7.48514Z" fill="white"></path><path d="M94.1779 8.95578H88.9498V11.715H94.9081V13.6443H86.752V2.91306H94.6452V4.81324H88.9498V7.092H94.1779V8.95578Z" fill="white"></path><path d="M34.4573 21.2072C34.4737 21.5001 34.5428 21.738 34.6646 21.9207C34.8966 22.2629 35.3055 22.4339 35.8913 22.4339C36.1537 22.4339 36.3927 22.3964 36.6083 22.3214C37.0254 22.1762 37.2339 21.9161 37.2339 21.5412C37.2339 21.26 37.1461 21.0596 36.9703 20.9401C36.7922 20.823 36.5134 20.721 36.1338 20.6343L35.4344 20.4762C34.9775 20.3731 34.6541 20.2594 34.4643 20.1352C34.1363 19.9197 33.9722 19.5975 33.9722 19.1687C33.9722 18.7047 34.1327 18.324 34.4538 18.0264C34.7748 17.7288 35.2293 17.58 35.8175 17.58C36.3588 17.58 36.818 17.7112 37.1953 17.9737C37.5749 18.2338 37.7647 18.6508 37.7647 19.2249H37.1074C37.0723 18.9484 36.9973 18.7364 36.8825 18.5887C36.6692 18.3193 36.3072 18.1845 35.7964 18.1845C35.384 18.1845 35.0876 18.2712 34.9072 18.4446C34.7267 18.618 34.6365 18.8195 34.6365 19.0492C34.6365 19.3022 34.742 19.4874 34.9529 19.6045C35.0911 19.6795 35.4039 19.7732 35.8913 19.8857L36.6153 20.0509C36.9645 20.1306 37.2339 20.2395 37.4237 20.3778C37.7518 20.6191 37.9158 20.9694 37.9158 21.4287C37.9158 22.0004 37.7073 22.4093 37.2902 22.6553C36.8754 22.9014 36.3927 23.0244 35.8421 23.0244C35.2001 23.0244 34.6974 22.8604 34.3343 22.5323C33.9711 22.2066 33.793 21.7649 33.8 21.2072H34.4573Z" fill="white"></path><path d="M39.2584 21.2072C39.2748 21.5001 39.344 21.738 39.4658 21.9207C39.6978 22.2629 40.1067 22.4339 40.6925 22.4339C40.9549 22.4339 41.1939 22.3964 41.4095 22.3214C41.8266 22.1762 42.0351 21.9161 42.0351 21.5412C42.0351 21.26 41.9472 21.0596 41.7715 20.9401C41.5934 20.823 41.3146 20.721 40.935 20.6343L40.2356 20.4762C39.7786 20.3731 39.4553 20.2594 39.2655 20.1352C38.9374 19.9197 38.7734 19.5975 38.7734 19.1687C38.7734 18.7047 38.9339 18.324 39.2549 18.0264C39.5759 17.7288 40.0305 17.58 40.6187 17.58C41.1599 17.58 41.6192 17.7112 41.9965 17.9737C42.3761 18.2338 42.5658 18.6508 42.5658 19.2249H41.9086C41.8734 18.9484 41.7985 18.7364 41.6836 18.5887C41.4704 18.3193 41.1084 18.1845 40.5976 18.1845C40.1852 18.1845 39.8888 18.2712 39.7083 18.4446C39.5279 18.618 39.4377 18.8195 39.4377 19.0492C39.4377 19.3022 39.5431 19.4874 39.754 19.6045C39.8923 19.6795 40.2051 19.7732 40.6925 19.8857L41.4165 20.0509C41.7657 20.1306 42.0351 20.2395 42.2249 20.3778C42.553 20.6191 42.717 20.9694 42.717 21.4287C42.717 22.0004 42.5084 22.4093 42.0914 22.6553C41.6766 22.9014 41.1939 23.0244 40.6433 23.0244C40.0012 23.0244 39.4986 22.8604 39.1354 22.5323C38.7722 22.2066 38.5942 21.7649 38.6012 21.2072H39.2584Z" fill="white"></path><path d="M43.6027 17.71H44.3021V22.2582H46.9171V22.8733H43.6027V17.71Z" fill="white"></path><path d="M49.4126 17.71H53.1769V18.3427H50.0945V19.9103H52.945V20.5078H50.0945V22.2582H53.2297V22.8733H49.4126V17.71Z" fill="white"></path><path d="M54.147 17.71H54.973L57.581 21.8926V17.71H58.2453V22.8733H57.4615L54.8148 18.6942V22.8733H54.147V17.71Z" fill="white"></path><path d="M61.5245 17.5695C62.1783 17.5695 62.6856 17.7417 63.0464 18.0861C63.4073 18.4306 63.6076 18.8219 63.6475 19.2601H62.9656C62.8883 18.9273 62.7336 18.6637 62.5016 18.4692C62.272 18.2748 61.9487 18.1775 61.5316 18.1775C61.0231 18.1775 60.6119 18.3568 60.2979 18.7153C59.9862 19.0714 59.8304 19.6186 59.8304 20.3567C59.8304 20.9612 59.971 21.4521 60.2522 21.8294C60.5357 22.2043 60.9575 22.3917 61.5175 22.3917C62.033 22.3917 62.4255 22.1937 62.695 21.7977C62.8379 21.5892 62.9445 21.315 63.0148 20.9753H63.6967C63.6357 21.5189 63.4342 21.9746 63.0921 22.3425C62.6821 22.7854 62.1291 23.0068 61.4332 23.0068C60.8333 23.0068 60.3295 22.8252 59.9218 22.462C59.3852 21.9817 59.1169 21.2401 59.1169 20.2372C59.1169 19.4756 59.3184 18.8512 59.7215 18.3638C60.1573 17.8342 60.7583 17.5695 61.5245 17.5695Z" fill="white"></path><path d="M66.9513 20.0755C67.2794 20.0755 67.5383 20.0099 67.7281 19.8787C67.9203 19.7474 68.0163 19.5108 68.0163 19.1687C68.0163 18.8008 67.8828 18.5501 67.6156 18.4165C67.4727 18.3462 67.2817 18.3111 67.0427 18.3111H65.3345V20.0755H66.9513ZM64.6351 17.71H67.0252C67.4188 17.71 67.7433 17.7675 67.9987 17.8823C68.4838 18.1025 68.7263 18.5091 68.7263 19.1019C68.7263 19.4112 68.6619 19.6643 68.533 19.8611C68.4065 20.0579 68.2284 20.2161 67.9987 20.3356C68.2003 20.4176 68.3514 20.5254 68.4522 20.6589C68.5553 20.7925 68.6127 21.0092 68.6244 21.3092L68.649 22.0016C68.656 22.1984 68.6724 22.3449 68.6982 22.4409C68.7404 22.605 68.8153 22.7104 68.9231 22.7573V22.8733H68.0655C68.0421 22.8287 68.0234 22.7713 68.0093 22.701C67.9952 22.6307 67.9835 22.4948 67.9741 22.2933L67.932 21.4322C67.9156 21.0948 67.7902 20.8687 67.5559 20.7538C67.4223 20.6906 67.2126 20.6589 66.9267 20.6589H65.3345V22.8733H64.6351V17.71Z" fill="white"></path><path d="M69.2254 17.71H70.0408L71.5241 20.1915L73.0073 17.71H73.8262L71.8755 20.7925V22.8733H71.1761V20.7925L69.2254 17.71Z" fill="white"></path><path d="M74.494 17.71H76.8173C77.2766 17.71 77.6468 17.8401 77.928 18.1002C78.2092 18.3579 78.3498 18.7211 78.3498 19.1898C78.3498 19.5928 78.2244 19.9443 77.9737 20.2442C77.723 20.5418 77.3375 20.6906 76.8173 20.6906H75.1935V22.8733H74.494V17.71ZM77.6433 19.1933C77.6433 18.8137 77.5027 18.5559 77.2215 18.42C77.0669 18.3474 76.8548 18.3111 76.5853 18.3111H75.1935V20.1001H76.5853C76.8993 20.1001 77.1536 20.0333 77.348 19.8998C77.5449 19.7662 77.6433 19.5307 77.6433 19.1933Z" fill="white"></path><path d="M82.9857 17.71V18.3251H81.2459V22.8733H80.5359V18.3251H78.7961V17.71H82.9857Z" fill="white"></path><path d="M83.7871 17.71H84.4936V22.8733H83.7871V17.71Z" fill="white"></path><path d="M87.8607 17.5695C88.7722 17.5695 89.4471 17.8624 89.8852 18.4482C90.2273 18.9051 90.3984 19.4897 90.3984 20.202C90.3984 20.9729 90.2027 21.6138 89.8114 22.1246C89.3522 22.7245 88.6972 23.0244 87.8467 23.0244C87.0523 23.0244 86.4279 22.7619 85.9733 22.2371C85.5679 21.7309 85.3652 21.0913 85.3652 20.318C85.3652 19.6197 85.5386 19.0222 85.8854 18.5255C86.3306 17.8881 86.9891 17.5695 87.8607 17.5695ZM87.931 22.3988C88.5473 22.3988 88.9925 22.1785 89.2666 21.738C89.5431 21.2951 89.6814 20.7866 89.6814 20.2126C89.6814 19.6057 89.522 19.1171 89.2034 18.7469C88.887 18.3767 88.4536 18.1916 87.9029 18.1916C87.3687 18.1916 86.9328 18.3755 86.5954 18.7434C86.258 19.1089 86.0893 19.649 86.0893 20.3637C86.0893 20.9354 86.2334 21.4181 86.5216 21.8118C86.8122 22.2031 87.282 22.3988 87.931 22.3988Z" fill="white"></path><path d="M91.2349 17.71H92.0609L94.6688 21.8926V17.71H95.3331V22.8733H94.5493L91.9027 18.6942V22.8733H91.2349V17.71Z" fill="white"></path><path d="M167.924 13.5702H165.806V6.33869H163.333V4.93578C163.986 4.90685 164.443 4.86346 164.704 4.80561C165.12 4.71401 165.458 4.53081 165.719 4.25602C165.898 4.068 166.034 3.81731 166.125 3.50394C166.179 3.31592 166.205 3.17612 166.205 3.08452H167.924V13.5702Z" fill="white"></path><path d="M174.661 13.8305C173.322 13.8305 172.381 13.3629 171.84 12.4276C171.303 11.4923 171.035 10.1593 171.035 8.42859C171.035 6.69785 171.303 5.36244 171.84 4.42234C172.381 3.48225 173.322 3.0122 174.661 3.0122C176 3.0122 176.94 3.48225 177.482 4.42234C178.018 5.36244 178.287 6.69785 178.287 8.42859C178.287 10.1593 178.016 11.4923 177.475 12.4276C176.938 13.3629 176 13.8305 174.661 13.8305ZM175.872 11.191C176.06 10.5546 176.155 9.63384 176.155 8.42859C176.155 7.16549 176.058 6.23022 175.865 5.62277C175.676 5.01532 175.275 4.7116 174.661 4.7116C174.047 4.7116 173.641 5.01532 173.443 5.62277C173.244 6.23022 173.145 7.16549 173.145 8.42859C173.145 9.63384 173.244 10.5571 173.443 11.1983C173.641 11.8346 174.047 12.1528 174.661 12.1528C175.275 12.1528 175.679 11.8322 175.872 11.191Z" fill="white"></path><path d="M182.928 13.8305C181.589 13.8305 180.649 13.3629 180.107 12.4276C179.57 11.4923 179.302 10.1593 179.302 8.42859C179.302 6.69785 179.57 5.36244 180.107 4.42234C180.649 3.48225 181.589 3.0122 182.928 3.0122C184.267 3.0122 185.207 3.48225 185.749 4.42234C186.286 5.36244 186.554 6.69785 186.554 8.42859C186.554 10.1593 186.283 11.4923 185.742 12.4276C185.205 13.3629 184.267 13.8305 182.928 13.8305ZM184.139 11.191C184.328 10.5546 184.422 9.63384 184.422 8.42859C184.422 7.16549 184.325 6.23022 184.132 5.62277C183.943 5.01532 183.542 4.7116 182.928 4.7116C182.314 4.7116 181.908 5.01532 181.71 5.62277C181.511 6.23022 181.412 7.16549 181.412 8.42859C181.412 9.63384 181.511 10.5571 181.71 11.1983C181.908 11.8346 182.314 12.1528 182.928 12.1528C183.542 12.1528 183.946 11.8322 184.139 11.191Z" fill="white"></path><path d="M194.495 11.0898C194.495 10.3425 194.758 9.70615 195.285 9.18067C195.812 8.66 196.448 8.39966 197.192 8.39966C197.937 8.39966 198.573 8.66241 199.1 9.1879C199.627 9.71339 199.89 10.3473 199.89 11.0898C199.89 11.8322 199.627 12.4662 199.1 12.9917C198.573 13.5172 197.937 13.7799 197.192 13.7799C196.448 13.7799 195.812 13.5172 195.285 12.9917C194.758 12.4662 194.495 11.8322 194.495 11.0898ZM188.236 7.72713C187.709 7.20165 187.446 6.56769 187.446 5.82525C187.446 5.08282 187.709 4.44886 188.236 3.92337C188.763 3.39788 189.399 3.13514 190.144 3.13514C190.888 3.13514 191.524 3.39788 192.051 3.92337C192.578 4.44886 192.841 5.08282 192.841 5.82525C192.841 6.56769 192.578 7.20165 192.051 7.72713C191.529 8.25262 190.893 8.51537 190.144 8.51537C189.399 8.51537 188.763 8.25262 188.236 7.72713ZM191.282 13.845H190.158L196.039 3.08452H197.142L191.282 13.845ZM196.38 11.8997C196.603 12.1263 196.873 12.2396 197.192 12.2396C197.511 12.2396 197.782 12.1287 198.005 11.9069C198.232 11.6804 198.345 11.408 198.345 11.0898C198.345 10.7716 198.232 10.5016 198.005 10.2799C197.782 10.0533 197.511 9.93997 197.192 9.93997C196.873 9.93997 196.6 10.0533 196.373 10.2799C196.151 10.5016 196.039 10.7716 196.039 11.0898C196.039 11.408 196.153 11.6779 196.38 11.8997ZM189.331 6.63518C189.554 6.86177 189.825 6.97506 190.144 6.97506C190.463 6.97506 190.733 6.86418 190.956 6.64241C191.183 6.41582 191.297 6.14344 191.297 5.82525C191.297 5.50707 191.183 5.23709 190.956 5.01533C190.733 4.78874 190.463 4.67544 190.144 4.67544C189.825 4.67544 189.551 4.78874 189.324 5.01533C189.102 5.23709 188.991 5.50707 188.991 5.82525C188.991 6.14344 189.104 6.41341 189.331 6.63518Z" fill="white"></path><path d="M209.463 12.0299C209.989 12.0299 210.417 11.972 210.746 11.8563C211.37 11.6346 211.682 11.2224 211.682 10.6197C211.682 10.2678 211.527 9.99541 211.217 9.80257C210.908 9.61455 210.422 9.44823 209.76 9.3036L208.629 9.0505C207.517 8.79981 206.748 8.52742 206.322 8.23334C205.602 7.7416 205.242 6.97265 205.242 5.92649C205.242 4.97194 205.59 4.17888 206.286 3.54733C206.982 2.91578 208.005 2.60001 209.354 2.60001C210.48 2.60001 211.44 2.89891 212.233 3.49671C213.03 4.08969 213.449 4.95265 213.487 6.08559H211.341C211.302 5.44439 211.022 4.98881 210.5 4.71883C210.151 4.54046 209.719 4.45127 209.201 4.45127C208.626 4.45127 208.167 4.56697 207.824 4.79838C207.48 5.02979 207.309 5.35279 207.309 5.7674C207.309 6.14826 207.478 6.4327 207.816 6.62072C208.034 6.74606 208.498 6.8931 209.209 7.06184L211.051 7.50296C211.858 7.6958 212.467 7.95372 212.878 8.27673C213.516 8.77811 213.835 9.50367 213.835 10.4534C213.835 11.4272 213.461 12.2372 212.711 12.8832C211.967 13.5244 210.913 13.845 209.55 13.845C208.157 13.845 207.062 13.5292 206.264 12.8977C205.467 12.2613 205.068 11.3887 205.068 10.2799H207.2C207.268 10.7668 207.401 11.1308 207.599 11.3718C207.961 11.8105 208.583 12.0299 209.463 12.0299Z" fill="white"></path><path d="M222.929 8.9131H217.737V11.6538H223.654V13.5702H215.554V2.91096H223.393V4.79838H217.737V7.06184H222.929V8.9131Z" fill="white"></path><path d="M232.937 12.7747C232.139 13.5027 231.119 13.8667 229.876 13.8667C228.339 13.8667 227.13 13.3749 226.251 12.3914C225.371 11.4031 224.931 10.0484 224.931 8.32735C224.931 6.46644 225.431 5.0322 226.432 4.02461C227.302 3.14719 228.409 2.70848 229.753 2.70848C231.552 2.70848 232.867 3.29664 233.698 4.47296C234.158 5.13344 234.404 5.79633 234.438 6.46162H232.204C232.059 5.9506 231.873 5.56492 231.646 5.30458C231.24 4.84177 230.638 4.61036 229.84 4.61036C229.028 4.61036 228.387 4.93819 227.918 5.59384C227.45 6.24468 227.215 7.1679 227.215 8.36351C227.215 9.55911 227.462 10.4558 227.955 11.0536C228.453 11.6466 229.084 11.9431 229.847 11.9431C230.631 11.9431 231.228 11.6876 231.639 11.1766C231.866 10.9018 232.054 10.4896 232.204 9.93997H234.416C234.223 11.1018 233.73 12.0467 232.937 12.7747Z" fill="white"></path><path d="M242.451 9.46269V2.91096H244.721V9.46269C244.721 10.5956 244.545 11.4779 244.192 12.1094C243.534 13.2665 242.28 13.845 240.428 13.845C238.576 13.845 237.319 13.2665 236.657 12.1094C236.304 11.4779 236.128 10.5956 236.128 9.46269V2.91096H238.397V9.46269C238.397 10.1955 238.484 10.7306 238.658 11.0681C238.929 11.6659 239.519 11.9648 240.428 11.9648C241.332 11.9648 241.919 11.6659 242.19 11.0681C242.364 10.7306 242.451 10.1955 242.451 9.46269Z" fill="white"></path><path d="M251.4 9.39038H249.094V13.5702H246.911V2.91096H252.154C252.904 2.92542 253.479 3.01702 253.88 3.18576C254.286 3.35449 254.629 3.60277 254.91 3.9306C255.142 4.20058 255.326 4.49948 255.461 4.82731C255.596 5.15513 255.664 5.52876 255.664 5.94819C255.664 6.45439 255.536 6.95337 255.28 7.44511C255.024 7.93203 254.6 8.27673 254.011 8.47921C254.504 8.67687 254.852 8.9589 255.055 9.32529C255.263 9.68687 255.367 10.2413 255.367 10.9885V11.7045C255.367 12.1914 255.386 12.5216 255.425 12.6952C255.483 12.97 255.618 13.1724 255.831 13.3026V13.5702H253.372C253.305 13.334 253.256 13.1435 253.227 12.9989C253.169 12.7 253.138 12.3939 253.133 12.0805L253.119 11.0898C253.109 10.41 252.983 9.95685 252.742 9.73026C252.505 9.50367 252.057 9.39038 251.4 9.39038ZM252.756 7.45234C253.201 7.24986 253.423 6.84971 253.423 6.25191C253.423 5.6059 253.208 5.17201 252.778 4.95024C252.536 4.8249 252.174 4.76222 251.69 4.76222H249.094V7.62589H251.625C252.128 7.62589 252.505 7.56804 252.756 7.45234Z" fill="white"></path><path d="M265.033 8.9131H259.841V11.6538H265.759V13.5702H257.658V2.91096H265.498V4.79838H259.841V7.06184H265.033V8.9131Z" fill="white"></path><path d="M164.03 17.4608V20.5898C164.03 20.9573 164.098 21.2629 164.236 21.5064C164.441 21.874 164.785 22.0577 165.27 22.0577C165.851 22.0577 166.246 21.859 166.456 21.4616C166.568 21.2456 166.624 20.955 166.624 20.5898V17.4608H167.32V20.3038C167.32 20.9263 167.237 21.4053 167.069 21.7407C166.761 22.3518 166.18 22.6573 165.325 22.6573C164.471 22.6573 163.891 22.3518 163.585 21.7407C163.417 21.4053 163.333 20.9263 163.333 20.3038V17.4608H164.03Z" fill="white"></path><path d="M168.385 17.4608H169.054V19.9281L171.521 17.4608H172.469L170.363 19.5008L172.527 22.5229H171.635L169.864 19.9833L169.054 20.7586V22.5229H168.385V17.4608Z" fill="white"></path><path d="M175.391 17.4608L176.345 21.5788L177.489 17.4608H178.234L179.378 21.5788L180.332 17.4608H181.084L179.753 22.5229H179.033L177.865 18.3258L176.69 22.5229H175.97L174.647 17.4608H175.391Z" fill="white"></path><path d="M181.787 17.4608H185.477V18.0811H182.455V19.618H185.25V20.2038H182.455V21.9199H185.529V22.5229H181.787V17.4608Z" fill="white"></path><path d="M188.33 19.6008C188.62 19.6008 188.845 19.5606 189.006 19.4802C189.259 19.3538 189.385 19.1264 189.385 18.7979C189.385 18.4671 189.25 18.2442 188.982 18.1294C188.83 18.065 188.605 18.0329 188.306 18.0329H187.083V19.6008H188.33ZM188.561 21.9371C188.982 21.9371 189.281 21.8154 189.461 21.5719C189.573 21.4179 189.63 21.2319 189.63 21.0136C189.63 20.646 189.465 20.3956 189.137 20.2624C188.962 20.1912 188.731 20.1556 188.444 20.1556H187.083V21.9371H188.561ZM186.411 17.4608H188.585C189.178 17.4608 189.6 17.6377 189.85 17.9915C189.997 18.2006 190.071 18.4418 190.071 18.7152C190.071 19.0345 189.98 19.2964 189.798 19.5008C189.704 19.6088 189.569 19.7076 189.392 19.7972C189.651 19.896 189.845 20.0074 189.974 20.1315C190.202 20.352 190.315 20.6564 190.315 21.0446C190.315 21.3708 190.213 21.6661 190.009 21.9302C189.703 22.3254 189.217 22.5229 188.551 22.5229H186.411V17.4608Z" fill="white"></path><path d="M191.583 20.8896C191.599 21.1767 191.667 21.4099 191.787 21.5891C192.014 21.9245 192.415 22.0922 192.989 22.0922C193.247 22.0922 193.481 22.0554 193.692 21.9819C194.101 21.8395 194.306 21.5845 194.306 21.2169C194.306 20.9413 194.22 20.7448 194.047 20.6277C193.873 20.5128 193.599 20.4129 193.227 20.3279L192.541 20.1728C192.093 20.0717 191.776 19.9603 191.59 19.8385C191.269 19.6272 191.108 19.3113 191.108 18.8909C191.108 18.436 191.265 18.0627 191.58 17.771C191.895 17.4792 192.34 17.3333 192.917 17.3333C193.448 17.3333 193.898 17.462 194.268 17.7193C194.64 17.9743 194.826 18.3832 194.826 18.946H194.182C194.147 18.675 194.074 18.4671 193.961 18.3223C193.752 18.0581 193.397 17.926 192.896 17.926C192.492 17.926 192.201 18.011 192.024 18.181C191.848 18.351 191.759 18.5486 191.759 18.7738C191.759 19.0219 191.863 19.2033 192.069 19.3182C192.205 19.3917 192.511 19.4836 192.989 19.5939L193.699 19.7558C194.041 19.834 194.306 19.9408 194.492 20.0763C194.813 20.3129 194.974 20.6564 194.974 21.1067C194.974 21.6672 194.77 22.0681 194.361 22.3093C193.954 22.5505 193.481 22.6711 192.941 22.6711C192.312 22.6711 191.819 22.5103 191.463 22.1887C191.107 21.8694 190.932 21.4363 190.939 20.8896H191.583Z" fill="white"></path><path d="M195.998 17.4608H196.69V22.5229H195.998V17.4608Z" fill="white"></path><path d="M201.49 17.4608V18.0639H199.785V22.5229H199.089V18.0639H197.383V17.4608H201.49Z" fill="white"></path><path d="M202.187 17.4608H205.877V18.0811H202.855V19.618H205.65V20.2038H202.855V21.9199H205.929V22.5229H202.187V17.4608Z" fill="white"></path><mask id="mask0_995_6251" style="mask-type:alpha" maskUnits="userSpaceOnUse" x="124" y="1" width="33" height="24"><rect x="124.333" y="1" width="31.8308" height="23.8731" rx="1.98943" fill="#D9D9D9"></rect></mask><g mask="url(#mask0_995_6251)"><path fill-rule="evenodd" clip-rule="evenodd" d="M124.333 1V24.8731H156.164V1H124.333Z" fill="#2E42A5"></path><mask id="mask1_995_6251" style="mask-type:alpha" maskUnits="userSpaceOnUse" x="124" y="1" width="33" height="24"><path fill-rule="evenodd" clip-rule="evenodd" d="M124.333 1V24.8731H156.164V1H124.333Z" fill="white"></path></mask><g mask="url(#mask1_995_6251)"><mask id="mask2_995_6251" style="mask-type:alpha" maskUnits="userSpaceOnUse" x="124" y="1" width="33" height="24"><path d="M124.333 1H156.164V24.8731H124.333V1Z" fill="white"></path></mask><g mask="url(#mask2_995_6251)"><path d="M120.789 23.1668L127.794 26.1301L156.322 4.22052L160.018 -0.182075L152.527 -1.17181L140.891 8.269L131.525 14.6312L120.789 23.1668Z" fill="white"></path><path d="M121.747 25.2427L125.317 26.9615L158.69 -0.591003H153.68L121.748 25.2417L121.747 25.2427Z" fill="#F50100"></path><path d="M159.708 23.1668L152.704 26.1301L124.175 4.22052L120.48 -0.182075L127.97 -1.17181L139.606 8.269L148.973 14.6312L159.708 23.1668Z" fill="white"></path><path d="M159.469 24.6569L155.9 26.3758L141.69 14.5785L137.476 13.2615L120.124 -0.167114H125.135L142.477 12.9432L147.083 14.5228L159.469 24.6569Z" fill="#F50100"></path><mask id="mask3_995_6251" style="mask-type:alpha" maskUnits="userSpaceOnUse" x="122" y="-1" width="37" height="28"><path fill-rule="evenodd" clip-rule="evenodd" d="M144.007 -0.989929H136.491V8.9572H122.372V16.9149H136.491V26.862H144.007V16.9149H158.181V8.9572H144.007V-0.989929Z" fill="white"></path></mask><g mask="url(#mask3_995_6251)"><path fill-rule="evenodd" clip-rule="evenodd" d="M144.007 -0.989929H136.491V8.9572H122.372V16.9149H136.491V26.862H144.007V16.9149H158.181V8.9572H144.007V-0.989929Z" fill="#F50100"></path><path d="M136.491 -0.989579V-2.979H134.501V-0.989579H136.491ZM144.007 -0.989579H145.996V-2.979H144.007V-0.989579ZM136.491 8.95755V10.947H138.48V8.95755H136.491ZM122.372 8.95755V6.96812H120.382V8.95755H122.372ZM122.372 16.9152H120.382V18.9047H122.372V16.9152ZM136.491 16.9152H138.48V14.9258H136.491V16.9152ZM136.491 26.8624H134.501V28.8518H136.491V26.8624ZM144.007 26.8624V28.8518H145.996V26.8624H144.007ZM144.007 16.9152V14.9258H142.017V16.9152H144.007ZM158.181 16.9152V18.9047H160.171V16.9152H158.181ZM158.181 8.95755H160.171V6.96812H158.181V8.95755ZM144.007 8.95755H142.017V10.947H144.007V8.95755ZM136.491 0.999847H144.007V-2.979H136.491V0.999847ZM138.48 8.95755V-0.989579H134.501V8.95755H138.48ZM122.372 10.947H136.491V6.96812H122.372V10.947ZM124.361 16.9152V8.95755H120.382V16.9152H124.361ZM136.491 14.9258H122.372V18.9047H136.491V14.9258ZM138.48 26.8624V16.9152H134.501V26.8624H138.48ZM144.007 24.8729H136.491V28.8518H144.007V24.8729ZM142.017 16.9152V26.8624H145.996V16.9152H142.017ZM158.181 14.9258H144.007V18.9047H158.181V14.9258ZM156.192 8.95755V16.9152H160.171V8.95755H156.192ZM144.007 10.947H158.181V6.96812H144.007V10.947ZM142.017 -0.989579V8.95755H145.996V-0.989579H142.017Z" fill="white"></path></g></g></g></g><defs><linearGradient id="paint0_linear_995_6251" x1="14.0562" y1="0" x2="14.0562" y2="26" gradientUnits="userSpaceOnUse"><stop stop-color="#58CF6B"></stop><stop offset="1" stop-color="#3BB36B"></stop></linearGradient></defs></svg>