<svg xmlns="http://www.w3.org/2000/svg" width="59" height="62" viewBox="0 0 59 62" fill="none"><circle cx="30" cy="35" r="27" fill="#CDD2EC"></circle><path d="M34.9168 15.6667H14.3057C13.9153 15.6667 13.5408 15.5116 13.2647 15.2355C12.9886 14.9594 12.8335 14.5849 12.8335 14.1945V8.3056C12.8335 7.91514 12.9886 7.54067 13.2647 7.26458C13.5408 6.98848 13.9153 6.83337 14.3057 6.83337H34.9168C35.3073 6.83337 35.6818 6.98848 35.9578 7.26458C36.2339 7.54067 36.3891 7.91514 36.3891 8.3056V14.1945C36.3891 14.5849 36.2339 14.9594 35.9578 15.2355C35.6818 15.5116 35.3073 15.6667 34.9168 15.6667ZM15.7779 12.7223H33.4446V9.68949H15.7779V12.7223Z" fill="#1E2241"></path><path d="M34.9168 18.729H14.3057C13.9153 18.729 13.5408 18.8841 13.2647 19.1602C12.9886 19.4363 12.8335 19.8108 12.8335 20.2012V25.9723C12.8335 26.3628 12.9886 26.7373 13.2647 27.0134C13.5408 27.2895 13.9153 27.4446 14.3057 27.4446H31.0302L36.3891 21.9973V20.2012C36.3891 19.8108 36.2339 19.4363 35.9578 19.1602C35.6818 18.8841 35.3073 18.729 34.9168 18.729ZM33.4446 24.5001H15.7779V21.5557H33.4446V24.5001Z" fill="#1E2241"></path><path d="M20.2827 44.3897V44.3014L20.7538 42.255H9.88878V3.8889H39.3332V18.9792L42.2777 16.1967V2.41668C42.2777 2.02622 42.1226 1.65176 41.8465 1.37566C41.5704 1.09957 41.1959 0.944458 40.8054 0.944458H8.41656C8.0261 0.944458 7.65163 1.09957 7.37554 1.37566C7.09944 1.65176 6.94434 2.02622 6.94434 2.41668V43.6389C6.94434 44.0294 7.09944 44.4038 7.37554 44.6799C7.65163 44.956 8.0261 45.1111 8.41656 45.1111H20.1943C20.2065 44.8689 20.236 44.6278 20.2827 44.3897Z" fill="#1E2241"></path><path d="M36.3891 26.2224L35.2407 27.3855C35.5256 27.3267 35.7867 27.1849 35.9911 26.9779C36.1955 26.7709 36.334 26.508 36.3891 26.2224Z" fill="#1E2241"></path><path d="M12.8335 37.6617C12.8335 38.0522 12.9886 38.4266 13.2647 38.7027C13.5408 38.9788 13.9153 39.1339 14.3057 39.1339H21.4313L21.8729 37.22L22.0643 36.4103V36.3367H15.7779V33.3334H25.1118L28.0563 30.3889H14.3057C13.9153 30.3889 13.5408 30.544 13.2647 30.8201C12.9886 31.0962 12.8335 31.4707 12.8335 31.8611V37.6617Z" fill="#1E2241"></path><path d="M53.3049 22.542L48.3435 17.5806C48.1233 17.3598 47.8618 17.1846 47.5738 17.0651C47.2858 16.9456 46.977 16.884 46.6652 16.884C46.3534 16.884 46.0446 16.9456 45.7566 17.0651C45.4686 17.1846 45.207 17.3598 44.9869 17.5806L24.8027 37.8825L23.1391 44.9639C23.0768 45.2694 23.0754 45.5842 23.135 45.8902C23.1945 46.1963 23.3139 46.4876 23.4862 46.7474C23.6585 47.0072 23.8804 47.2305 24.1392 47.4045C24.3979 47.5784 24.6884 47.6996 24.9941 47.7611C25.1458 47.7764 25.2987 47.7764 25.4505 47.7611C25.6309 47.7905 25.8148 47.7905 25.9952 47.7611L33.1355 46.1858L53.3049 25.9722C53.5253 25.7533 53.7001 25.493 53.8194 25.2062C53.9388 24.9194 54.0002 24.6119 54.0002 24.3013C54.0002 23.9907 53.9388 23.6831 53.8194 23.3963C53.7001 23.1096 53.5253 22.8492 53.3049 22.6303V22.542ZM31.6338 43.5064L26.2455 44.6989L27.5558 39.3547L42.6902 24.0583L46.8419 28.21L31.6338 43.5064ZM48.5055 26.5464L44.3538 22.3947L46.6946 20.0833L50.8758 24.2645L48.5055 26.5464Z" fill="#1E2241"></path></svg>