<svg xmlns="http://www.w3.org/2000/svg" width="54" height="62" viewBox="0 0 54 62" fill="none"><circle cx="27" cy="35" r="27" fill="#FBCBA8"></circle><path d="M10.0455 29.1875L12.4292 24.1333C12.4937 23.9888 12.5987 23.8661 12.7314 23.78C12.8641 23.6939 13.0189 23.6481 13.1772 23.6481C13.3354 23.6481 13.4902 23.6939 13.6229 23.78C13.7556 23.8661 13.8606 23.9888 13.9251 24.1333L16.3111 29.1875L21.6406 30.0042C22.3242 30.1074 22.595 30.9884 22.0994 31.4932L18.2451 35.4232L19.1536 40.9775C19.2706 41.691 18.5571 42.2347 17.9446 41.8975L13.1772 39.2752L8.40975 41.8975C7.79719 42.2347 7.08368 41.691 7.20069 40.9798L8.1092 35.4232L4.2549 31.4932C3.75705 30.9884 4.03006 30.1074 4.71374 30.0019L10.0455 29.1875V29.1875ZM37.5763 29.1875L39.96 24.1333C40.0245 23.9888 40.1294 23.8661 40.2621 23.78C40.3949 23.6939 40.5497 23.6481 40.7079 23.6481C40.8661 23.6481 41.0209 23.6939 41.1537 23.78C41.2864 23.8661 41.3913 23.9888 41.4558 24.1333L43.8418 29.1875L49.1713 30.0042C49.855 30.1074 50.1257 30.9884 49.6302 31.4932L45.7758 35.4232L46.6844 40.9775C46.8014 41.691 46.0879 42.2347 45.4753 41.8975L40.7079 39.2752L35.9405 41.8975C35.3279 42.2347 34.6144 41.691 34.7314 40.9798L35.6399 35.4232L31.7856 31.4932C31.2901 30.9884 31.5608 30.1074 32.2445 30.0019L37.5763 29.1875V29.1875ZM23.8109 8.53939L26.1946 3.48521C26.2591 3.34074 26.364 3.21803 26.4968 3.13193C26.6295 3.04582 26.7843 3 26.9425 3C27.1007 3 27.2556 3.04582 27.3883 3.13193C27.521 3.21803 27.626 3.34074 27.6904 3.48521L30.0764 8.53939L35.4059 9.35614C36.0896 9.45938 36.3603 10.3404 35.8648 10.8451L32.0105 14.7751L32.919 20.3294C33.036 21.0429 32.3225 21.5867 31.7099 21.2494L26.9425 18.6271L22.1751 21.2494C21.5626 21.5867 20.8491 21.0429 20.9661 20.3317L21.8746 14.7751L18.0203 10.8451C17.5224 10.3404 17.7954 9.45938 18.4791 9.35384L23.8109 8.53939V8.53939Z" stroke="#1E2241" stroke-width="3" stroke-linecap="round" stroke-linejoin="round"></path></svg>