<svg xmlns="http://www.w3.org/2000/svg" width="54" height="62" viewBox="0 0 54 62" fill="none"><circle cx="27" cy="35" r="27" fill="#BAE9CB"></circle><path d="M42.9998 47.7144V31.4858C42.9994 29.3843 42.5849 27.3034 41.7802 25.3621C40.9754 23.4207 39.7961 21.657 38.3095 20.1715L33.8524 15.7144V30.7704C33.8524 32.8046 31.3907 33.8264 29.9507 32.3864L26.9907 29.4286C25.8478 28.2858 23.1027 27.6001 21.2718 29.4286C19.4432 31.2572 20.129 34.0001 21.2718 35.1429L33.8524 47.7144" stroke="#1E2241" stroke-width="3" stroke-linecap="round" stroke-linejoin="round"></path><path d="M24.7143 2H29.2857C30.4981 2 31.6609 2.48163 32.5182 3.33894C33.3755 4.19625 33.8571 5.35901 33.8571 6.57143V11.1429M24.7143 2C24.7143 5.04686 26.5429 11.1429 33.8571 11.1429M24.7143 2H20.1429M33.8571 11.1429V24.8571M11 24.8571V11.1429M20.1429 2H15.5714C14.359 2 13.1962 2.48163 12.3389 3.33894C11.4816 4.19625 11 5.35901 11 6.57143V11.1429M20.1429 2C20.1429 5.04686 18.3143 11.1429 11 11.1429M11 24.8571V29.4286C11 30.641 11.4816 31.8038 12.3389 32.6611C13.1962 33.5184 14.359 34 15.5714 34H20.1429C20.1429 30.9531 18.3143 24.8571 11 24.8571Z" stroke="#1E2241" stroke-width="3" stroke-linecap="round" stroke-linejoin="round"></path><path d="M20.1429 18.0001C20.1429 19.2624 21.1663 20.2858 22.4286 20.2858C23.691 20.2858 24.7144 19.2624 24.7144 18.0001C24.7144 16.7377 23.691 15.7144 22.4286 15.7144C21.1663 15.7144 20.1429 16.7377 20.1429 18.0001Z" stroke="#1E2241" stroke-width="4.57143" stroke-linecap="round" stroke-linejoin="round"></path></svg>