<svg width="317" height="68" viewBox="0 0 317 68" fill="none" xmlns="http://www.w3.org/2000/svg">
<path fill-rule="evenodd" clip-rule="evenodd" d="M148.047 2.00012C148.047 1.17169 148.718 0.500122 149.547 0.500122C161.843 0.500122 176.428 0.820989 193.603 2.00367C221.534 3.927 243.252 7.66332 265.4 11.4737C270.307 12.3179 275.235 13.1656 280.256 13.9981C293.405 16.1783 305.268 19.7496 311.552 24.2522C314.664 26.4826 316.859 29.2801 316.453 32.5782C316.058 35.7818 313.276 38.6657 308.6 41.3089C299.922 46.2142 285.832 50.5709 270.671 54.1893C255.464 57.8185 239.022 60.7403 225.534 62.729C209.251 65.13 185.527 66.2615 168.234 67.076C147.648 68.0457 125.727 67.263 105.013 65.6369C68.6303 62.7807 39.9076 58.7326 13.1308 48.6427C5.87405 45.9082 1.35324 42.102 0.606591 37.6402C-0.1656 33.0257 3.21948 28.8473 8.9938 25.7553C13.9171 23.119 22.323 20.8691 31.1743 19.0267C40.0837 17.1723 49.6397 15.6937 56.9866 14.6555C89.5312 10.0567 141.429 6.11307 176.235 5.7586C177.063 5.75016 177.742 6.41486 177.75 7.24325C177.759 8.07163 177.094 8.75001 176.266 8.75844C141.588 9.1116 89.8204 13.0457 57.4063 17.626C50.0836 18.6607 40.6016 20.1288 31.7857 21.9638C22.9117 23.8108 14.9051 25.993 10.41 28.4C4.93135 31.3337 3.12876 34.5355 3.56545 37.145C4.02767 39.9072 7.11229 43.1689 14.1887 45.8354C40.5538 55.7702 68.9281 59.7949 105.248 62.6461C125.882 64.2659 147.671 65.0413 168.093 64.0793C185.438 63.2624 208.993 62.1355 225.097 59.7611C238.524 57.7812 254.876 54.8746 269.974 51.2713C285.118 47.6572 298.844 43.3772 307.124 38.6972C311.649 36.1396 313.267 33.9014 313.475 32.2111C313.672 30.6155 312.675 28.7477 309.804 26.6908C304.122 22.6189 292.858 19.1284 279.765 16.9577C274.715 16.1204 269.768 15.2695 264.851 14.4236C242.714 10.6157 221.163 6.90857 193.397 4.99658C176.303 3.81948 161.788 3.50012 149.547 3.50012C148.718 3.50012 148.047 2.82855 148.047 2.00012Z" fill="#BAE9CA"/>
</svg>
