<svg xmlns="http://www.w3.org/2000/svg" width="24" height="23" viewBox="0 0 24 23" fill="none"><circle cx="10.5" cy="11.6114" r="10.35" fill="white" fill-opacity="0.2" stroke="url(#paint0_linear_975_4475)" stroke-width="0.3"></circle><path d="M14.4289 6.24581C12.8687 7.94248 11.3528 9.89917 9.79262 12.2277C8.6394 11.0563 4.88724 8.1908 3.16067 8.1908C1.4341 8.1908 2.72252 8.24411 2.56521 8.34942C2.495 8.39622 2.4573 8.47943 2.4677 8.56264C2.5106 8.90197 2.77713 9.1607 3.01245 9.38952C3.09566 9.47013 3.17497 9.54683 3.23737 9.61964L3.24518 9.62874L3.25428 9.63654C5.85063 12.1003 7.93083 14.8267 9.43898 17.7389C9.5937 18.0367 9.89793 18.2226 10.2334 18.2226C10.5805 18.2226 10.8964 18.0211 11.0446 17.7064C15.651 7.84627 20.3171 3.52335 22.3102 1.67716C23.1605 0.889287 23.5129 0.564255 23.483 0.234023C23.4752 0.153415 23.4258 0.0832072 23.3516 0.0494039C23.2775 0.0169007 23.1891 0 23.089 0C22.4468 0 21.1414 0.72417 20.1598 1.33133L20.1572 1.33393C19.1392 1.98789 18.1251 2.74977 17.1448 3.60005C16.2321 4.39053 15.3195 5.27982 14.4328 6.24581H14.4289Z" fill="url(#paint1_linear_975_4475)"></path><defs><linearGradient id="paint0_linear_975_4475" x1="10.5" y1="1.11136" x2="10.5" y2="22.1114" gradientUnits="userSpaceOnUse"><stop stop-color="#58CF6B"></stop><stop offset="1" stop-color="#3BB36B"></stop></linearGradient><linearGradient id="paint1_linear_975_4475" x1="12.8674" y1="0" x2="12.8674" y2="18.2226" gradientUnits="userSpaceOnUse"><stop stop-color="#58CF6B"></stop><stop offset="1" stop-color="#3BB36B"></stop></linearGradient></defs></svg>