<svg xmlns="http://www.w3.org/2000/svg" width="435" height="579" viewBox="0 0 435 579" fill="none"><path fill-rule="evenodd" clip-rule="evenodd" d="M28.7778 228H28.1008C12.5811 228 0 240.581 0 256.101V550.899C0 566.419 12.5811 579 28.1008 579H406.899C422.419 579 435 566.419 435 550.899V256.101C435 243.408 426.585 232.681 415.03 229.194C412.202 218.987 407.941 209.222 403.675 199.444C400.955 193.213 398.234 186.976 395.879 180.615C388.413 160.406 384.742 138.84 384.951 117.296C385.048 107.381 387.048 97.79 389.037 88.2513C390.893 79.3499 392.74 70.494 393.022 61.4632C394.044 29.3653 363.51 6.79878 335.146 1.37613C296.353 -6.02786 253.41 17.2061 237.246 52.7661C233.439 61.1493 230.723 70.0349 228.012 78.9005C223.892 92.378 219.786 105.809 211.885 117.358C193.511 144.202 161.872 153.603 131.298 162.689C120.087 166.02 109.02 169.309 98.8019 173.399C71.2876 184.415 46.3386 203.781 28.7778 228Z" fill="#FBCBA8"></path><path d="M342.925 343.795H67.6634C59.6962 343.795 52.1045 337.33 50.7072 329.384L4.71897 68.5753C3.3216 60.6082 8.63996 54.1636 16.6071 54.1636H291.869C299.836 54.1636 307.428 60.629 308.825 68.5753L354.813 329.363C356.211 337.33 350.892 343.774 342.925 343.774V343.795Z" fill="#41B86B"></path><path d="M347.346 343.795H72.0847C64.1176 343.795 56.5259 337.33 55.1285 329.384L9.14036 68.5753C7.74299 60.6082 13.0613 54.1636 21.0285 54.1636H296.29C304.257 54.1636 311.849 60.629 313.246 68.5753L359.235 329.363C360.632 337.33 355.314 343.774 347.346 343.774V343.795Z" fill="#41B86B"></path><path d="M347.347 344.442H72.0849C63.8258 344.442 55.9421 337.726 54.4822 329.488L8.49397 68.6797C7.76399 64.5919 8.70253 60.7543 11.1219 57.8762C13.4995 55.0606 17.0033 53.4963 21.0078 53.4963H296.29C304.549 53.4963 312.433 60.2121 313.893 68.4503L359.881 329.238C360.611 333.326 359.673 337.163 357.253 340.041C354.876 342.857 351.372 344.421 347.368 344.421L347.347 344.442ZM21.0078 54.8103C17.3996 54.8103 14.2295 56.2077 12.123 58.7313C9.95391 61.3175 9.11966 64.7796 9.7662 68.4712L55.7544 329.259C57.1101 336.913 64.4306 343.149 72.0849 343.149H347.347C350.955 343.149 354.125 341.752 356.231 339.228C358.401 336.642 359.235 333.18 358.588 329.488L312.6 68.7006C311.244 61.0463 303.924 54.8103 296.27 54.8103H21.0078Z" fill="black"></path><path d="M406.37 354.724H69.4775C63.4501 354.724 58.5488 349.823 58.5488 343.795H417.319C417.319 349.823 412.418 354.724 406.391 354.724H406.37Z" fill="#CDCDCD"></path><path d="M406.37 355.371H69.4776C63.0956 355.371 57.9023 350.178 57.9023 343.796C57.9023 337.414 58.1943 343.149 58.5489 343.149H417.319C417.674 343.149 417.966 343.441 417.966 343.796C417.966 350.178 412.773 355.371 406.391 355.371H406.37ZM59.2163 344.442C59.55 349.802 64.0341 354.078 69.4776 354.078H406.37C411.813 354.078 416.297 349.823 416.631 344.442H59.2163Z" fill="black"></path><path d="M341.903 343.795H253.848V349.26H341.903V343.795Z" fill="white"></path><path d="M341.882 349.906H253.827C253.472 349.906 253.18 349.614 253.18 349.26V343.795C253.18 343.441 253.472 343.149 253.827 343.149H341.882C342.237 343.149 342.529 343.441 342.529 343.795V349.26C342.529 349.614 342.237 349.906 341.882 349.906ZM254.494 348.613H341.236V344.442H254.494V348.613Z" fill="black"></path><path d="M349.808 330.197H65.7447L18.8389 64.1956H302.902L349.808 330.197Z" fill="white"></path><path d="M349.808 330.844H65.745C65.4321 330.844 65.161 330.614 65.0984 330.302L18.1926 64.3209C18.1509 64.1332 18.1926 63.9455 18.3386 63.7995C18.4637 63.6535 18.6514 63.5701 18.8391 63.5701H302.902C303.215 63.5701 303.486 63.7995 303.549 64.1123L350.455 330.114C350.496 330.302 350.455 330.489 350.309 330.635C350.184 330.781 349.996 330.865 349.808 330.865V330.844ZM66.2873 329.551H349.036L302.36 64.8423H19.6108L66.2873 329.551Z" fill="black"></path><path d="M198.61 82.1554C211.177 68.4401 208.106 45.1716 191.75 30.1837C175.393 15.1959 151.946 14.1642 139.378 27.8795C126.81 41.5947 129.882 64.8632 146.238 79.8511C162.594 94.839 186.042 95.8707 198.61 82.1554Z" fill="#41B86B"></path><path d="M175.449 92.4138C154.864 92.4138 135.154 75.6661 131.525 55.0809C129.273 42.3377 133.59 30.5539 143.08 23.5879C143.372 23.3793 143.768 23.4419 143.997 23.7339C144.206 24.0259 144.143 24.4222 143.851 24.6516C134.779 31.3256 130.629 42.6297 132.798 54.8724C136.322 74.8736 155.448 91.1207 175.428 91.1207C195.408 91.1207 176.075 91.4127 176.075 91.7672C176.075 92.1218 175.783 92.4138 175.428 92.4138H175.449Z" fill="black"></path><path d="M173.801 46.5928H159.848L158.785 40.5444H172.738L173.801 46.5928Z" fill="white"></path><path d="M182.081 72.7673H164.458L163.394 66.719H181.018L182.081 72.7673Z" fill="white"></path><path d="M168.128 72.7675L162.456 40.6904H172.759L178.411 72.7675H168.128Z" fill="white"></path><path d="M171.173 31.6595C170.714 29.0942 168.274 27.0085 165.709 27.0085C163.143 27.0085 161.433 29.0942 161.871 31.6595C162.33 34.2248 164.77 36.3105 167.335 36.3105C169.901 36.3105 171.611 34.2248 171.173 31.6595Z" fill="white"></path><path d="M309.076 250.901H85.2666L59.1128 102.655H282.943L309.076 250.901Z" fill="#CDCDCD"></path><path d="M309.076 251.548H85.2665C84.9537 251.548 84.6825 251.318 84.62 251.006L58.487 102.759C58.4453 102.571 58.487 102.383 58.633 102.237C58.7581 102.091 58.9458 102.008 59.1336 102.008H282.943C283.256 102.008 283.527 102.237 283.589 102.55L309.722 250.797C309.764 250.985 309.722 251.172 309.576 251.318C309.451 251.464 309.263 251.548 309.076 251.548ZM85.8088 250.255H308.304L282.4 103.301H59.8844L85.7879 250.255H85.8088Z" fill="black"></path><path d="M236.162 250.901H167.148L156.491 190.418C153.133 171.355 165.855 155.921 184.918 155.921C203.981 155.921 222.146 171.376 225.504 190.418L236.162 250.901Z" fill="#41B86B"></path><path d="M174.802 251.214C182.686 235.822 175.24 207.562 156.532 198.531C130.358 185.892 137.72 161.031 118.407 166.829C85.3914 168.352 100.137 227.042 130.983 251.214H174.802Z" fill="black"></path><path d="M139.535 206.624C155.969 215.091 171.069 234.654 171.069 234.654L188.839 215.362C193.427 210.148 200.477 216.28 196.493 222.704C192.51 229.127 181.477 250.568 171.069 250.881C160.662 251.193 131.567 223.934 128.189 217.802C124.81 211.671 129.711 201.576 139.514 206.624H139.535Z" fill="white"></path><path d="M162.414 224.059L167.148 250.901C167.148 250.901 118.574 223.746 124.935 208.417C131.276 193.088 162.435 224.059 162.435 224.059H162.414Z" fill="#EEEEDD"></path><path d="M188.839 215.174C188.255 207.416 197.265 200.846 197.265 200.846L198.766 202.828L195.7 208.125C195.7 208.125 203.271 205.893 207.213 199.532L213.47 208.438C213.47 208.438 208.757 221.828 196.138 222.203C189.193 222.412 188.818 215.174 188.818 215.174H188.839Z" fill="white"></path><path d="M139.535 206.623C142.976 228.064 168.942 237.803 152.174 250.88H106.915C80.261 205.163 92.441 183.473 139.535 206.623Z" fill="#41B86B"></path><path d="M133.007 184.912C135.76 193.275 133.57 201.513 128.084 203.328C122.599 205.142 115.925 199.824 113.172 191.461C110.419 183.097 112.609 174.859 118.094 173.045C123.58 171.23 130.254 176.548 133.007 184.912Z" fill="#EEEEDD"></path><path d="M119.721 184.662C116.572 192.337 110.565 197.134 106.29 195.382C102.014 193.63 101.117 185.996 104.246 178.321C107.395 170.646 113.402 165.849 117.677 167.601C121.953 169.353 122.85 176.986 119.721 184.662Z" fill="black"></path><path d="M111.149 243.226C110.899 251.276 127.25 254.718 128.168 243.226C129.064 231.734 121.723 202.118 121.723 202.118C114.548 198.135 111.983 191.148 111.983 191.148C111.983 191.148 106.56 191.148 102.327 194.255C102.327 194.255 102.994 203.745 111.17 207.04C111.17 207.04 111.399 235.676 111.17 243.247L111.149 243.226Z" fill="#EEEEDD"></path><path d="M236.162 251.548H167.148C166.835 251.548 166.564 251.318 166.502 251.006L155.844 190.522C154.176 181.012 156.345 172.085 161.955 165.411C167.44 158.862 175.595 155.254 184.918 155.254C204.252 155.254 222.751 170.98 226.151 190.293L236.808 250.776C236.85 250.964 236.808 251.152 236.662 251.298C236.537 251.443 236.35 251.527 236.162 251.527V251.548ZM167.691 250.255H235.39L224.858 190.543C221.562 171.814 203.626 156.568 184.897 156.568C166.168 156.568 168.17 160.009 162.935 166.245C157.575 172.627 155.51 181.179 157.116 190.293L167.691 250.234V250.255Z" fill="black"></path><path d="M171.09 251.548C170.736 251.548 170.444 251.256 170.444 250.901C170.444 250.547 170.736 250.255 171.09 250.255C182.832 250.255 195.451 222.224 195.576 221.932C195.68 221.682 195.951 221.536 196.222 221.556C196.681 221.577 207.38 222.203 212.907 208.187C213.032 207.854 213.408 207.687 213.742 207.812C214.075 207.937 214.242 208.313 214.117 208.646C211.051 216.426 206.358 219.867 202.938 221.39C200.018 222.683 197.578 222.849 196.598 222.849C195.847 224.455 192.885 230.712 188.797 236.907C182.395 246.626 176.43 251.548 171.111 251.548H171.09Z" fill="black"></path><path d="M189.631 218.845C189.36 218.845 189.089 218.657 189.005 218.386C185.585 207.478 196.826 200.345 196.931 200.283C197.244 200.095 197.64 200.179 197.828 200.491C198.015 200.804 197.932 201.201 197.619 201.388C197.515 201.451 187.128 208.062 190.236 218.011C190.34 218.344 190.152 218.72 189.819 218.824C189.756 218.824 189.694 218.845 189.631 218.845Z" fill="black"></path><path d="M195.721 208.751C195.429 208.751 195.158 208.542 195.096 208.229C195.012 207.875 195.242 207.541 195.596 207.458C195.659 207.458 202.27 205.914 206.713 199.136C206.9 198.844 207.318 198.76 207.61 198.948C207.902 199.136 207.985 199.553 207.797 199.845C203.063 207.082 196.159 208.646 195.867 208.709C195.826 208.709 195.784 208.709 195.721 208.709V208.751Z" fill="black"></path><path d="M204.836 214.361C204.648 214.361 204.44 214.278 204.314 214.111C204.106 213.819 204.148 213.422 204.44 213.193C204.481 213.172 208.507 210.085 210.696 205.017C210.842 204.684 211.218 204.538 211.552 204.684C211.885 204.83 212.031 205.205 211.885 205.539C209.57 210.941 205.399 214.111 205.211 214.257C205.086 214.34 204.961 214.382 204.815 214.382L204.836 214.361Z" fill="black"></path><path d="M201.895 210.982C201.686 210.982 201.478 210.878 201.353 210.69C201.144 210.398 201.228 209.981 201.52 209.793C201.561 209.752 206.17 206.561 208.757 202.139C208.944 201.826 209.341 201.722 209.653 201.91C209.966 202.097 210.071 202.494 209.883 202.806C207.151 207.499 202.458 210.753 202.25 210.878C202.145 210.961 201.999 210.982 201.874 210.982H201.895Z" fill="black"></path><path d="M121.723 202.765C121.619 202.765 121.494 202.744 121.389 202.681C113.297 197.968 111.441 191.586 111.357 191.315C111.253 190.96 111.462 190.606 111.816 190.522C112.15 190.418 112.525 190.626 112.609 190.96C112.609 191.023 114.444 197.113 122.057 201.555C122.37 201.743 122.474 202.139 122.286 202.452C122.161 202.661 121.952 202.765 121.723 202.765Z" fill="#41B86B"></path><path d="M113.089 200.554C112.922 200.554 112.734 200.491 112.609 200.345C107.791 195.173 107.729 191.732 107.729 191.586C107.729 191.231 108.021 190.939 108.375 190.939C108.73 190.939 109.022 191.231 109.022 191.586C109.022 191.648 109.147 194.735 113.547 199.449C113.798 199.72 113.777 200.116 113.506 200.366C113.381 200.491 113.214 200.533 113.068 200.533L113.089 200.554Z" fill="#41B86B"></path><path d="M109.689 202.765C109.564 202.765 109.418 202.723 109.293 202.64C105.747 199.97 104.246 193.213 104.183 192.921C104.1 192.566 104.329 192.232 104.684 192.149C105.038 192.066 105.372 192.295 105.455 192.65C105.455 192.712 106.915 199.24 110.086 201.597C110.377 201.805 110.44 202.223 110.211 202.515C110.086 202.681 109.898 202.765 109.689 202.765Z" fill="#41B86B"></path><path d="M215.702 140.926H151.298C150.985 140.926 150.714 140.697 150.651 140.384L147.794 124.178C147.752 123.991 147.794 123.803 147.94 123.657C148.065 123.511 148.252 123.427 148.44 123.427H212.845C213.157 123.427 213.428 123.657 213.491 123.97L216.348 140.175C216.39 140.363 216.348 140.551 216.202 140.697C216.077 140.843 215.89 140.926 215.702 140.926ZM151.84 139.633H214.909L212.281 124.721H149.212L151.84 139.633Z" fill="#41B86B"></path><path d="M230.51 171.981C230.406 171.981 230.281 171.96 230.176 171.898C229.864 171.71 229.759 171.314 229.947 171.001L265.507 110.184C265.695 109.871 266.091 109.767 266.404 109.954C266.717 110.142 266.821 110.538 266.633 110.851L231.073 171.668C230.948 171.877 230.74 171.981 230.51 171.981Z" fill="white"></path><path d="M249.176 154.524C249.072 154.524 248.947 154.503 248.842 154.441C248.53 154.253 248.425 153.857 248.613 153.544L268.072 120.278C268.26 119.965 268.656 119.861 268.969 120.049C269.282 120.236 269.386 120.633 269.198 120.945L249.739 154.211C249.614 154.42 249.406 154.524 249.176 154.524Z" fill="white"></path><path d="M80.2401 146.682C80.1358 146.682 80.0107 146.661 79.9064 146.599C79.5936 146.411 79.4893 146.015 79.677 145.702L99.1359 112.436C99.3236 112.123 99.7199 112.019 100.033 112.207C100.346 112.394 100.45 112.791 100.262 113.104L80.8032 146.369C80.6781 146.578 80.4695 146.682 80.2401 146.682Z" fill="white"></path><path d="M89.9588 142.261C89.8546 142.261 89.7294 142.24 89.6251 142.177C89.3123 141.99 89.208 141.593 89.3957 141.281L108.855 108.015C109.042 107.702 109.439 107.598 109.751 107.785C110.064 107.973 110.169 108.369 109.981 108.682L90.522 141.948C90.3968 142.157 90.1883 142.261 89.9588 142.261Z" fill="white"></path><path d="M309.076 251.548H85.2665C84.9537 251.548 84.6825 251.318 84.62 251.006L58.487 102.759C58.4453 102.571 58.487 102.383 58.633 102.237C58.7581 102.091 58.9458 102.008 59.1336 102.008H282.943C283.256 102.008 283.527 102.237 283.589 102.55L309.722 250.797C309.764 250.985 309.722 251.172 309.576 251.318C309.451 251.464 309.263 251.548 309.076 251.548ZM85.8088 250.255H308.304L282.4 103.301H59.8844L85.7879 250.255H85.8088Z" fill="black"></path><path d="M258.462 199.242L217.143 222.525L249.076 279.198L290.396 255.916L258.462 199.242Z" fill="white"></path><path d="M249.155 279.62C248.925 279.62 248.717 279.495 248.592 279.287L216.619 222.641C216.452 222.328 216.556 221.932 216.869 221.765L258.186 198.448C258.332 198.364 258.519 198.343 258.686 198.385C258.853 198.427 258.999 198.552 259.082 198.698L291.055 255.365C291.222 255.677 291.118 256.074 290.805 256.241L249.489 279.558C249.384 279.62 249.28 279.641 249.176 279.641L249.155 279.62ZM218.058 222.558L249.384 278.077L289.554 255.406L258.227 199.887L218.058 222.558Z" fill="black"></path><path d="M254.657 209.056L227.475 224.373L229.86 228.607L257.043 213.29L254.657 209.056Z" fill="#CDCDCD"></path><path d="M232.115 235.092C231.886 235.092 231.677 234.967 231.552 234.759C231.385 234.446 231.49 234.049 231.802 233.883L258.478 218.824C258.79 218.657 259.187 218.762 259.354 219.075C259.52 219.387 259.416 219.784 259.103 219.951L232.428 235.009C232.324 235.071 232.219 235.092 232.115 235.092Z" fill="black"></path><path d="M234.806 239.827C234.576 239.827 234.368 239.702 234.243 239.493C234.076 239.18 234.18 238.784 234.493 238.617L249.989 229.878C250.302 229.711 250.698 229.816 250.865 230.129C251.032 230.441 250.928 230.838 250.615 231.005L235.118 239.743C235.014 239.806 234.91 239.827 234.806 239.827Z" fill="black"></path><path d="M237.476 244.582C237.246 244.582 237.038 244.457 236.912 244.248C236.746 243.935 236.85 243.539 237.163 243.372L252.659 234.633C252.972 234.467 253.368 234.571 253.535 234.884C253.702 235.196 253.597 235.593 253.285 235.76L237.788 244.498C237.684 244.561 237.58 244.582 237.476 244.582Z" fill="black"></path><path d="M240.144 249.316C239.915 249.316 239.707 249.191 239.581 248.983C239.415 248.67 239.519 248.273 239.832 248.107L255.328 239.368C255.641 239.201 256.037 239.305 256.204 239.618C256.371 239.931 256.266 240.327 255.954 240.494L240.457 249.233C240.353 249.295 240.249 249.316 240.144 249.316Z" fill="black"></path><path d="M242.815 254.051C242.585 254.051 242.377 253.925 242.252 253.717C242.085 253.404 242.189 253.008 242.502 252.841L257.998 244.102C258.311 243.935 258.707 244.04 258.874 244.352C259.041 244.665 258.937 245.062 258.624 245.228L243.128 253.967C243.023 254.03 242.919 254.051 242.815 254.051Z" fill="black"></path><path d="M263.546 252.82C263.316 252.82 263.108 252.695 262.983 252.486C262.816 252.173 262.92 251.777 263.233 251.61L276.06 244.373C276.373 244.206 276.769 244.311 276.936 244.623C277.102 244.936 276.998 245.333 276.685 245.499L263.859 252.737C263.754 252.799 263.65 252.82 263.546 252.82Z" fill="black"></path><path d="M351.934 154.795C350.746 162.408 345.531 167.914 340.297 167.101C335.062 166.287 331.766 159.446 332.955 151.834C334.144 144.221 339.358 138.715 344.593 139.529C349.828 140.342 353.123 147.183 351.934 154.795Z" fill="white"></path><path d="M341.318 167.831C340.943 167.831 340.568 167.81 340.192 167.747C337.439 167.309 335.103 165.39 333.622 162.304C332.183 159.3 331.704 155.546 332.308 151.75C332.892 147.934 334.498 144.513 336.772 142.094C339.129 139.612 341.944 138.486 344.676 138.903C350.266 139.779 353.811 146.953 352.56 154.9C351.413 162.325 346.491 167.831 341.298 167.831H341.318ZM343.55 140.113C341.527 140.113 339.483 141.114 337.731 142.97C335.625 145.202 334.165 148.372 333.602 151.938C333.038 155.484 333.476 158.967 334.811 161.741C336.104 164.431 338.086 166.1 340.401 166.454C345.281 167.205 350.162 161.949 351.309 154.691L351.955 154.795L351.309 154.691C352.435 147.454 349.39 140.926 344.509 140.175C344.197 140.133 343.884 140.113 343.571 140.113H343.55Z" fill="black"></path><path d="M337.439 150.415C341.548 166.934 358.129 163.326 354.416 147.162C356.523 137.213 350.558 139.09 350.558 139.09C348.577 125.555 342.633 135.19 342.633 135.19C333.205 121.237 325.885 145.431 337.46 150.436L337.439 150.415Z" fill="black"></path><path d="M342.779 154.149C341.819 156.443 339.692 157.757 338.023 157.069C336.355 156.38 335.771 153.961 336.73 151.646C337.69 149.352 339.817 148.038 341.485 148.726C343.154 149.414 343.738 151.834 342.779 154.149Z" fill="white"></path><path d="M338.962 157.903C338.565 157.903 338.169 157.819 337.794 157.673C337.46 157.527 337.314 157.152 337.439 156.818C337.585 156.485 337.96 156.339 338.294 156.464C339.608 157.006 341.402 155.838 342.194 153.898C342.987 151.959 342.57 149.873 341.256 149.331C339.942 148.789 338.148 149.957 337.356 151.896C337.21 152.23 336.834 152.397 336.501 152.251C336.167 152.105 336.021 151.729 336.146 151.396C337.23 148.768 339.754 147.287 341.735 148.121C343.738 148.955 344.468 151.75 343.383 154.399C342.507 156.526 340.672 157.903 338.962 157.903Z" fill="black"></path><path d="M352.936 167.101C354.688 170.896 350.996 176.34 344.677 179.26C338.357 182.18 331.829 181.45 330.078 177.654C328.326 173.858 332.017 168.414 338.337 165.495C344.656 162.575 351.184 163.305 352.936 167.101Z" fill="#7D8BD6"></path><path d="M382.385 232.819L386.077 242.35L388.246 240.661L390.186 248.398C390.186 248.398 403.471 245.708 391.875 227.959L382.385 232.819Z" fill="white"></path><path d="M393.564 247.356C393.293 247.356 393.043 247.189 392.939 246.918L390.331 239.18C390.227 238.846 390.394 238.471 390.749 238.367C391.082 238.262 391.458 238.429 391.562 238.784L394.169 246.521C394.273 246.855 394.106 247.231 393.752 247.335C393.689 247.356 393.606 247.377 393.543 247.377L393.564 247.356Z" fill="black"></path><path d="M286.008 230.692C286.008 226.562 282.65 223.204 278.521 223.204C274.391 223.204 271.033 226.562 271.033 230.692C271.033 234.821 274.391 238.179 278.521 238.179C282.65 238.179 286.008 234.821 286.008 230.692Z" fill="white"></path><path d="M278.521 238.846C274.037 238.846 270.387 235.196 270.387 230.712C270.387 226.228 274.037 222.578 278.521 222.578C283.005 222.578 286.655 226.228 286.655 230.712C286.655 235.196 283.005 238.846 278.521 238.846ZM278.521 223.871C274.746 223.871 271.68 226.937 271.68 230.712C271.68 234.487 274.746 237.553 278.521 237.553C282.296 237.553 285.362 234.487 285.362 230.712C285.362 226.937 282.296 223.871 278.521 223.871Z" fill="black"></path><path d="M320.212 225.853L296.457 333.346H316.041L338.879 248.524C338.879 248.524 333.435 278.432 338.879 284.417C344.322 290.403 369.871 304.544 369.871 304.544L382.385 286.607L357.378 270.298C362.259 242.329 365.408 232.423 356.836 221.932L320.212 225.874V225.853Z" fill="black"></path><path d="M360.09 174.129L359.13 221.911C359.13 221.911 352.602 232.152 320.212 225.853L322.381 174.129C322.381 174.129 340.151 161.553 360.09 174.129Z" fill="#7D8BD6"></path><path d="M360.09 174.129C360.09 174.129 377.985 194.673 380.884 199.741C383.783 204.809 392.959 227.876 392.959 227.876L381.363 233.82L369.287 211.587C369.287 211.587 348.494 194.422 344.385 187.185C340.276 179.927 347.534 167.851 360.09 174.129Z" fill="#7D8BD6"></path><path d="M322.382 174.129C314.54 178.822 304.007 205.789 304.007 205.789L281.045 220.535C281.045 220.535 278.876 229.962 287.093 236.969C287.093 236.969 308.95 227.521 314.894 219.325C320.838 211.128 333.019 192.733 335.188 184.516C337.357 176.298 330.829 169.04 322.382 174.129Z" fill="#7D8BD6"></path><path d="M313.684 333.346L311.035 343.795H281.544C283.713 337.747 294.83 339.332 299.189 333.346H313.684Z" fill="white"></path><path d="M311.015 344.442H281.524C281.315 344.442 281.107 344.338 281.002 344.171C280.877 344.004 280.856 343.774 280.919 343.587C282.149 340.145 285.841 339.019 289.741 337.81C293.162 336.767 296.686 335.682 298.647 332.971C298.772 332.804 298.96 332.7 299.168 332.7H313.663C313.872 332.7 314.06 332.783 314.185 332.95C314.31 333.117 314.352 333.305 314.31 333.513L311.661 343.962C311.578 344.254 311.327 344.442 311.035 344.442H311.015ZM282.567 343.149H310.514L312.85 333.993H299.502C297.249 336.85 293.641 337.976 290.137 339.04C286.946 340.02 283.922 340.959 282.567 343.149Z" fill="black"></path><path d="M370.935 303C375.065 308.986 369.746 318.893 373.626 321.792L387.161 295.2L380.174 289.736L370.935 303Z" fill="white"></path><path d="M373.626 322.459C373.48 322.459 373.354 322.418 373.229 322.334C371.06 320.707 371.373 317.37 371.707 313.846C372.04 310.3 372.395 306.275 370.414 303.376C370.268 303.146 370.268 302.854 370.414 302.625L379.653 289.36C379.757 289.214 379.903 289.11 380.091 289.089C380.258 289.068 380.446 289.11 380.592 289.214L387.578 294.679C387.829 294.866 387.891 295.2 387.766 295.492L374.23 322.084C374.147 322.251 373.98 322.376 373.792 322.418C373.751 322.418 373.688 322.418 373.646 322.418L373.626 322.459ZM371.728 303.021C373.709 306.254 373.334 310.342 373 313.971C372.729 316.807 372.499 319.31 373.459 320.707L386.348 295.409L380.32 290.695L371.728 303.021Z" fill="black"></path><path d="M396.088 244.06C395.817 244.06 395.566 243.894 395.483 243.622L393.21 237.178C393.084 236.844 393.272 236.469 393.606 236.344C393.94 236.218 394.315 236.406 394.44 236.74L395.963 241.057C396.588 234.925 391.437 228.439 391.374 228.356C391.145 228.085 391.187 227.667 391.479 227.438C391.75 227.209 392.167 227.25 392.396 227.542C392.459 227.626 394.148 229.732 395.546 232.756C397.402 236.802 397.819 240.577 396.734 243.622C396.651 243.873 396.401 244.06 396.13 244.06H396.088Z" fill="black"></path><path d="M386.056 243.018C385.785 243.018 385.555 242.851 385.451 242.6L381.759 233.069C381.634 232.735 381.801 232.36 382.135 232.235C382.468 232.11 382.844 232.277 382.969 232.61L386.661 242.142C386.786 242.475 386.619 242.851 386.285 242.976C386.202 242.997 386.139 243.018 386.056 243.018Z" fill="black"></path><path d="M390.165 249.066C389.873 249.066 389.602 248.878 389.539 248.565L387.599 240.828C387.516 240.473 387.725 240.119 388.079 240.035C388.434 239.952 388.788 240.16 388.872 240.515L390.811 248.253C390.895 248.607 390.686 248.962 390.332 249.045C390.269 249.045 390.227 249.045 390.165 249.045V249.066Z" fill="black"></path><path d="M320.942 211.212C320.838 211.212 320.713 211.191 320.609 211.128C320.296 210.941 320.212 210.544 320.379 210.232L330.974 192.712C331.162 192.399 331.558 192.316 331.871 192.483C332.184 192.671 332.267 193.067 332.1 193.38L321.505 210.899C321.38 211.108 321.172 211.212 320.942 211.212Z" fill="black"></path><path d="M359.485 204.162C359.13 204.162 358.838 203.849 358.859 203.495L359.234 188.562C359.234 188.207 359.526 187.915 359.902 187.936C360.256 187.936 360.548 188.249 360.527 188.604L360.152 203.537C360.152 203.891 359.86 204.162 359.506 204.162H359.485Z" fill="black"></path><path d="M353.165 171.335C353.082 171.335 352.998 171.335 352.915 171.272C346.449 168.456 339.901 169.228 339.838 169.228C339.483 169.27 339.15 169.019 339.108 168.665C339.066 168.31 339.317 167.977 339.671 167.935C339.942 167.893 346.637 167.122 353.416 170.083C353.749 170.229 353.895 170.605 353.749 170.938C353.645 171.189 353.395 171.335 353.144 171.335H353.165Z" fill="black"></path></svg>