<svg xmlns="http://www.w3.org/2000/svg" width="216" height="26" viewBox="0 0 216 26" fill="none"><circle cx="12.1693" cy="12.9774" r="11.6402" fill="white" stroke="white" stroke-width="1.0582"></circle><circle opacity="0.9" cx="11.6402" cy="11.7872" r="11.6402" fill="white"></circle><line x1="29.8413" y1="9.47217" x2="29.8413" y2="15.8214" stroke="white" stroke-width="0.42328"></line><path d="M36.3859 18.1812H37.3697V13.906H39.9377C40.0028 13.906 40.0896 13.906 40.1475 13.906L42.5491 18.1812H43.7065L41.1747 13.7468C42.5636 13.3851 43.4099 12.2784 43.4099 10.8099V10.7954C43.4099 8.93636 42.1079 7.74278 40.0679 7.74278H36.3859V18.1812ZM37.3697 13.0307V8.62531H39.9522C41.4641 8.62531 42.39 9.44273 42.39 10.8171V10.8316C42.39 12.2205 41.5002 13.0307 39.9884 13.0307H37.3697ZM48.3645 18.3186C49.9921 18.3186 51.1929 17.3854 51.4533 16.0978L51.4678 16.0255H50.5202L50.5057 16.0906C50.2598 16.908 49.493 17.465 48.3862 17.465C46.9033 17.465 45.9412 16.445 45.9123 14.6511H51.5619V14.2749C51.5619 12.0252 50.2959 10.5206 48.2849 10.5206C46.2739 10.5206 44.9429 12.0758 44.9429 14.434V14.4413C44.9429 16.8212 46.2522 18.3186 48.3645 18.3186ZM48.2777 11.3741C49.5653 11.3741 50.4912 12.2494 50.5998 13.8915H45.9267C46.0425 12.2928 46.9973 11.3741 48.2777 11.3741ZM53.8255 18.1812H54.7803V11.461H56.3934V10.658H54.7731V9.6091C54.7731 8.77722 55.1709 8.40829 55.9016 8.40829C56.0969 8.40829 56.2849 8.42276 56.4441 8.4517V7.66321C56.2777 7.63428 56.0101 7.60534 55.7424 7.60534C54.4837 7.60534 53.8255 8.23468 53.8255 9.59464V10.658H52.7766V11.461H53.8255V18.1812ZM60.8489 18.3114C62.0642 18.3114 62.9033 17.711 63.2867 16.9008H63.3084V18.1812H64.2705V10.658H63.3084V15.114C63.3084 16.5174 62.4403 17.4578 61.1238 17.4578C59.8506 17.4578 59.1562 16.7127 59.1562 15.3166V10.658H58.1941V15.4757C58.1941 17.2408 59.1851 18.3114 60.8489 18.3114ZM66.5124 18.1812H67.4672V13.7251C67.4672 12.3218 68.3425 11.3814 69.6518 11.3814C70.9322 11.3814 71.6267 12.1265 71.6267 13.5226V18.1812H72.5815V13.3634C72.5815 11.5984 71.5977 10.5278 69.934 10.5278C68.7187 10.5278 67.8723 11.1282 67.4962 11.9384H67.4672V10.658H66.5124V18.1812ZM77.594 18.3186C78.7803 18.3186 79.7207 17.6531 80.1547 16.6187H80.1837V18.1812H81.1458V7.74278H80.1837V12.2277H80.162C79.7352 11.1861 78.7658 10.5206 77.5867 10.5206C75.7059 10.5206 74.4111 12.0614 74.4111 14.4123V14.4196C74.4111 16.7706 75.6987 18.3186 77.594 18.3186ZM77.7748 17.465C76.3281 17.465 75.3949 16.2787 75.3949 14.4196V14.4123C75.3949 12.5677 76.3281 11.3741 77.7748 11.3741C79.1782 11.3741 80.1909 12.6039 80.1909 14.4123V14.4196C80.1909 16.2353 79.1926 17.465 77.7748 17.465ZM83.6047 18.1812H84.5306V9.60187H84.5812L88.1981 18.1812H89.059L92.6831 9.60187H92.7337V18.1812H93.6597V7.74278H92.524L88.6539 16.9369H88.6105L84.7404 7.74278H83.6047V18.1812ZM96.5671 20.713C97.8547 20.713 98.4696 20.1198 98.9687 18.7816L101.985 10.658H100.972L98.6866 17.2263H98.6576L96.379 10.658H95.3518L98.1802 18.2318L97.9994 18.7165C97.6666 19.6351 97.2253 19.91 96.379 19.91C96.256 19.91 96.133 19.8956 96.039 19.8811V20.6696C96.1764 20.6913 96.379 20.713 96.5671 20.713ZM103.627 18.1812H108.003C110.231 18.1812 111.584 17.0527 111.584 15.2298V15.2153C111.584 13.8409 110.586 12.8137 109.117 12.6835V12.6473C110.238 12.4954 111.085 11.4899 111.085 10.3687V10.3542C111.085 8.76998 109.862 7.74278 107.96 7.74278H103.627V18.1812ZM107.49 9.19678C108.596 9.19678 109.24 9.70314 109.24 10.6074V10.6218C109.24 11.6056 108.517 12.1554 107.171 12.1554H105.493V9.19678H107.49ZM107.468 13.5081C108.929 13.5081 109.681 14.0579 109.681 15.1068V15.1213C109.681 16.1702 108.944 16.7272 107.576 16.7272H105.493V13.5081H107.468ZM115.938 18.3331C117.095 18.3331 117.884 17.7978 118.282 16.9803H118.318V18.1812H120.119V10.5133H118.318V14.9549C118.318 16.0689 117.66 16.814 116.625 16.814C115.598 16.814 115.092 16.1991 115.092 15.114V10.5133H113.29V15.4685C113.29 17.248 114.253 18.3331 115.938 18.3331ZM125.189 18.3331C127.07 18.3331 128.408 17.3637 128.408 15.917V15.9097C128.408 14.7957 127.794 14.1736 126.209 13.8192L124.929 13.5371C124.133 13.3562 123.837 13.0669 123.837 12.6256V12.6184C123.837 12.0541 124.336 11.6852 125.132 11.6852C125.971 11.6852 126.463 12.1337 126.542 12.7486L126.549 12.8064H128.228L128.22 12.7269C128.155 11.4031 127.041 10.3542 125.132 10.3542C123.28 10.3542 122.057 11.3018 122.057 12.7052V12.7124C122.057 13.8481 122.795 14.5643 124.264 14.8898L125.537 15.1719C126.332 15.3527 126.6 15.6132 126.6 16.0761V16.0834C126.6 16.6476 126.072 17.002 125.197 17.002C124.285 17.002 123.786 16.6114 123.649 15.9531L123.634 15.888H121.862L121.869 15.9531C122.028 17.3782 123.178 18.3331 125.189 18.3331ZM131.106 9.41379C131.67 9.41379 132.104 8.9653 132.104 8.42999C132.104 7.88023 131.67 7.43896 131.106 7.43896C130.542 7.43896 130.101 7.88023 130.101 8.42999C130.101 8.9653 130.542 9.41379 131.106 9.41379ZM130.202 18.1812H132.003V10.5133H130.202V18.1812ZM134.129 18.1812H135.93V13.7324C135.93 12.6256 136.589 11.8733 137.623 11.8733C138.65 11.8733 139.157 12.4882 139.157 13.5805V18.1812H140.958V13.2188C140.958 11.4393 139.996 10.3542 138.31 10.3542C137.146 10.3542 136.365 10.8895 135.967 11.7141H135.93V10.5133H134.129V18.1812ZM146.368 18.3331C148.372 18.3331 149.501 17.1467 149.739 15.9676L149.761 15.888H148.075L148.061 15.9387C147.887 16.4523 147.301 16.9297 146.404 16.9297C145.233 16.9297 144.495 16.134 144.466 14.7885H149.833V14.2098C149.833 11.895 148.473 10.3542 146.281 10.3542C144.09 10.3542 142.679 11.9456 142.679 14.3617V14.3689C142.679 16.8067 144.068 18.3331 146.368 18.3331ZM146.303 11.7648C147.258 11.7648 147.952 12.3724 148.083 13.5877H144.487C144.632 12.4086 145.348 11.7648 146.303 11.7648ZM154.585 18.3331C156.466 18.3331 157.804 17.3637 157.804 15.917V15.9097C157.804 14.7957 157.189 14.1736 155.605 13.8192L154.325 13.5371C153.529 13.3562 153.233 13.0669 153.233 12.6256V12.6184C153.233 12.0541 153.732 11.6852 154.527 11.6852C155.367 11.6852 155.858 12.1337 155.938 12.7486L155.945 12.8064H157.623L157.616 12.7269C157.551 11.4031 156.437 10.3542 154.527 10.3542C152.676 10.3542 151.453 11.3018 151.453 12.7052V12.7124C151.453 13.8481 152.191 14.5643 153.659 14.8898L154.933 15.1719C155.728 15.3527 155.996 15.6132 155.996 16.0761V16.0834C155.996 16.6476 155.468 17.002 154.593 17.002C153.681 17.002 153.182 16.6114 153.044 15.9531L153.03 15.888H151.258L151.265 15.9531C151.424 17.3782 152.574 18.3331 154.585 18.3331ZM162.542 18.3331C164.423 18.3331 165.761 17.3637 165.761 15.917V15.9097C165.761 14.7957 165.146 14.1736 163.562 13.8192L162.281 13.5371C161.486 13.3562 161.189 13.0669 161.189 12.6256V12.6184C161.189 12.0541 161.688 11.6852 162.484 11.6852C163.323 11.6852 163.815 12.1337 163.895 12.7486L163.902 12.8064H165.58L165.573 12.7269C165.508 11.4031 164.394 10.3542 162.484 10.3542C160.632 10.3542 159.41 11.3018 159.41 12.7052V12.7124C159.41 13.8481 160.148 14.5643 161.616 14.8898L162.889 15.1719C163.685 15.3527 163.952 15.6132 163.952 16.0761V16.0834C163.952 16.6476 163.424 17.002 162.549 17.002C161.638 17.002 161.139 16.6114 161.001 15.9531L160.987 15.888H159.214L159.222 15.9531C159.381 17.3782 160.531 18.3331 162.542 18.3331ZM167.685 18.1812H174.441V16.6114H169.551V13.6383H174.173V12.1265H169.551V9.31252H174.441V7.74278H167.685V18.1812ZM176.473 18.1812H178.274V13.7324C178.274 12.6256 178.933 11.8733 179.967 11.8733C180.994 11.8733 181.501 12.4882 181.501 13.5805V18.1812H183.302V13.2188C183.302 11.4393 182.34 10.3542 180.654 10.3542C179.49 10.3542 178.708 10.8895 178.31 11.7141H178.274V10.5133H176.473V18.1812ZM188.712 18.3331C190.716 18.3331 191.844 17.1467 192.083 15.9676L192.105 15.888H190.419L190.405 15.9387C190.231 16.4523 189.645 16.9297 188.748 16.9297C187.576 16.9297 186.838 16.134 186.81 14.7885H192.177V14.2098C192.177 11.895 190.817 10.3542 188.625 10.3542C186.433 10.3542 185.023 11.9456 185.023 14.3617V14.3689C185.023 16.8067 186.412 18.3331 188.712 18.3331ZM188.647 11.7648C189.602 11.7648 190.296 12.3724 190.426 13.5877H186.831C186.976 12.4086 187.692 11.7648 188.647 11.7648ZM193.934 18.1812H195.735V13.7324C195.735 12.5967 196.35 11.9529 197.37 11.9529C197.674 11.9529 197.949 11.9963 198.101 12.0541V10.4265C197.963 10.3904 197.754 10.3542 197.529 10.3542C196.647 10.3542 196.01 10.9112 195.772 11.8371H195.735V10.5133H193.934V18.1812ZM202.788 20.8649C205.009 20.8649 206.405 19.7002 206.405 17.9641V10.5133H204.604V11.8154H204.56C204.126 10.9329 203.287 10.3542 202.202 10.3542C200.263 10.3542 199.012 11.8443 199.012 14.2677V14.2749C199.012 16.6621 200.249 18.1377 202.173 18.1377C203.273 18.1377 204.141 17.6169 204.567 16.7995H204.604V17.9063C204.604 18.8828 203.96 19.5049 202.788 19.5049C201.847 19.5049 201.233 19.1722 201.037 18.7309L201.016 18.6731H199.243L199.258 18.7382C199.475 19.939 200.755 20.8649 202.788 20.8649ZM202.737 16.7489C201.58 16.7489 200.849 15.8157 200.849 14.3038V14.2966C200.849 12.8064 201.58 11.8733 202.737 11.8733C203.851 11.8733 204.611 12.8209 204.611 14.3038V14.3111C204.611 15.8012 203.858 16.7489 202.737 16.7489ZM209.5 20.7274C211.099 20.7274 211.996 20.127 212.582 18.4416L215.338 10.5133H213.443L211.641 16.6476H211.591L209.797 10.5133H207.829L210.585 18.1884L210.477 18.4994C210.245 19.1432 209.862 19.3386 209.175 19.3386C208.922 19.3386 208.712 19.3024 208.574 19.2735V20.6479C208.791 20.684 209.153 20.7274 209.5 20.7274Z" fill="white"></path><path d="M9.27189 20.2416C9.27189 20.2416 9.3825 20.3911 9.73074 20.4198L10.4518 21.1101C10.4518 21.1101 10.5706 21.3314 11.431 21.3232C12.3876 21.315 12.5228 21.0815 12.5228 21.0815L13.2766 20.4178C13.4221 20.4178 13.6495 20.3932 13.7478 20.2621L14.2026 19.6967L8.79664 19.6987L9.27189 20.2416ZM6.7072 5.0276C6.80143 5.0276 6.89771 5.01326 6.99399 4.98254L10.4252 3.86202C10.9086 3.70429 11.1729 3.18398 11.0151 2.70054C10.8574 2.2171 10.3371 1.95285 9.85365 2.11058L6.42247 3.2311C5.93903 3.38883 5.67477 3.90914 5.83251 4.39258C5.95746 4.77974 6.31799 5.0276 6.7072 5.0276ZM5.86938 8.15971C6.00253 8.53868 6.35896 8.77426 6.73793 8.77426C6.84035 8.77426 6.94278 8.75787 7.0452 8.721L16.5235 5.3738C17.0028 5.20377 17.2548 4.67732 17.0868 4.19797C16.9168 3.71863 16.3903 3.46667 15.911 3.63464L6.43271 6.98389C5.95132 7.15392 5.7014 7.68037 5.86938 8.15971ZM8.83147 17.7445V19.0309H14.1718V17.7445H8.83147ZM14.2517 11.2263C12.9489 12.6827 12.4859 14.7107 12.3466 15.5301H8.80484C8.38285 15.5301 8.04076 15.8722 8.04076 16.2942C8.04076 16.7162 8.38285 17.0583 8.80484 17.0583H14.1985C14.6204 17.0583 14.9605 16.7162 14.9605 16.2942C14.9605 15.8804 14.6327 15.5465 14.223 15.5342C14.3849 14.7742 14.7782 13.4038 15.6242 12.4554C15.9642 12.0764 15.9315 11.4926 15.5504 11.1546C15.1735 10.8145 14.5897 10.8473 14.2517 11.2263ZM15.913 7.29936L6.43271 10.6302C6.14182 10.7326 5.92059 10.9743 5.8448 11.2734C5.769 11.5725 5.84889 11.89 6.05579 12.1194L8.34393 14.639C8.52624 14.8398 8.77616 14.9402 9.02607 14.9402C9.24731 14.9402 9.46854 14.8603 9.64676 14.7005C10.0237 14.3584 10.0524 13.7746 9.70821 13.3977L8.35417 11.9084L16.5235 9.03851C17.0028 8.87053 17.2568 8.34408 17.0868 7.86269C16.9188 7.38334 16.3924 7.12933 15.913 7.29936Z" fill="#101A5A"></path></svg>